SplineFontDB: 3.2
FontName: Atlas
FullName: Last Hope Atlas
FamilyName: Last Hope
Weight: Medium
Copyright: Twirl Pixel/Envy 2020
Version: 001.000
ItalicAngle: 0
UnderlinePosition: -149.414
UnderlineWidth: 49.8047
Ascent: 750
Descent: 250
InvalidEm: 0
sfntRevision: 0x00010000
LayerCount: 2
Layer: 0 1 "Sfondo" 1
Layer: 1 1 "Fore" 0
XUID: [1021 7 -371634410 8146863]
StyleMap: 0x0040
FSType: 0
OS2Version: 0
OS2_WeightWidthSlopeOnly: 0
OS2_UseTypoMetrics: 0
CreationTime: 1280473793
ModificationTime: 1599301464
PfmFamily: 17
TTFWeight: 500
TTFWidth: 5
LineGap: 90
VLineGap: 0
Panose: 2 0 6 3 0 0 0 0 0 0
OS2TypoAscent: 750
OS2TypoAOffset: 0
OS2TypoDescent: -250
OS2TypoDOffset: 0
OS2TypoLinegap: 90
OS2WinAscent: 750
OS2WinAOffset: 0
OS2WinDescent: 250
OS2WinDOffset: 0
HheadAscent: 750
HheadAOffset: 0
HheadDescent: -250
HheadDOffset: 0
OS2SubXSize: 649
OS2SubYSize: 699
OS2SubXOff: 0
OS2SubYOff: 140
OS2SupXSize: 649
OS2SupYSize: 699
OS2SupXOff: 0
OS2SupYOff: 479
OS2StrikeYSize: 50
OS2StrikeYPos: 259
OS2Vendor: '2ttf'
OS2CodePages: 00000093.00000000
OS2UnicodeRanges: 00000007.00010002.00000000.00000000
MarkAttachClasses: 1
DEI: 91125
ShortTable: cvt  2
  34
  648
EndShort
ShortTable: maxp 16
  1
  0
  322
  136
  16
  0
  0
  2
  0
  1
  1
  0
  64
  46
  0
  0
EndShort
LangName: 1033
GaspTable: 1 65535 0 0
Encoding: UnicodeBmp
UnicodeInterp: none
NameList: AGL For New Fonts
DisplaySize: -48
AntiAlias: 1
FitToEm: 0
WinInfo: 0 38 14
BeginPrivate: 0
EndPrivate
TeXData: 1 0 0 327680 163840 109226 458752 1048576 109226 783286 444596 497025 792723 393216 433062 380633 303038 157286 324010 404750 52429 2506097 1059062 262144
BeginChars: 65539 322

StartChar: .notdef
Encoding: 65536 -1 0
Width: 365
Flags: W
LayerCount: 2
Fore
SplineSet
33 0 m 1,0,-1
 33 666 l 1,1,-1
 299 666 l 1,2,-1
 299 0 l 1,3,-1
 33 0 l 1,0,-1
66 33 m 1,4,-1
 266 33 l 1,5,-1
 266 633 l 1,6,-1
 66 633 l 1,7,-1
 66 33 l 1,4,-1
EndSplineSet
Validated: 1
EndChar

StartChar: exclam
Encoding: 33 33 4
Width: 187
Flags: W
LayerCount: 2
Fore
SplineSet
0 188 m 1,0,-1
 0 250 l 1,1,-1
 0 312 l 1,2,-1
 0 375 l 1,3,-1
 0 438 l 1,4,-1
 0 500 l 1,5,-1
 0 562 l 1,6,-1
 62 562 l 1,7,-1
 62 625 l 1,8,-1
 125 625 l 1,9,-1
 125 562 l 1,10,-1
 125 500 l 1,11,-1
 125 438 l 1,12,-1
 125 375 l 1,13,-1
 125 312 l 1,14,-1
 125 250 l 1,15,-1
 62 250 l 1,16,-1
 62 188 l 1,17,-1
 0 188 l 1,0,-1
62 0 m 1,18,-1
 0 0 l 1,19,-1
 0 62 l 1,20,-1
 0 125 l 1,21,-1
 62 125 l 1,22,-1
 125 125 l 1,23,-1
 125 62 l 1,24,-1
 125 0 l 1,25,-1
 62 0 l 1,18,-1
EndSplineSet
Validated: 1
EndChar

StartChar: quotedbl
Encoding: 34 34 5
Width: 250
Flags: W
LayerCount: 2
Fore
SplineSet
125 500 m 1,0,-1
 125 562 l 1,1,-1
 125 625 l 1,2,-1
 188 625 l 1,3,-1
 188 562 l 1,4,-1
 188 500 l 1,5,-1
 125 500 l 1,0,-1
0 500 m 1,6,-1
 0 562 l 1,7,-1
 0 625 l 1,8,-1
 62 625 l 1,9,-1
 62 562 l 1,10,-1
 62 500 l 1,11,-1
 0 500 l 1,6,-1
EndSplineSet
Validated: 1
EndChar

StartChar: numbersign
Encoding: 35 35 6
Width: 625
Flags: W
LayerCount: 2
Fore
SplineSet
250 0 m 1,0,-1
 250 62 l 1,1,-1
 250 125 l 1,2,-1
 250 188 l 1,3,-1
 188 188 l 1,4,-1
 125 188 l 1,5,-1
 125 125 l 1,6,-1
 125 62 l 1,7,-1
 125 0 l 1,8,-1
 62 0 l 1,9,-1
 62 62 l 1,10,-1
 62 125 l 1,11,-1
 62 188 l 1,12,-1
 0 188 l 1,13,-1
 0 250 l 1,14,-1
 62 250 l 1,15,-1
 125 250 l 1,16,-1
 125 312 l 1,17,-1
 125 375 l 1,18,-1
 62 375 l 1,19,-1
 0 375 l 1,20,-1
 0 438 l 1,21,-1
 62 438 l 1,22,-1
 125 438 l 1,23,-1
 188 438 l 1,24,-1
 188 500 l 1,25,-1
 188 562 l 1,26,-1
 188 625 l 1,27,-1
 250 625 l 1,28,-1
 250 562 l 1,29,-1
 250 500 l 1,30,-1
 250 438 l 1,31,-1
 312 438 l 1,32,-1
 375 438 l 1,33,-1
 375 500 l 1,34,-1
 375 562 l 1,35,-1
 375 625 l 1,36,-1
 438 625 l 1,37,-1
 438 562 l 1,38,-1
 438 500 l 1,39,-1
 438 438 l 1,40,-1
 500 438 l 1,41,-1
 562 438 l 1,42,-1
 562 375 l 1,43,-1
 500 375 l 1,44,-1
 438 375 l 1,45,-1
 375 375 l 1,46,-1
 375 312 l 1,47,-1
 375 250 l 1,48,-1
 438 250 l 1,49,-1
 500 250 l 1,50,-1
 562 250 l 1,51,-1
 562 188 l 1,52,-1
 500 188 l 1,53,-1
 438 188 l 1,54,-1
 375 188 l 1,55,-1
 312 188 l 1,56,-1
 312 125 l 1,57,-1
 312 62 l 1,58,-1
 312 0 l 1,59,-1
 250 0 l 1,0,-1
250 250 m 1,60,-1
 312 250 l 1,61,-1
 312 312 l 1,62,-1
 312 375 l 1,63,-1
 250 375 l 1,64,-1
 188 375 l 1,65,-1
 188 312 l 1,66,-1
 188 250 l 1,67,-1
 250 250 l 1,60,-1
EndSplineSet
Validated: 1
EndChar

StartChar: dollar
Encoding: 36 36 7
Width: 500
Flags: W
LayerCount: 2
Fore
SplineSet
188 -62 m 1,0,-1
 188 0 l 1,1,-1
 125 0 l 1,2,-1
 62 0 l 1,3,-1
 62 62 l 1,4,-1
 0 62 l 1,5,-1
 0 125 l 1,6,-1
 0 188 l 1,7,-1
 0 250 l 1,8,-1
 62 250 l 1,9,-1
 62 188 l 1,10,-1
 62 125 l 1,11,-1
 125 125 l 1,12,-1
 125 62 l 1,13,-1
 188 62 l 1,14,-1
 188 125 l 1,15,-1
 188 188 l 1,16,-1
 188 250 l 1,17,-1
 188 312 l 1,18,-1
 125 312 l 1,19,-1
 62 312 l 1,20,-1
 62 375 l 1,21,-1
 0 375 l 1,22,-1
 0 438 l 1,23,-1
 0 500 l 1,24,-1
 0 562 l 1,25,-1
 62 562 l 1,26,-1
 62 625 l 1,27,-1
 125 625 l 1,28,-1
 188 625 l 1,29,-1
 188 688 l 1,30,-1
 250 688 l 1,31,-1
 250 625 l 1,32,-1
 312 625 l 1,33,-1
 375 625 l 1,34,-1
 375 562 l 1,35,-1
 438 562 l 1,36,-1
 438 500 l 1,37,-1
 438 438 l 1,38,-1
 375 438 l 1,39,-1
 375 500 l 1,40,-1
 312 500 l 1,41,-1
 312 562 l 1,42,-1
 250 562 l 1,43,-1
 250 500 l 1,44,-1
 250 438 l 1,45,-1
 250 375 l 1,46,-1
 250 312 l 1,47,-1
 312 312 l 1,48,-1
 375 312 l 1,49,-1
 375 250 l 1,50,-1
 438 250 l 1,51,-1
 438 188 l 1,52,-1
 438 125 l 1,53,-1
 438 62 l 1,54,-1
 375 62 l 1,55,-1
 375 0 l 1,56,-1
 312 0 l 1,57,-1
 250 0 l 1,58,-1
 250 -62 l 1,59,-1
 188 -62 l 1,0,-1
312 62 m 1,60,-1
 312 125 l 1,61,-1
 312 188 l 1,62,-1
 312 250 l 1,63,-1
 250 250 l 1,64,-1
 250 188 l 1,65,-1
 250 125 l 1,66,-1
 250 62 l 1,67,-1
 312 62 l 1,60,-1
188 375 m 1,68,-1
 188 438 l 1,69,-1
 188 500 l 1,70,-1
 188 562 l 1,71,-1
 125 562 l 1,72,-1
 125 500 l 1,73,-1
 125 438 l 1,74,-1
 125 375 l 1,75,-1
 188 375 l 1,68,-1
EndSplineSet
Validated: 1
EndChar

StartChar: percent
Encoding: 37 37 8
Width: 500
Flags: W
LayerCount: 2
Fore
SplineSet
312 0 m 1,0,-1
 312 62 l 1,1,-1
 375 62 l 1,2,-1
 375 0 l 1,3,-1
 312 0 l 1,0,-1
62 0 m 1,4,-1
 62 62 l 1,5,-1
 62 125 l 1,6,-1
 125 125 l 1,7,-1
 125 62 l 1,8,-1
 125 0 l 1,9,-1
 62 0 l 1,4,-1
62 375 m 1,10,-1
 62 438 l 1,11,-1
 125 438 l 1,12,-1
 125 375 l 1,13,-1
 62 375 l 1,10,-1
375 62 m 1,14,-1
 375 125 l 1,15,-1
 375 188 l 1,16,-1
 438 188 l 1,17,-1
 438 125 l 1,18,-1
 438 62 l 1,19,-1
 375 62 l 1,14,-1
312 62 m 1,20,-1
 250 62 l 1,21,-1
 250 125 l 1,22,-1
 250 188 l 1,23,-1
 312 188 l 1,24,-1
 312 125 l 1,25,-1
 312 62 l 1,20,-1
125 125 m 1,26,-1
 125 188 l 1,27,-1
 125 250 l 1,28,-1
 188 250 l 1,29,-1
 188 188 l 1,30,-1
 188 125 l 1,31,-1
 125 125 l 1,26,-1
375 188 m 1,32,-1
 312 188 l 1,33,-1
 312 250 l 1,34,-1
 375 250 l 1,35,-1
 375 188 l 1,32,-1
188 250 m 1,36,-1
 188 312 l 1,37,-1
 188 375 l 1,38,-1
 250 375 l 1,39,-1
 250 312 l 1,40,-1
 250 250 l 1,41,-1
 188 250 l 1,36,-1
250 375 m 1,42,-1
 250 438 l 1,43,-1
 250 500 l 1,44,-1
 312 500 l 1,45,-1
 312 438 l 1,46,-1
 312 375 l 1,47,-1
 250 375 l 1,42,-1
125 438 m 1,48,-1
 125 500 l 1,49,-1
 125 562 l 1,50,-1
 188 562 l 1,51,-1
 188 500 l 1,52,-1
 188 438 l 1,53,-1
 125 438 l 1,48,-1
62 438 m 1,54,-1
 0 438 l 1,55,-1
 0 500 l 1,56,-1
 0 562 l 1,57,-1
 62 562 l 1,58,-1
 62 500 l 1,59,-1
 62 438 l 1,54,-1
312 500 m 1,60,-1
 312 562 l 1,61,-1
 312 625 l 1,62,-1
 375 625 l 1,63,-1
 375 562 l 1,64,-1
 375 500 l 1,65,-1
 312 500 l 1,60,-1
125 562 m 1,66,-1
 62 562 l 1,67,-1
 62 625 l 1,68,-1
 125 625 l 1,69,-1
 125 562 l 1,66,-1
EndSplineSet
Validated: 5
EndChar

StartChar: ampersand
Encoding: 38 38 9
Width: 625
Flags: W
LayerCount: 2
Fore
SplineSet
500 0 m 1,0,-1
 438 0 l 1,1,-1
 438 62 l 1,2,-1
 375 62 l 1,3,-1
 375 0 l 1,4,-1
 312 0 l 1,5,-1
 250 0 l 1,6,-1
 188 0 l 1,7,-1
 125 0 l 1,8,-1
 62 0 l 1,9,-1
 62 62 l 1,10,-1
 0 62 l 1,11,-1
 0 125 l 1,12,-1
 0 188 l 1,13,-1
 0 250 l 1,14,-1
 62 250 l 1,15,-1
 62 312 l 1,16,-1
 125 312 l 1,17,-1
 125 375 l 1,18,-1
 62 375 l 1,19,-1
 62 438 l 1,20,-1
 62 500 l 1,21,-1
 62 562 l 1,22,-1
 125 562 l 1,23,-1
 125 625 l 1,24,-1
 188 625 l 1,25,-1
 250 625 l 1,26,-1
 312 625 l 1,27,-1
 312 562 l 1,28,-1
 375 562 l 1,29,-1
 375 500 l 1,30,-1
 375 438 l 1,31,-1
 375 375 l 1,32,-1
 312 375 l 1,33,-1
 312 312 l 1,34,-1
 375 312 l 1,35,-1
 375 250 l 1,36,-1
 438 250 l 1,37,-1
 438 312 l 1,38,-1
 500 312 l 1,39,-1
 500 250 l 1,40,-1
 500 188 l 1,41,-1
 438 188 l 1,42,-1
 438 125 l 1,43,-1
 500 125 l 1,44,-1
 500 62 l 1,45,-1
 562 62 l 1,46,-1
 562 0 l 1,47,-1
 500 0 l 1,0,-1
250 62 m 1,48,-1
 312 62 l 1,49,-1
 312 125 l 1,50,-1
 312 188 l 1,51,-1
 312 250 l 1,52,-1
 250 250 l 1,53,-1
 188 250 l 1,54,-1
 125 250 l 1,55,-1
 125 188 l 1,56,-1
 125 125 l 1,57,-1
 125 62 l 1,58,-1
 188 62 l 1,59,-1
 250 62 l 1,48,-1
250 375 m 1,60,-1
 250 438 l 1,61,-1
 250 500 l 1,62,-1
 250 562 l 1,63,-1
 188 562 l 1,64,-1
 188 500 l 1,65,-1
 188 438 l 1,66,-1
 188 375 l 1,67,-1
 250 375 l 1,60,-1
EndSplineSet
Validated: 1
EndChar

StartChar: quotesingle
Encoding: 39 39 10
Width: 125
Flags: W
LayerCount: 2
Fore
SplineSet
0 500 m 1,0,-1
 0 562 l 1,1,-1
 0 625 l 1,2,-1
 62 625 l 1,3,-1
 62 562 l 1,4,-1
 62 500 l 1,5,-1
 0 500 l 1,0,-1
EndSplineSet
Validated: 1
EndChar

StartChar: parenleft
Encoding: 40 40 11
Width: 312
Flags: W
LayerCount: 2
Fore
SplineSet
188 -188 m 1,0,-1
 188 -125 l 1,1,-1
 250 -125 l 1,2,-1
 250 -188 l 1,3,-1
 188 -188 l 1,0,-1
188 -125 m 1,4,-1
 125 -125 l 1,5,-1
 125 -62 l 1,6,-1
 188 -62 l 1,7,-1
 188 -125 l 1,4,-1
125 -62 m 1,8,-1
 62 -62 l 1,9,-1
 62 0 l 1,10,-1
 62 62 l 1,11,-1
 62 125 l 1,12,-1
 125 125 l 1,13,-1
 125 62 l 1,14,-1
 125 0 l 1,15,-1
 125 -62 l 1,8,-1
62 125 m 1,16,-1
 0 125 l 1,17,-1
 0 188 l 1,18,-1
 0 250 l 1,19,-1
 0 312 l 1,20,-1
 0 375 l 1,21,-1
 62 375 l 1,22,-1
 62 312 l 1,23,-1
 62 250 l 1,24,-1
 62 188 l 1,25,-1
 62 125 l 1,16,-1
62 375 m 1,26,-1
 62 438 l 1,27,-1
 62 500 l 1,28,-1
 62 562 l 1,29,-1
 125 562 l 1,30,-1
 125 500 l 1,31,-1
 125 438 l 1,32,-1
 125 375 l 1,33,-1
 62 375 l 1,26,-1
125 562 m 1,34,-1
 125 625 l 1,35,-1
 188 625 l 1,36,-1
 188 562 l 1,37,-1
 125 562 l 1,34,-1
188 625 m 1,38,-1
 188 688 l 1,39,-1
 250 688 l 1,40,-1
 250 625 l 1,41,-1
 188 625 l 1,38,-1
EndSplineSet
Validated: 5
EndChar

StartChar: parenright
Encoding: 41 41 12
Width: 375
Flags: W
LayerCount: 2
Fore
SplineSet
62 -188 m 1,0,-1
 62 -125 l 1,1,-1
 125 -125 l 1,2,-1
 125 -188 l 1,3,-1
 62 -188 l 1,0,-1
125 -125 m 1,4,-1
 125 -62 l 1,5,-1
 188 -62 l 1,6,-1
 188 -125 l 1,7,-1
 125 -125 l 1,4,-1
188 -62 m 1,8,-1
 188 0 l 1,9,-1
 188 62 l 1,10,-1
 188 125 l 1,11,-1
 250 125 l 1,12,-1
 250 62 l 1,13,-1
 250 0 l 1,14,-1
 250 -62 l 1,15,-1
 188 -62 l 1,8,-1
250 125 m 1,16,-1
 250 188 l 1,17,-1
 250 250 l 1,18,-1
 250 312 l 1,19,-1
 250 375 l 1,20,-1
 312 375 l 1,21,-1
 312 312 l 1,22,-1
 312 250 l 1,23,-1
 312 188 l 1,24,-1
 312 125 l 1,25,-1
 250 125 l 1,16,-1
250 375 m 1,26,-1
 188 375 l 1,27,-1
 188 438 l 1,28,-1
 188 500 l 1,29,-1
 188 562 l 1,30,-1
 250 562 l 1,31,-1
 250 500 l 1,32,-1
 250 438 l 1,33,-1
 250 375 l 1,26,-1
188 562 m 1,34,-1
 125 562 l 1,35,-1
 125 625 l 1,36,-1
 188 625 l 1,37,-1
 188 562 l 1,34,-1
125 625 m 1,38,-1
 62 625 l 1,39,-1
 62 688 l 1,40,-1
 125 688 l 1,41,-1
 125 625 l 1,38,-1
EndSplineSet
Validated: 5
EndChar

StartChar: asterisk
Encoding: 42 42 13
Width: 250
Flags: W
LayerCount: 2
Fore
SplineSet
125 375 m 1,0,-1
 125 438 l 1,1,-1
 188 438 l 1,2,-1
 188 375 l 1,3,-1
 125 375 l 1,0,-1
0 375 m 1,4,-1
 0 438 l 1,5,-1
 62 438 l 1,6,-1
 62 375 l 1,7,-1
 0 375 l 1,4,-1
125 438 m 1,8,-1
 62 438 l 1,9,-1
 62 500 l 1,10,-1
 125 500 l 1,11,-1
 125 438 l 1,8,-1
125 500 m 1,12,-1
 125 562 l 1,13,-1
 188 562 l 1,14,-1
 188 500 l 1,15,-1
 125 500 l 1,12,-1
62 500 m 1,16,-1
 0 500 l 1,17,-1
 0 562 l 1,18,-1
 62 562 l 1,19,-1
 62 500 l 1,16,-1
EndSplineSet
Validated: 5
EndChar

StartChar: plus
Encoding: 43 43 14
Width: 562
Flags: W
LayerCount: 2
Fore
SplineSet
250 125 m 1,0,-1
 250 188 l 1,1,-1
 250 250 l 1,2,-1
 250 312 l 1,3,-1
 188 312 l 1,4,-1
 125 312 l 1,5,-1
 62 312 l 1,6,-1
 62 375 l 1,7,-1
 125 375 l 1,8,-1
 188 375 l 1,9,-1
 250 375 l 1,10,-1
 250 438 l 1,11,-1
 250 500 l 1,12,-1
 250 562 l 1,13,-1
 312 562 l 1,14,-1
 312 500 l 1,15,-1
 312 438 l 1,16,-1
 312 375 l 1,17,-1
 375 375 l 1,18,-1
 438 375 l 1,19,-1
 500 375 l 1,20,-1
 500 312 l 1,21,-1
 438 312 l 1,22,-1
 375 312 l 1,23,-1
 312 312 l 1,24,-1
 312 250 l 1,25,-1
 312 188 l 1,26,-1
 312 125 l 1,27,-1
 250 125 l 1,0,-1
EndSplineSet
Validated: 1
EndChar

StartChar: comma
Encoding: 44 44 15
Width: 250
Flags: W
LayerCount: 2
Fore
SplineSet
125 -62 m 1,0,-1
 125 0 l 1,1,-1
 62 0 l 1,2,-1
 62 62 l 1,3,-1
 62 125 l 1,4,-1
 125 125 l 1,5,-1
 188 125 l 1,6,-1
 188 62 l 1,7,-1
 188 0 l 1,8,-1
 188 -62 l 1,9,-1
 125 -62 l 1,0,-1
EndSplineSet
Validated: 1
EndChar

StartChar: hyphen
Encoding: 45 45 16
Width: 312
Flags: W
LayerCount: 2
Fore
SplineSet
188 312 m 1,0,-1
 250 312 l 1,1,-1
 250 250 l 1,2,-1
 188 250 l 1,3,-1
 125 250 l 1,4,-1
 62 250 l 1,5,-1
 0 250 l 1,6,-1
 0 312 l 1,7,-1
 62 312 l 1,8,-1
 125 312 l 1,9,-1
 188 312 l 1,0,-1
EndSplineSet
Validated: 1
EndChar

StartChar: period
Encoding: 46 46 17
Width: 250
Flags: W
LayerCount: 2
Fore
SplineSet
125 0 m 1,0,-1
 62 0 l 1,1,-1
 62 62 l 1,2,-1
 62 125 l 1,3,-1
 125 125 l 1,4,-1
 188 125 l 1,5,-1
 188 62 l 1,6,-1
 188 0 l 1,7,-1
 125 0 l 1,0,-1
EndSplineSet
Validated: 1
EndChar

StartChar: slash
Encoding: 47 47 18
Width: 375
Flags: W
LayerCount: 2
Fore
SplineSet
0 0 m 1,0,-1
 0 62 l 1,1,-1
 0 125 l 1,2,-1
 62 125 l 1,3,-1
 62 62 l 1,4,-1
 62 0 l 1,5,-1
 0 0 l 1,0,-1
62 125 m 1,6,-1
 62 188 l 1,7,-1
 62 250 l 1,8,-1
 125 250 l 1,9,-1
 125 188 l 1,10,-1
 125 125 l 1,11,-1
 62 125 l 1,6,-1
125 250 m 1,12,-1
 125 312 l 1,13,-1
 125 375 l 1,14,-1
 188 375 l 1,15,-1
 188 312 l 1,16,-1
 188 250 l 1,17,-1
 125 250 l 1,12,-1
188 375 m 1,18,-1
 188 438 l 1,19,-1
 188 500 l 1,20,-1
 250 500 l 1,21,-1
 250 438 l 1,22,-1
 250 375 l 1,23,-1
 188 375 l 1,18,-1
250 500 m 1,24,-1
 250 562 l 1,25,-1
 250 625 l 1,26,-1
 312 625 l 1,27,-1
 312 562 l 1,28,-1
 312 500 l 1,29,-1
 250 500 l 1,24,-1
EndSplineSet
Validated: 5
EndChar

StartChar: zero
Encoding: 48 48 19
Width: 562
Flags: W
LayerCount: 2
Fore
SplineSet
375 0 m 1,0,-1
 312 0 l 1,1,-1
 250 0 l 1,2,-1
 188 0 l 1,3,-1
 125 0 l 1,4,-1
 125 62 l 1,5,-1
 62 62 l 1,6,-1
 62 125 l 1,7,-1
 0 125 l 1,8,-1
 0 188 l 1,9,-1
 0 250 l 1,10,-1
 0 312 l 1,11,-1
 0 375 l 1,12,-1
 0 438 l 1,13,-1
 0 500 l 1,14,-1
 0 562 l 1,15,-1
 62 562 l 1,16,-1
 62 625 l 1,17,-1
 125 625 l 1,18,-1
 188 625 l 1,19,-1
 250 625 l 1,20,-1
 312 625 l 1,21,-1
 375 625 l 1,22,-1
 375 562 l 1,23,-1
 438 562 l 1,24,-1
 438 500 l 1,25,-1
 500 500 l 1,26,-1
 500 438 l 1,27,-1
 500 375 l 1,28,-1
 500 312 l 1,29,-1
 500 250 l 1,30,-1
 500 188 l 1,31,-1
 500 125 l 1,32,-1
 500 62 l 1,33,-1
 438 62 l 1,34,-1
 438 0 l 1,35,-1
 375 0 l 1,0,-1
312 62 m 1,36,-1
 375 62 l 1,37,-1
 375 125 l 1,38,-1
 375 188 l 1,39,-1
 375 250 l 1,40,-1
 375 312 l 1,41,-1
 375 375 l 1,42,-1
 375 438 l 1,43,-1
 375 500 l 1,44,-1
 312 500 l 1,45,-1
 312 438 l 1,46,-1
 312 375 l 1,47,-1
 312 312 l 1,48,-1
 250 312 l 1,49,-1
 250 250 l 1,50,-1
 250 188 l 1,51,-1
 250 125 l 1,52,-1
 188 125 l 1,53,-1
 188 188 l 1,54,-1
 188 250 l 1,55,-1
 188 312 l 1,56,-1
 250 312 l 1,57,-1
 250 375 l 1,58,-1
 250 438 l 1,59,-1
 250 500 l 1,60,-1
 312 500 l 1,61,-1
 312 562 l 1,62,-1
 250 562 l 1,63,-1
 188 562 l 1,64,-1
 125 562 l 1,65,-1
 125 500 l 1,66,-1
 125 438 l 1,67,-1
 125 375 l 1,68,-1
 125 312 l 1,69,-1
 125 250 l 1,70,-1
 125 188 l 1,71,-1
 125 125 l 1,72,-1
 188 125 l 1,73,-1
 188 62 l 1,74,-1
 250 62 l 1,75,-1
 312 62 l 1,36,-1
EndSplineSet
Validated: 5
EndChar

StartChar: one
Encoding: 49 49 20
Width: 437
Flags: W
LayerCount: 2
Fore
SplineSet
312 0 m 1,0,-1
 250 0 l 1,1,-1
 188 0 l 1,2,-1
 125 0 l 1,3,-1
 62 0 l 1,4,-1
 0 0 l 1,5,-1
 0 62 l 1,6,-1
 62 62 l 1,7,-1
 125 62 l 1,8,-1
 125 125 l 1,9,-1
 125 188 l 1,10,-1
 125 250 l 1,11,-1
 125 312 l 1,12,-1
 125 375 l 1,13,-1
 125 438 l 1,14,-1
 125 500 l 1,15,-1
 62 500 l 1,16,-1
 62 562 l 1,17,-1
 125 562 l 1,18,-1
 125 625 l 1,19,-1
 188 625 l 1,20,-1
 250 625 l 1,21,-1
 250 562 l 1,22,-1
 250 500 l 1,23,-1
 250 438 l 1,24,-1
 250 375 l 1,25,-1
 250 312 l 1,26,-1
 250 250 l 1,27,-1
 250 188 l 1,28,-1
 250 125 l 1,29,-1
 250 62 l 1,30,-1
 312 62 l 1,31,-1
 312 125 l 1,32,-1
 375 125 l 1,33,-1
 375 62 l 1,34,-1
 375 0 l 1,35,-1
 312 0 l 1,0,-1
EndSplineSet
Validated: 1
EndChar

StartChar: two
Encoding: 50 50 21
Width: 562
Flags: W
LayerCount: 2
Fore
SplineSet
62 438 m 1,0,-1
 62 500 l 1,1,-1
 62 562 l 1,2,-1
 125 562 l 1,3,-1
 125 625 l 1,4,-1
 188 625 l 1,5,-1
 250 625 l 1,6,-1
 312 625 l 1,7,-1
 375 625 l 1,8,-1
 438 625 l 1,9,-1
 438 562 l 1,10,-1
 500 562 l 1,11,-1
 500 500 l 1,12,-1
 500 438 l 1,13,-1
 500 375 l 1,14,-1
 500 312 l 1,15,-1
 438 312 l 1,16,-1
 438 250 l 1,17,-1
 375 250 l 1,18,-1
 312 250 l 1,19,-1
 312 188 l 1,20,-1
 250 188 l 1,21,-1
 250 125 l 1,22,-1
 312 125 l 1,23,-1
 375 125 l 1,24,-1
 438 125 l 1,25,-1
 500 125 l 1,26,-1
 500 62 l 1,27,-1
 500 0 l 1,28,-1
 438 0 l 1,29,-1
 375 0 l 1,30,-1
 312 0 l 1,31,-1
 250 0 l 1,32,-1
 188 0 l 1,33,-1
 125 0 l 1,34,-1
 62 0 l 1,35,-1
 62 62 l 1,36,-1
 62 125 l 1,37,-1
 62 188 l 1,38,-1
 125 188 l 1,39,-1
 125 250 l 1,40,-1
 188 250 l 1,41,-1
 188 312 l 1,42,-1
 250 312 l 1,43,-1
 312 312 l 1,44,-1
 312 375 l 1,45,-1
 375 375 l 1,46,-1
 375 438 l 1,47,-1
 438 438 l 1,48,-1
 438 500 l 1,49,-1
 375 500 l 1,50,-1
 375 562 l 1,51,-1
 312 562 l 1,52,-1
 250 562 l 1,53,-1
 188 562 l 1,54,-1
 188 500 l 1,55,-1
 125 500 l 1,56,-1
 125 438 l 1,57,-1
 62 438 l 1,0,-1
EndSplineSet
Validated: 1
EndChar

StartChar: three
Encoding: 51 51 22
Width: 562
Flags: W
LayerCount: 2
Fore
SplineSet
62 438 m 1,0,-1
 62 500 l 1,1,-1
 62 562 l 1,2,-1
 125 562 l 1,3,-1
 125 625 l 1,4,-1
 188 625 l 1,5,-1
 250 625 l 1,6,-1
 312 625 l 1,7,-1
 375 625 l 1,8,-1
 438 625 l 1,9,-1
 438 562 l 1,10,-1
 500 562 l 1,11,-1
 500 500 l 1,12,-1
 500 438 l 1,13,-1
 500 375 l 1,14,-1
 438 375 l 1,15,-1
 438 312 l 1,16,-1
 500 312 l 1,17,-1
 500 250 l 1,18,-1
 500 188 l 1,19,-1
 500 125 l 1,20,-1
 500 62 l 1,21,-1
 438 62 l 1,22,-1
 438 0 l 1,23,-1
 375 0 l 1,24,-1
 312 0 l 1,25,-1
 250 0 l 1,26,-1
 188 0 l 1,27,-1
 125 0 l 1,28,-1
 125 62 l 1,29,-1
 62 62 l 1,30,-1
 62 125 l 1,31,-1
 62 188 l 1,32,-1
 125 188 l 1,33,-1
 125 125 l 1,34,-1
 188 125 l 1,35,-1
 250 125 l 1,36,-1
 312 125 l 1,37,-1
 375 125 l 1,38,-1
 438 125 l 1,39,-1
 438 188 l 1,40,-1
 438 250 l 1,41,-1
 375 250 l 1,42,-1
 375 312 l 1,43,-1
 312 312 l 1,44,-1
 250 312 l 1,45,-1
 250 375 l 1,46,-1
 312 375 l 1,47,-1
 375 375 l 1,48,-1
 375 438 l 1,49,-1
 438 438 l 1,50,-1
 438 500 l 1,51,-1
 375 500 l 1,52,-1
 375 562 l 1,53,-1
 312 562 l 1,54,-1
 250 562 l 1,55,-1
 188 562 l 1,56,-1
 188 500 l 1,57,-1
 125 500 l 1,58,-1
 125 438 l 1,59,-1
 62 438 l 1,0,-1
EndSplineSet
Validated: 1
EndChar

StartChar: four
Encoding: 52 52 23
Width: 562
Flags: W
LayerCount: 2
Fore
SplineSet
375 0 m 1,0,-1
 312 0 l 1,1,-1
 312 62 l 1,2,-1
 312 125 l 1,3,-1
 250 125 l 1,4,-1
 188 125 l 1,5,-1
 125 125 l 1,6,-1
 62 125 l 1,7,-1
 0 125 l 1,8,-1
 0 188 l 1,9,-1
 0 250 l 1,10,-1
 62 250 l 1,11,-1
 62 312 l 1,12,-1
 62 375 l 1,13,-1
 125 375 l 1,14,-1
 125 438 l 1,15,-1
 125 500 l 1,16,-1
 188 500 l 1,17,-1
 188 562 l 1,18,-1
 250 562 l 1,19,-1
 250 625 l 1,20,-1
 312 625 l 1,21,-1
 375 625 l 1,22,-1
 438 625 l 1,23,-1
 438 562 l 1,24,-1
 438 500 l 1,25,-1
 438 438 l 1,26,-1
 438 375 l 1,27,-1
 438 312 l 1,28,-1
 438 250 l 1,29,-1
 500 250 l 1,30,-1
 500 188 l 1,31,-1
 500 125 l 1,32,-1
 438 125 l 1,33,-1
 438 62 l 1,34,-1
 438 0 l 1,35,-1
 375 0 l 1,0,-1
250 250 m 1,36,-1
 312 250 l 1,37,-1
 312 312 l 1,38,-1
 312 375 l 1,39,-1
 312 438 l 1,40,-1
 312 500 l 1,41,-1
 250 500 l 1,42,-1
 250 438 l 1,43,-1
 250 375 l 1,44,-1
 188 375 l 1,45,-1
 188 312 l 1,46,-1
 188 250 l 1,47,-1
 250 250 l 1,36,-1
EndSplineSet
Validated: 1
EndChar

StartChar: five
Encoding: 53 53 24
Width: 562
Flags: W
LayerCount: 2
Fore
SplineSet
375 0 m 1,0,-1
 312 0 l 1,1,-1
 250 0 l 1,2,-1
 188 0 l 1,3,-1
 125 0 l 1,4,-1
 125 62 l 1,5,-1
 62 62 l 1,6,-1
 62 125 l 1,7,-1
 62 188 l 1,8,-1
 125 188 l 1,9,-1
 125 125 l 1,10,-1
 188 125 l 1,11,-1
 188 62 l 1,12,-1
 250 62 l 1,13,-1
 312 62 l 1,14,-1
 375 62 l 1,15,-1
 375 125 l 1,16,-1
 375 188 l 1,17,-1
 375 250 l 1,18,-1
 312 250 l 1,19,-1
 312 312 l 1,20,-1
 250 312 l 1,21,-1
 188 312 l 1,22,-1
 125 312 l 1,23,-1
 125 375 l 1,24,-1
 62 375 l 1,25,-1
 62 438 l 1,26,-1
 62 500 l 1,27,-1
 62 562 l 1,28,-1
 62 625 l 1,29,-1
 125 625 l 1,30,-1
 188 625 l 1,31,-1
 250 625 l 1,32,-1
 312 625 l 1,33,-1
 375 625 l 1,34,-1
 438 625 l 1,35,-1
 500 625 l 1,36,-1
 500 562 l 1,37,-1
 500 500 l 1,38,-1
 438 500 l 1,39,-1
 375 500 l 1,40,-1
 312 500 l 1,41,-1
 250 500 l 1,42,-1
 188 500 l 1,43,-1
 188 438 l 1,44,-1
 250 438 l 1,45,-1
 312 438 l 1,46,-1
 375 438 l 1,47,-1
 375 375 l 1,48,-1
 438 375 l 1,49,-1
 438 312 l 1,50,-1
 500 312 l 1,51,-1
 500 250 l 1,52,-1
 500 188 l 1,53,-1
 500 125 l 1,54,-1
 500 62 l 1,55,-1
 438 62 l 1,56,-1
 438 0 l 1,57,-1
 375 0 l 1,0,-1
EndSplineSet
Validated: 1
EndChar

StartChar: six
Encoding: 54 54 25
Width: 437
Flags: W
LayerCount: 2
Fore
SplineSet
250 0 m 1,0,-1
 188 0 l 1,1,-1
 125 0 l 1,2,-1
 62 0 l 1,3,-1
 62 62 l 1,4,-1
 0 62 l 1,5,-1
 0 125 l 1,6,-1
 0 188 l 1,7,-1
 0 250 l 1,8,-1
 0 312 l 1,9,-1
 0 375 l 1,10,-1
 0 438 l 1,11,-1
 0 500 l 1,12,-1
 0 562 l 1,13,-1
 62 562 l 1,14,-1
 62 625 l 1,15,-1
 125 625 l 1,16,-1
 188 625 l 1,17,-1
 250 625 l 1,18,-1
 312 625 l 1,19,-1
 312 562 l 1,20,-1
 375 562 l 1,21,-1
 375 500 l 1,22,-1
 312 500 l 1,23,-1
 250 500 l 1,24,-1
 188 500 l 1,25,-1
 188 562 l 1,26,-1
 125 562 l 1,27,-1
 125 500 l 1,28,-1
 125 438 l 1,29,-1
 125 375 l 1,30,-1
 188 375 l 1,31,-1
 250 375 l 1,32,-1
 312 375 l 1,33,-1
 312 312 l 1,34,-1
 375 312 l 1,35,-1
 375 250 l 1,36,-1
 375 188 l 1,37,-1
 375 125 l 1,38,-1
 375 62 l 1,39,-1
 312 62 l 1,40,-1
 312 0 l 1,41,-1
 250 0 l 1,0,-1
188 62 m 1,42,-1
 250 62 l 1,43,-1
 250 125 l 1,44,-1
 250 188 l 1,45,-1
 250 250 l 1,46,-1
 250 312 l 1,47,-1
 188 312 l 1,48,-1
 125 312 l 1,49,-1
 125 250 l 1,50,-1
 125 188 l 1,51,-1
 125 125 l 1,52,-1
 125 62 l 1,53,-1
 188 62 l 1,42,-1
EndSplineSet
Validated: 1
EndChar

StartChar: seven
Encoding: 55 55 26
Width: 562
Flags: W
LayerCount: 2
Fore
SplineSet
0 438 m 1,0,-1
 0 500 l 1,1,-1
 0 562 l 1,2,-1
 62 562 l 1,3,-1
 62 625 l 1,4,-1
 125 625 l 1,5,-1
 188 625 l 1,6,-1
 250 625 l 1,7,-1
 312 625 l 1,8,-1
 375 625 l 1,9,-1
 438 625 l 1,10,-1
 500 625 l 1,11,-1
 500 562 l 1,12,-1
 500 500 l 1,13,-1
 438 500 l 1,14,-1
 438 438 l 1,15,-1
 438 375 l 1,16,-1
 375 375 l 1,17,-1
 375 312 l 1,18,-1
 375 250 l 1,19,-1
 312 250 l 1,20,-1
 312 188 l 1,21,-1
 312 125 l 1,22,-1
 312 62 l 1,23,-1
 375 62 l 1,24,-1
 375 0 l 1,25,-1
 312 0 l 1,26,-1
 250 0 l 1,27,-1
 188 0 l 1,28,-1
 125 0 l 1,29,-1
 125 62 l 1,30,-1
 125 125 l 1,31,-1
 125 188 l 1,32,-1
 188 188 l 1,33,-1
 188 250 l 1,34,-1
 188 312 l 1,35,-1
 250 312 l 1,36,-1
 250 375 l 1,37,-1
 250 438 l 1,38,-1
 312 438 l 1,39,-1
 312 500 l 1,40,-1
 250 500 l 1,41,-1
 188 500 l 1,42,-1
 125 500 l 1,43,-1
 62 500 l 1,44,-1
 62 438 l 1,45,-1
 0 438 l 1,0,-1
EndSplineSet
Validated: 1
EndChar

StartChar: eight
Encoding: 56 56 27
Width: 437
Flags: W
LayerCount: 2
Fore
SplineSet
250 0 m 1,0,-1
 188 0 l 1,1,-1
 125 0 l 1,2,-1
 62 0 l 1,3,-1
 62 62 l 1,4,-1
 0 62 l 1,5,-1
 0 125 l 1,6,-1
 0 188 l 1,7,-1
 0 250 l 1,8,-1
 0 312 l 1,9,-1
 62 312 l 1,10,-1
 62 375 l 1,11,-1
 0 375 l 1,12,-1
 0 438 l 1,13,-1
 0 500 l 1,14,-1
 0 562 l 1,15,-1
 62 562 l 1,16,-1
 62 625 l 1,17,-1
 125 625 l 1,18,-1
 188 625 l 1,19,-1
 250 625 l 1,20,-1
 312 625 l 1,21,-1
 312 562 l 1,22,-1
 375 562 l 1,23,-1
 375 500 l 1,24,-1
 375 438 l 1,25,-1
 375 375 l 1,26,-1
 312 375 l 1,27,-1
 312 312 l 1,28,-1
 375 312 l 1,29,-1
 375 250 l 1,30,-1
 375 188 l 1,31,-1
 375 125 l 1,32,-1
 375 62 l 1,33,-1
 312 62 l 1,34,-1
 312 0 l 1,35,-1
 250 0 l 1,0,-1
188 62 m 1,36,-1
 250 62 l 1,37,-1
 250 125 l 1,38,-1
 250 188 l 1,39,-1
 250 250 l 1,40,-1
 250 312 l 1,41,-1
 188 312 l 1,42,-1
 125 312 l 1,43,-1
 125 250 l 1,44,-1
 125 188 l 1,45,-1
 125 125 l 1,46,-1
 125 62 l 1,47,-1
 188 62 l 1,36,-1
188 375 m 1,48,-1
 250 375 l 1,49,-1
 250 438 l 1,50,-1
 250 500 l 1,51,-1
 188 500 l 1,52,-1
 188 562 l 1,53,-1
 125 562 l 1,54,-1
 125 500 l 1,55,-1
 125 438 l 1,56,-1
 125 375 l 1,57,-1
 188 375 l 1,48,-1
EndSplineSet
Validated: 1
EndChar

StartChar: nine
Encoding: 57 57 28
Width: 437
Flags: W
LayerCount: 2
Fore
SplineSet
250 0 m 1,0,-1
 188 0 l 1,1,-1
 125 0 l 1,2,-1
 62 0 l 1,3,-1
 62 62 l 1,4,-1
 0 62 l 1,5,-1
 0 125 l 1,6,-1
 62 125 l 1,7,-1
 125 125 l 1,8,-1
 125 62 l 1,9,-1
 188 62 l 1,10,-1
 250 62 l 1,11,-1
 250 125 l 1,12,-1
 250 188 l 1,13,-1
 188 188 l 1,14,-1
 125 188 l 1,15,-1
 62 188 l 1,16,-1
 62 250 l 1,17,-1
 0 250 l 1,18,-1
 0 312 l 1,19,-1
 0 375 l 1,20,-1
 0 438 l 1,21,-1
 0 500 l 1,22,-1
 0 562 l 1,23,-1
 62 562 l 1,24,-1
 62 625 l 1,25,-1
 125 625 l 1,26,-1
 188 625 l 1,27,-1
 250 625 l 1,28,-1
 312 625 l 1,29,-1
 312 562 l 1,30,-1
 375 562 l 1,31,-1
 375 500 l 1,32,-1
 375 438 l 1,33,-1
 375 375 l 1,34,-1
 375 312 l 1,35,-1
 375 250 l 1,36,-1
 375 188 l 1,37,-1
 375 125 l 1,38,-1
 375 62 l 1,39,-1
 312 62 l 1,40,-1
 312 0 l 1,41,-1
 250 0 l 1,0,-1
250 250 m 1,42,-1
 250 312 l 1,43,-1
 250 375 l 1,44,-1
 250 438 l 1,45,-1
 250 500 l 1,46,-1
 188 500 l 1,47,-1
 188 562 l 1,48,-1
 125 562 l 1,49,-1
 125 500 l 1,50,-1
 125 438 l 1,51,-1
 125 375 l 1,52,-1
 125 312 l 1,53,-1
 188 312 l 1,54,-1
 188 250 l 1,55,-1
 250 250 l 1,42,-1
EndSplineSet
Validated: 1
EndChar

StartChar: colon
Encoding: 58 58 29
Width: 250
Flags: W
LayerCount: 2
Fore
SplineSet
125 0 m 1,0,-1
 62 0 l 1,1,-1
 62 62 l 1,2,-1
 62 125 l 1,3,-1
 125 125 l 1,4,-1
 188 125 l 1,5,-1
 188 62 l 1,6,-1
 188 0 l 1,7,-1
 125 0 l 1,0,-1
125 375 m 1,8,-1
 62 375 l 1,9,-1
 62 438 l 1,10,-1
 62 500 l 1,11,-1
 125 500 l 1,12,-1
 188 500 l 1,13,-1
 188 438 l 1,14,-1
 188 375 l 1,15,-1
 125 375 l 1,8,-1
EndSplineSet
Validated: 1
EndChar

StartChar: semicolon
Encoding: 59 59 30
Width: 250
Flags: W
LayerCount: 2
Fore
SplineSet
125 -62 m 1,0,-1
 125 0 l 1,1,-1
 62 0 l 1,2,-1
 62 62 l 1,3,-1
 62 125 l 1,4,-1
 125 125 l 1,5,-1
 188 125 l 1,6,-1
 188 62 l 1,7,-1
 188 0 l 1,8,-1
 188 -62 l 1,9,-1
 125 -62 l 1,0,-1
125 375 m 1,10,-1
 62 375 l 1,11,-1
 62 438 l 1,12,-1
 62 500 l 1,13,-1
 125 500 l 1,14,-1
 188 500 l 1,15,-1
 188 438 l 1,16,-1
 188 375 l 1,17,-1
 125 375 l 1,10,-1
EndSplineSet
Validated: 1
EndChar

StartChar: less
Encoding: 60 60 31
Width: 562
Flags: W
LayerCount: 2
Fore
SplineSet
438 188 m 1,0,-1
 500 188 l 1,1,-1
 500 125 l 1,2,-1
 438 125 l 1,3,-1
 375 125 l 1,4,-1
 312 125 l 1,5,-1
 312 188 l 1,6,-1
 250 188 l 1,7,-1
 188 188 l 1,8,-1
 188 250 l 1,9,-1
 125 250 l 1,10,-1
 62 250 l 1,11,-1
 62 312 l 1,12,-1
 0 312 l 1,13,-1
 0 375 l 1,14,-1
 62 375 l 1,15,-1
 62 438 l 1,16,-1
 125 438 l 1,17,-1
 188 438 l 1,18,-1
 188 500 l 1,19,-1
 250 500 l 1,20,-1
 312 500 l 1,21,-1
 312 562 l 1,22,-1
 375 562 l 1,23,-1
 438 562 l 1,24,-1
 500 562 l 1,25,-1
 500 500 l 1,26,-1
 438 500 l 1,27,-1
 375 500 l 1,28,-1
 375 438 l 1,29,-1
 312 438 l 1,30,-1
 250 438 l 1,31,-1
 250 375 l 1,32,-1
 188 375 l 1,33,-1
 125 375 l 1,34,-1
 125 312 l 1,35,-1
 188 312 l 1,36,-1
 250 312 l 1,37,-1
 250 250 l 1,38,-1
 312 250 l 1,39,-1
 375 250 l 1,40,-1
 375 188 l 1,41,-1
 438 188 l 1,0,-1
EndSplineSet
Validated: 1
EndChar

StartChar: equal
Encoding: 61 61 32
Width: 562
Flags: W
LayerCount: 2
Fore
SplineSet
438 312 m 1,0,-1
 500 312 l 1,1,-1
 500 250 l 1,2,-1
 438 250 l 1,3,-1
 375 250 l 1,4,-1
 312 250 l 1,5,-1
 250 250 l 1,6,-1
 188 250 l 1,7,-1
 125 250 l 1,8,-1
 62 250 l 1,9,-1
 62 312 l 1,10,-1
 125 312 l 1,11,-1
 188 312 l 1,12,-1
 250 312 l 1,13,-1
 312 312 l 1,14,-1
 375 312 l 1,15,-1
 438 312 l 1,0,-1
438 500 m 1,16,-1
 500 500 l 1,17,-1
 500 438 l 1,18,-1
 438 438 l 1,19,-1
 375 438 l 1,20,-1
 312 438 l 1,21,-1
 250 438 l 1,22,-1
 188 438 l 1,23,-1
 125 438 l 1,24,-1
 62 438 l 1,25,-1
 62 500 l 1,26,-1
 125 500 l 1,27,-1
 188 500 l 1,28,-1
 250 500 l 1,29,-1
 312 500 l 1,30,-1
 375 500 l 1,31,-1
 438 500 l 1,16,-1
EndSplineSet
Validated: 1
EndChar

StartChar: greater
Encoding: 62 62 33
Width: 562
Flags: W
LayerCount: 2
Fore
SplineSet
125 125 m 1,0,-1
 62 125 l 1,1,-1
 0 125 l 1,2,-1
 0 188 l 1,3,-1
 62 188 l 1,4,-1
 125 188 l 1,5,-1
 125 250 l 1,6,-1
 188 250 l 1,7,-1
 250 250 l 1,8,-1
 250 312 l 1,9,-1
 312 312 l 1,10,-1
 375 312 l 1,11,-1
 375 375 l 1,12,-1
 312 375 l 1,13,-1
 250 375 l 1,14,-1
 250 438 l 1,15,-1
 188 438 l 1,16,-1
 125 438 l 1,17,-1
 125 500 l 1,18,-1
 62 500 l 1,19,-1
 0 500 l 1,20,-1
 0 562 l 1,21,-1
 62 562 l 1,22,-1
 125 562 l 1,23,-1
 188 562 l 1,24,-1
 188 500 l 1,25,-1
 250 500 l 1,26,-1
 312 500 l 1,27,-1
 312 438 l 1,28,-1
 375 438 l 1,29,-1
 438 438 l 1,30,-1
 438 375 l 1,31,-1
 500 375 l 1,32,-1
 500 312 l 1,33,-1
 438 312 l 1,34,-1
 438 250 l 1,35,-1
 375 250 l 1,36,-1
 312 250 l 1,37,-1
 312 188 l 1,38,-1
 250 188 l 1,39,-1
 188 188 l 1,40,-1
 188 125 l 1,41,-1
 125 125 l 1,0,-1
EndSplineSet
Validated: 1
EndChar

StartChar: question
Encoding: 63 63 34
Width: 500
Flags: W
LayerCount: 2
Fore
SplineSet
188 188 m 1,0,-1
 188 250 l 1,1,-1
 188 312 l 1,2,-1
 250 312 l 1,3,-1
 250 375 l 1,4,-1
 312 375 l 1,5,-1
 312 438 l 1,6,-1
 312 500 l 1,7,-1
 312 562 l 1,8,-1
 250 562 l 1,9,-1
 188 562 l 1,10,-1
 125 562 l 1,11,-1
 125 500 l 1,12,-1
 62 500 l 1,13,-1
 62 438 l 1,14,-1
 0 438 l 1,15,-1
 0 500 l 1,16,-1
 0 562 l 1,17,-1
 62 562 l 1,18,-1
 62 625 l 1,19,-1
 125 625 l 1,20,-1
 188 625 l 1,21,-1
 250 625 l 1,22,-1
 312 625 l 1,23,-1
 375 625 l 1,24,-1
 375 562 l 1,25,-1
 438 562 l 1,26,-1
 438 500 l 1,27,-1
 438 438 l 1,28,-1
 438 375 l 1,29,-1
 375 375 l 1,30,-1
 375 312 l 1,31,-1
 312 312 l 1,32,-1
 312 250 l 1,33,-1
 250 250 l 1,34,-1
 250 188 l 1,35,-1
 188 188 l 1,0,-1
250 0 m 1,36,-1
 188 0 l 1,37,-1
 188 62 l 1,38,-1
 188 125 l 1,39,-1
 250 125 l 1,40,-1
 312 125 l 1,41,-1
 312 62 l 1,42,-1
 312 0 l 1,43,-1
 250 0 l 1,36,-1
EndSplineSet
Validated: 1
EndChar

StartChar: at
Encoding: 64 64 35
Width: 812
Flags: W
LayerCount: 2
Fore
SplineSet
312 -62 m 1,0,-1
 375 -62 l 1,1,-1
 375 -125 l 1,2,-1
 312 -125 l 1,3,-1
 250 -125 l 1,4,-1
 188 -125 l 1,5,-1
 125 -125 l 1,6,-1
 125 -62 l 1,7,-1
 188 -62 l 1,8,-1
 250 -62 l 1,9,-1
 312 -62 l 1,0,-1
125 -62 m 1,10,-1
 62 -62 l 1,11,-1
 62 0 l 1,12,-1
 125 0 l 1,13,-1
 125 -62 l 1,10,-1
625 0 m 1,14,-1
 562 0 l 1,15,-1
 562 62 l 1,16,-1
 625 62 l 1,17,-1
 625 125 l 1,18,-1
 688 125 l 1,19,-1
 688 62 l 1,20,-1
 688 0 l 1,21,-1
 625 0 l 1,14,-1
62 0 m 1,22,-1
 0 0 l 1,23,-1
 0 62 l 1,24,-1
 0 125 l 1,25,-1
 0 188 l 1,26,-1
 0 250 l 1,27,-1
 0 312 l 1,28,-1
 62 312 l 1,29,-1
 62 250 l 1,30,-1
 62 188 l 1,31,-1
 62 125 l 1,32,-1
 62 62 l 1,33,-1
 62 0 l 1,22,-1
562 62 m 1,34,-1
 500 62 l 1,35,-1
 438 62 l 1,36,-1
 438 125 l 1,37,-1
 375 125 l 1,38,-1
 375 62 l 1,39,-1
 312 62 l 1,40,-1
 250 62 l 1,41,-1
 250 125 l 1,42,-1
 312 125 l 1,43,-1
 375 125 l 1,44,-1
 375 188 l 1,45,-1
 375 250 l 1,46,-1
 438 250 l 1,47,-1
 438 188 l 1,48,-1
 500 188 l 1,49,-1
 500 125 l 1,50,-1
 562 125 l 1,51,-1
 562 62 l 1,34,-1
688 125 m 1,52,-1
 688 188 l 1,53,-1
 688 250 l 1,54,-1
 688 312 l 1,55,-1
 750 312 l 1,56,-1
 750 250 l 1,57,-1
 750 188 l 1,58,-1
 750 125 l 1,59,-1
 688 125 l 1,52,-1
250 125 m 1,60,-1
 188 125 l 1,61,-1
 188 188 l 1,62,-1
 188 250 l 1,63,-1
 188 312 l 1,64,-1
 250 312 l 1,65,-1
 250 250 l 1,66,-1
 250 188 l 1,67,-1
 250 125 l 1,60,-1
438 250 m 1,68,-1
 438 312 l 1,69,-1
 438 375 l 1,70,-1
 500 375 l 1,71,-1
 500 312 l 1,72,-1
 500 250 l 1,73,-1
 438 250 l 1,68,-1
375 250 m 1,74,-1
 312 250 l 1,75,-1
 312 312 l 1,76,-1
 375 312 l 1,77,-1
 375 250 l 1,74,-1
688 312 m 1,78,-1
 625 312 l 1,79,-1
 625 375 l 1,80,-1
 562 375 l 1,81,-1
 562 438 l 1,82,-1
 625 438 l 1,83,-1
 688 438 l 1,84,-1
 688 375 l 1,85,-1
 688 312 l 1,78,-1
312 312 m 1,86,-1
 250 312 l 1,87,-1
 250 375 l 1,88,-1
 312 375 l 1,89,-1
 312 312 l 1,86,-1
62 312 m 1,90,-1
 62 375 l 1,91,-1
 62 438 l 1,92,-1
 125 438 l 1,93,-1
 188 438 l 1,94,-1
 188 375 l 1,95,-1
 125 375 l 1,96,-1
 125 312 l 1,97,-1
 62 312 l 1,90,-1
562 438 m 1,98,-1
 500 438 l 1,99,-1
 438 438 l 1,100,-1
 375 438 l 1,101,-1
 312 438 l 1,102,-1
 250 438 l 1,103,-1
 188 438 l 1,104,-1
 188 500 l 1,105,-1
 250 500 l 1,106,-1
 312 500 l 1,107,-1
 375 500 l 1,108,-1
 438 500 l 1,109,-1
 500 500 l 1,110,-1
 562 500 l 1,111,-1
 562 438 l 1,98,-1
EndSplineSet
Validated: 5
EndChar

StartChar: A
Encoding: 65 65 36
Width: 562
Flags: W
LayerCount: 2
Fore
SplineSet
438 0 m 1,0,-1
 375 0 l 1,1,-1
 375 62 l 1,2,-1
 375 125 l 1,3,-1
 312 125 l 1,4,-1
 250 125 l 1,5,-1
 188 125 l 1,6,-1
 125 125 l 1,7,-1
 125 62 l 1,8,-1
 125 0 l 1,9,-1
 62 0 l 1,10,-1
 0 0 l 1,11,-1
 0 62 l 1,12,-1
 0 125 l 1,13,-1
 0 188 l 1,14,-1
 0 250 l 1,15,-1
 62 250 l 1,16,-1
 62 312 l 1,17,-1
 62 375 l 1,18,-1
 62 438 l 1,19,-1
 125 438 l 1,20,-1
 125 500 l 1,21,-1
 125 562 l 1,22,-1
 188 562 l 1,23,-1
 188 625 l 1,24,-1
 250 625 l 1,25,-1
 312 625 l 1,26,-1
 312 562 l 1,27,-1
 375 562 l 1,28,-1
 375 500 l 1,29,-1
 375 438 l 1,30,-1
 438 438 l 1,31,-1
 438 375 l 1,32,-1
 438 312 l 1,33,-1
 438 250 l 1,34,-1
 500 250 l 1,35,-1
 500 188 l 1,36,-1
 500 125 l 1,37,-1
 500 62 l 1,38,-1
 500 0 l 1,39,-1
 438 0 l 1,0,-1
250 250 m 1,40,-1
 312 250 l 1,41,-1
 312 312 l 1,42,-1
 312 375 l 1,43,-1
 312 438 l 1,44,-1
 312 500 l 1,45,-1
 250 500 l 1,46,-1
 188 500 l 1,47,-1
 188 438 l 1,48,-1
 188 375 l 1,49,-1
 188 312 l 1,50,-1
 188 250 l 1,51,-1
 250 250 l 1,40,-1
EndSplineSet
Validated: 1
EndChar

StartChar: B
Encoding: 66 66 37
Width: 562
Flags: W
LayerCount: 2
Fore
SplineSet
375 0 m 1,0,-1
 312 0 l 1,1,-1
 250 0 l 1,2,-1
 188 0 l 1,3,-1
 125 0 l 1,4,-1
 62 0 l 1,5,-1
 0 0 l 1,6,-1
 0 62 l 1,7,-1
 0 125 l 1,8,-1
 0 188 l 1,9,-1
 0 250 l 1,10,-1
 0 312 l 1,11,-1
 0 375 l 1,12,-1
 0 438 l 1,13,-1
 0 500 l 1,14,-1
 0 562 l 1,15,-1
 0 625 l 1,16,-1
 62 625 l 1,17,-1
 125 625 l 1,18,-1
 125 562 l 1,19,-1
 188 562 l 1,20,-1
 188 625 l 1,21,-1
 250 625 l 1,22,-1
 312 625 l 1,23,-1
 375 625 l 1,24,-1
 438 625 l 1,25,-1
 438 562 l 1,26,-1
 500 562 l 1,27,-1
 500 500 l 1,28,-1
 500 438 l 1,29,-1
 500 375 l 1,30,-1
 438 375 l 1,31,-1
 438 312 l 1,32,-1
 500 312 l 1,33,-1
 500 250 l 1,34,-1
 500 188 l 1,35,-1
 500 125 l 1,36,-1
 500 62 l 1,37,-1
 438 62 l 1,38,-1
 438 0 l 1,39,-1
 375 0 l 1,0,-1
250 62 m 1,40,-1
 312 62 l 1,41,-1
 312 125 l 1,42,-1
 375 125 l 1,43,-1
 375 188 l 1,44,-1
 375 250 l 1,45,-1
 375 312 l 1,46,-1
 312 312 l 1,47,-1
 250 312 l 1,48,-1
 250 375 l 1,49,-1
 312 375 l 1,50,-1
 375 375 l 1,51,-1
 375 438 l 1,52,-1
 375 500 l 1,53,-1
 375 562 l 1,54,-1
 312 562 l 1,55,-1
 250 562 l 1,56,-1
 188 562 l 1,57,-1
 188 500 l 1,58,-1
 125 500 l 1,59,-1
 125 438 l 1,60,-1
 125 375 l 1,61,-1
 125 312 l 1,62,-1
 188 312 l 1,63,-1
 250 312 l 1,64,-1
 250 250 l 1,65,-1
 188 250 l 1,66,-1
 125 250 l 1,67,-1
 125 188 l 1,68,-1
 125 125 l 1,69,-1
 125 62 l 1,70,-1
 188 62 l 1,71,-1
 250 62 l 1,40,-1
EndSplineSet
Validated: 5
EndChar

StartChar: C
Encoding: 67 67 38
Width: 500
Flags: W
LayerCount: 2
Fore
SplineSet
375 438 m 1,0,-1
 375 500 l 1,1,-1
 312 500 l 1,2,-1
 312 562 l 1,3,-1
 250 562 l 1,4,-1
 250 500 l 1,5,-1
 188 500 l 1,6,-1
 188 438 l 1,7,-1
 125 438 l 1,8,-1
 125 375 l 1,9,-1
 125 312 l 1,10,-1
 125 250 l 1,11,-1
 125 188 l 1,12,-1
 125 125 l 1,13,-1
 188 125 l 1,14,-1
 188 62 l 1,15,-1
 250 62 l 1,16,-1
 312 62 l 1,17,-1
 312 125 l 1,18,-1
 375 125 l 1,19,-1
 375 188 l 1,20,-1
 438 188 l 1,21,-1
 438 125 l 1,22,-1
 438 62 l 1,23,-1
 375 62 l 1,24,-1
 375 0 l 1,25,-1
 312 0 l 1,26,-1
 250 0 l 1,27,-1
 188 0 l 1,28,-1
 125 0 l 1,29,-1
 125 62 l 1,30,-1
 62 62 l 1,31,-1
 62 125 l 1,32,-1
 0 125 l 1,33,-1
 0 188 l 1,34,-1
 0 250 l 1,35,-1
 0 312 l 1,36,-1
 0 375 l 1,37,-1
 0 438 l 1,38,-1
 62 438 l 1,39,-1
 62 500 l 1,40,-1
 125 500 l 1,41,-1
 125 562 l 1,42,-1
 188 562 l 1,43,-1
 188 625 l 1,44,-1
 250 625 l 1,45,-1
 312 625 l 1,46,-1
 375 625 l 1,47,-1
 375 562 l 1,48,-1
 438 562 l 1,49,-1
 438 500 l 1,50,-1
 438 438 l 1,51,-1
 375 438 l 1,0,-1
EndSplineSet
Validated: 1
EndChar

StartChar: D
Encoding: 68 68 39
Width: 625
Flags: W
LayerCount: 2
Fore
SplineSet
375 0 m 1,0,-1
 312 0 l 1,1,-1
 250 0 l 1,2,-1
 188 0 l 1,3,-1
 125 0 l 1,4,-1
 62 0 l 1,5,-1
 62 62 l 1,6,-1
 62 125 l 1,7,-1
 62 188 l 1,8,-1
 62 250 l 1,9,-1
 62 312 l 1,10,-1
 62 375 l 1,11,-1
 62 438 l 1,12,-1
 62 500 l 1,13,-1
 62 562 l 1,14,-1
 0 562 l 1,15,-1
 0 625 l 1,16,-1
 62 625 l 1,17,-1
 125 625 l 1,18,-1
 188 625 l 1,19,-1
 250 625 l 1,20,-1
 312 625 l 1,21,-1
 375 625 l 1,22,-1
 438 625 l 1,23,-1
 438 562 l 1,24,-1
 500 562 l 1,25,-1
 500 500 l 1,26,-1
 562 500 l 1,27,-1
 562 438 l 1,28,-1
 562 375 l 1,29,-1
 562 312 l 1,30,-1
 562 250 l 1,31,-1
 562 188 l 1,32,-1
 562 125 l 1,33,-1
 500 125 l 1,34,-1
 500 62 l 1,35,-1
 438 62 l 1,36,-1
 438 0 l 1,37,-1
 375 0 l 1,0,-1
312 62 m 1,38,-1
 375 62 l 1,39,-1
 375 125 l 1,40,-1
 438 125 l 1,41,-1
 438 188 l 1,42,-1
 438 250 l 1,43,-1
 438 312 l 1,44,-1
 438 375 l 1,45,-1
 438 438 l 1,46,-1
 438 500 l 1,47,-1
 375 500 l 1,48,-1
 375 562 l 1,49,-1
 312 562 l 1,50,-1
 250 562 l 1,51,-1
 250 500 l 1,52,-1
 188 500 l 1,53,-1
 188 438 l 1,54,-1
 188 375 l 1,55,-1
 188 312 l 1,56,-1
 188 250 l 1,57,-1
 188 188 l 1,58,-1
 188 125 l 1,59,-1
 188 62 l 1,60,-1
 250 62 l 1,61,-1
 312 62 l 1,38,-1
EndSplineSet
Validated: 1
EndChar

StartChar: E
Encoding: 69 69 40
Width: 500
Flags: W
LayerCount: 2
Fore
SplineSet
312 250 m 1,0,-1
 312 312 l 1,1,-1
 250 312 l 1,2,-1
 188 312 l 1,3,-1
 125 312 l 1,4,-1
 125 250 l 1,5,-1
 125 188 l 1,6,-1
 125 125 l 1,7,-1
 125 62 l 1,8,-1
 188 62 l 1,9,-1
 250 62 l 1,10,-1
 312 62 l 1,11,-1
 375 62 l 1,12,-1
 375 125 l 1,13,-1
 438 125 l 1,14,-1
 438 62 l 1,15,-1
 438 0 l 1,16,-1
 375 0 l 1,17,-1
 312 0 l 1,18,-1
 250 0 l 1,19,-1
 188 0 l 1,20,-1
 125 0 l 1,21,-1
 62 0 l 1,22,-1
 0 0 l 1,23,-1
 0 62 l 1,24,-1
 0 125 l 1,25,-1
 0 188 l 1,26,-1
 0 250 l 1,27,-1
 0 312 l 1,28,-1
 0 375 l 1,29,-1
 0 438 l 1,30,-1
 0 500 l 1,31,-1
 0 562 l 1,32,-1
 62 562 l 1,33,-1
 62 625 l 1,34,-1
 125 625 l 1,35,-1
 188 625 l 1,36,-1
 250 625 l 1,37,-1
 312 625 l 1,38,-1
 375 625 l 1,39,-1
 438 625 l 1,40,-1
 438 562 l 1,41,-1
 438 500 l 1,42,-1
 375 500 l 1,43,-1
 375 562 l 1,44,-1
 312 562 l 1,45,-1
 250 562 l 1,46,-1
 188 562 l 1,47,-1
 125 562 l 1,48,-1
 125 500 l 1,49,-1
 125 438 l 1,50,-1
 125 375 l 1,51,-1
 188 375 l 1,52,-1
 250 375 l 1,53,-1
 312 375 l 1,54,-1
 312 438 l 1,55,-1
 375 438 l 1,56,-1
 375 375 l 1,57,-1
 375 312 l 1,58,-1
 375 250 l 1,59,-1
 312 250 l 1,0,-1
EndSplineSet
Validated: 1
EndChar

StartChar: F
Encoding: 70 70 41
Width: 500
Flags: W
LayerCount: 2
Fore
SplineSet
375 500 m 1,0,-1
 375 562 l 1,1,-1
 312 562 l 1,2,-1
 250 562 l 1,3,-1
 188 562 l 1,4,-1
 125 562 l 1,5,-1
 125 500 l 1,6,-1
 125 438 l 1,7,-1
 125 375 l 1,8,-1
 188 375 l 1,9,-1
 250 375 l 1,10,-1
 312 375 l 1,11,-1
 312 438 l 1,12,-1
 375 438 l 1,13,-1
 375 375 l 1,14,-1
 375 312 l 1,15,-1
 312 312 l 1,16,-1
 250 312 l 1,17,-1
 188 312 l 1,18,-1
 125 312 l 1,19,-1
 125 250 l 1,20,-1
 125 188 l 1,21,-1
 125 125 l 1,22,-1
 125 62 l 1,23,-1
 125 0 l 1,24,-1
 62 0 l 1,25,-1
 0 0 l 1,26,-1
 0 62 l 1,27,-1
 0 125 l 1,28,-1
 0 188 l 1,29,-1
 0 250 l 1,30,-1
 0 312 l 1,31,-1
 0 375 l 1,32,-1
 0 438 l 1,33,-1
 0 500 l 1,34,-1
 0 562 l 1,35,-1
 0 625 l 1,36,-1
 62 625 l 1,37,-1
 125 625 l 1,38,-1
 188 625 l 1,39,-1
 250 625 l 1,40,-1
 312 625 l 1,41,-1
 375 625 l 1,42,-1
 438 625 l 1,43,-1
 438 562 l 1,44,-1
 438 500 l 1,45,-1
 375 500 l 1,0,-1
EndSplineSet
Validated: 1
EndChar

StartChar: G
Encoding: 71 71 42
Width: 562
Flags: W
LayerCount: 2
Fore
SplineSet
438 0 m 1,0,-1
 438 62 l 1,1,-1
 375 62 l 1,2,-1
 375 0 l 1,3,-1
 312 0 l 1,4,-1
 250 0 l 1,5,-1
 188 0 l 1,6,-1
 125 0 l 1,7,-1
 125 62 l 1,8,-1
 62 62 l 1,9,-1
 62 125 l 1,10,-1
 0 125 l 1,11,-1
 0 188 l 1,12,-1
 0 250 l 1,13,-1
 0 312 l 1,14,-1
 0 375 l 1,15,-1
 0 438 l 1,16,-1
 62 438 l 1,17,-1
 62 500 l 1,18,-1
 125 500 l 1,19,-1
 125 562 l 1,20,-1
 188 562 l 1,21,-1
 188 625 l 1,22,-1
 250 625 l 1,23,-1
 312 625 l 1,24,-1
 375 625 l 1,25,-1
 438 625 l 1,26,-1
 438 562 l 1,27,-1
 500 562 l 1,28,-1
 500 500 l 1,29,-1
 500 438 l 1,30,-1
 438 438 l 1,31,-1
 438 500 l 1,32,-1
 375 500 l 1,33,-1
 375 562 l 1,34,-1
 312 562 l 1,35,-1
 250 562 l 1,36,-1
 250 500 l 1,37,-1
 188 500 l 1,38,-1
 188 438 l 1,39,-1
 125 438 l 1,40,-1
 125 375 l 1,41,-1
 125 312 l 1,42,-1
 125 250 l 1,43,-1
 125 188 l 1,44,-1
 125 125 l 1,45,-1
 188 125 l 1,46,-1
 188 62 l 1,47,-1
 250 62 l 1,48,-1
 312 62 l 1,49,-1
 375 62 l 1,50,-1
 375 125 l 1,51,-1
 375 188 l 1,52,-1
 438 188 l 1,53,-1
 438 250 l 1,54,-1
 375 250 l 1,55,-1
 312 250 l 1,56,-1
 312 188 l 1,57,-1
 250 188 l 1,58,-1
 250 250 l 1,59,-1
 250 312 l 1,60,-1
 312 312 l 1,61,-1
 375 312 l 1,62,-1
 438 312 l 1,63,-1
 500 312 l 1,64,-1
 500 250 l 1,65,-1
 500 188 l 1,66,-1
 500 125 l 1,67,-1
 500 62 l 1,68,-1
 500 0 l 1,69,-1
 438 0 l 1,0,-1
EndSplineSet
Validated: 5
EndChar

StartChar: H
Encoding: 72 72 43
Width: 562
Flags: W
LayerCount: 2
Fore
SplineSet
438 0 m 1,0,-1
 375 0 l 1,1,-1
 312 0 l 1,2,-1
 312 62 l 1,3,-1
 375 62 l 1,4,-1
 375 125 l 1,5,-1
 375 188 l 1,6,-1
 375 250 l 1,7,-1
 312 250 l 1,8,-1
 312 312 l 1,9,-1
 250 312 l 1,10,-1
 188 312 l 1,11,-1
 125 312 l 1,12,-1
 125 250 l 1,13,-1
 125 188 l 1,14,-1
 125 125 l 1,15,-1
 125 62 l 1,16,-1
 188 62 l 1,17,-1
 188 0 l 1,18,-1
 125 0 l 1,19,-1
 62 0 l 1,20,-1
 0 0 l 1,21,-1
 0 62 l 1,22,-1
 0 125 l 1,23,-1
 0 188 l 1,24,-1
 0 250 l 1,25,-1
 0 312 l 1,26,-1
 0 375 l 1,27,-1
 0 438 l 1,28,-1
 0 500 l 1,29,-1
 0 562 l 1,30,-1
 0 625 l 1,31,-1
 62 625 l 1,32,-1
 125 625 l 1,33,-1
 188 625 l 1,34,-1
 188 562 l 1,35,-1
 125 562 l 1,36,-1
 125 500 l 1,37,-1
 125 438 l 1,38,-1
 188 438 l 1,39,-1
 188 375 l 1,40,-1
 250 375 l 1,41,-1
 312 375 l 1,42,-1
 375 375 l 1,43,-1
 375 438 l 1,44,-1
 375 500 l 1,45,-1
 375 562 l 1,46,-1
 312 562 l 1,47,-1
 312 625 l 1,48,-1
 375 625 l 1,49,-1
 438 625 l 1,50,-1
 500 625 l 1,51,-1
 500 562 l 1,52,-1
 500 500 l 1,53,-1
 500 438 l 1,54,-1
 500 375 l 1,55,-1
 500 312 l 1,56,-1
 500 250 l 1,57,-1
 500 188 l 1,58,-1
 500 125 l 1,59,-1
 500 62 l 1,60,-1
 500 0 l 1,61,-1
 438 0 l 1,0,-1
EndSplineSet
Validated: 1
EndChar

StartChar: I
Encoding: 73 73 44
Width: 312
Flags: W
LayerCount: 2
Fore
SplineSet
188 0 m 1,0,-1
 125 0 l 1,1,-1
 62 0 l 1,2,-1
 62 62 l 1,3,-1
 62 125 l 1,4,-1
 62 188 l 1,5,-1
 62 250 l 1,6,-1
 62 312 l 1,7,-1
 62 375 l 1,8,-1
 62 438 l 1,9,-1
 62 500 l 1,10,-1
 62 562 l 1,11,-1
 0 562 l 1,12,-1
 0 625 l 1,13,-1
 62 625 l 1,14,-1
 125 625 l 1,15,-1
 188 625 l 1,16,-1
 188 562 l 1,17,-1
 188 500 l 1,18,-1
 188 438 l 1,19,-1
 188 375 l 1,20,-1
 188 312 l 1,21,-1
 188 250 l 1,22,-1
 188 188 l 1,23,-1
 188 125 l 1,24,-1
 188 62 l 1,25,-1
 250 62 l 1,26,-1
 250 0 l 1,27,-1
 188 0 l 1,0,-1
EndSplineSet
Validated: 1
EndChar

StartChar: J
Encoding: 74 74 45
Width: 437
Flags: W
LayerCount: 2
Fore
SplineSet
250 0 m 1,0,-1
 188 0 l 1,1,-1
 125 0 l 1,2,-1
 125 62 l 1,3,-1
 62 62 l 1,4,-1
 62 125 l 1,5,-1
 62 188 l 1,6,-1
 0 188 l 1,7,-1
 0 250 l 1,8,-1
 62 250 l 1,9,-1
 125 250 l 1,10,-1
 188 250 l 1,11,-1
 188 188 l 1,12,-1
 125 188 l 1,13,-1
 125 125 l 1,14,-1
 188 125 l 1,15,-1
 188 62 l 1,16,-1
 250 62 l 1,17,-1
 250 125 l 1,18,-1
 250 188 l 1,19,-1
 250 250 l 1,20,-1
 250 312 l 1,21,-1
 250 375 l 1,22,-1
 250 438 l 1,23,-1
 250 500 l 1,24,-1
 250 562 l 1,25,-1
 188 562 l 1,26,-1
 188 625 l 1,27,-1
 250 625 l 1,28,-1
 312 625 l 1,29,-1
 375 625 l 1,30,-1
 375 562 l 1,31,-1
 375 500 l 1,32,-1
 375 438 l 1,33,-1
 375 375 l 1,34,-1
 375 312 l 1,35,-1
 375 250 l 1,36,-1
 375 188 l 1,37,-1
 375 125 l 1,38,-1
 375 62 l 1,39,-1
 312 62 l 1,40,-1
 312 0 l 1,41,-1
 250 0 l 1,0,-1
EndSplineSet
Validated: 1
EndChar

StartChar: K
Encoding: 75 75 46
Width: 500
Flags: W
LayerCount: 2
Fore
SplineSet
375 0 m 1,0,-1
 312 0 l 1,1,-1
 312 62 l 1,2,-1
 312 125 l 1,3,-1
 312 188 l 1,4,-1
 250 188 l 1,5,-1
 250 250 l 1,6,-1
 188 250 l 1,7,-1
 188 312 l 1,8,-1
 125 312 l 1,9,-1
 125 250 l 1,10,-1
 125 188 l 1,11,-1
 125 125 l 1,12,-1
 125 62 l 1,13,-1
 125 0 l 1,14,-1
 62 0 l 1,15,-1
 0 0 l 1,16,-1
 0 62 l 1,17,-1
 0 125 l 1,18,-1
 0 188 l 1,19,-1
 0 250 l 1,20,-1
 0 312 l 1,21,-1
 0 375 l 1,22,-1
 0 438 l 1,23,-1
 0 500 l 1,24,-1
 0 562 l 1,25,-1
 0 625 l 1,26,-1
 62 625 l 1,27,-1
 125 625 l 1,28,-1
 125 562 l 1,29,-1
 125 500 l 1,30,-1
 125 438 l 1,31,-1
 188 438 l 1,32,-1
 188 500 l 1,33,-1
 250 500 l 1,34,-1
 250 562 l 1,35,-1
 312 562 l 1,36,-1
 312 625 l 1,37,-1
 375 625 l 1,38,-1
 438 625 l 1,39,-1
 438 562 l 1,40,-1
 375 562 l 1,41,-1
 375 500 l 1,42,-1
 312 500 l 1,43,-1
 312 438 l 1,44,-1
 250 438 l 1,45,-1
 250 375 l 1,46,-1
 250 312 l 1,47,-1
 312 312 l 1,48,-1
 312 250 l 1,49,-1
 375 250 l 1,50,-1
 375 188 l 1,51,-1
 438 188 l 1,52,-1
 438 125 l 1,53,-1
 438 62 l 1,54,-1
 438 0 l 1,55,-1
 375 0 l 1,0,-1
EndSplineSet
Validated: 1
EndChar

StartChar: L
Encoding: 76 76 47
Width: 500
Flags: W
LayerCount: 2
Fore
SplineSet
375 0 m 1,0,-1
 312 0 l 1,1,-1
 250 0 l 1,2,-1
 188 0 l 1,3,-1
 125 0 l 1,4,-1
 62 0 l 1,5,-1
 0 0 l 1,6,-1
 0 62 l 1,7,-1
 0 125 l 1,8,-1
 0 188 l 1,9,-1
 0 250 l 1,10,-1
 0 312 l 1,11,-1
 0 375 l 1,12,-1
 0 438 l 1,13,-1
 0 500 l 1,14,-1
 0 562 l 1,15,-1
 0 625 l 1,16,-1
 62 625 l 1,17,-1
 125 625 l 1,18,-1
 188 625 l 1,19,-1
 188 562 l 1,20,-1
 188 500 l 1,21,-1
 125 500 l 1,22,-1
 125 438 l 1,23,-1
 125 375 l 1,24,-1
 125 312 l 1,25,-1
 125 250 l 1,26,-1
 125 188 l 1,27,-1
 125 125 l 1,28,-1
 125 62 l 1,29,-1
 188 62 l 1,30,-1
 250 62 l 1,31,-1
 312 62 l 1,32,-1
 312 125 l 1,33,-1
 375 125 l 1,34,-1
 375 188 l 1,35,-1
 438 188 l 1,36,-1
 438 125 l 1,37,-1
 438 62 l 1,38,-1
 438 0 l 1,39,-1
 375 0 l 1,0,-1
EndSplineSet
Validated: 1
EndChar

StartChar: M
Encoding: 77 77 48
Width: 750
Flags: W
LayerCount: 2
Fore
SplineSet
312 62 m 1,0,-1
 312 125 l 1,1,-1
 250 125 l 1,2,-1
 250 188 l 1,3,-1
 250 250 l 1,4,-1
 188 250 l 1,5,-1
 188 312 l 1,6,-1
 188 375 l 1,7,-1
 125 375 l 1,8,-1
 125 312 l 1,9,-1
 125 250 l 1,10,-1
 125 188 l 1,11,-1
 125 125 l 1,12,-1
 125 62 l 1,13,-1
 125 0 l 1,14,-1
 62 0 l 1,15,-1
 0 0 l 1,16,-1
 0 62 l 1,17,-1
 0 125 l 1,18,-1
 0 188 l 1,19,-1
 0 250 l 1,20,-1
 0 312 l 1,21,-1
 0 375 l 1,22,-1
 0 438 l 1,23,-1
 0 500 l 1,24,-1
 0 562 l 1,25,-1
 0 625 l 1,26,-1
 62 625 l 1,27,-1
 125 625 l 1,28,-1
 125 562 l 1,29,-1
 188 562 l 1,30,-1
 188 500 l 1,31,-1
 250 500 l 1,32,-1
 250 438 l 1,33,-1
 250 375 l 1,34,-1
 312 375 l 1,35,-1
 312 312 l 1,36,-1
 375 312 l 1,37,-1
 375 375 l 1,38,-1
 438 375 l 1,39,-1
 438 438 l 1,40,-1
 438 500 l 1,41,-1
 500 500 l 1,42,-1
 500 562 l 1,43,-1
 562 562 l 1,44,-1
 562 625 l 1,45,-1
 625 625 l 1,46,-1
 688 625 l 1,47,-1
 688 562 l 1,48,-1
 688 500 l 1,49,-1
 688 438 l 1,50,-1
 688 375 l 1,51,-1
 688 312 l 1,52,-1
 688 250 l 1,53,-1
 688 188 l 1,54,-1
 688 125 l 1,55,-1
 688 62 l 1,56,-1
 688 0 l 1,57,-1
 625 0 l 1,58,-1
 562 0 l 1,59,-1
 562 62 l 1,60,-1
 562 125 l 1,61,-1
 562 188 l 1,62,-1
 562 250 l 1,63,-1
 562 312 l 1,64,-1
 562 375 l 1,65,-1
 500 375 l 1,66,-1
 500 312 l 1,67,-1
 500 250 l 1,68,-1
 438 250 l 1,69,-1
 438 188 l 1,70,-1
 438 125 l 1,71,-1
 375 125 l 1,72,-1
 375 62 l 1,73,-1
 312 62 l 1,0,-1
EndSplineSet
Validated: 1
EndChar

StartChar: N
Encoding: 78 78 49
Width: 750
Flags: W
LayerCount: 2
Fore
SplineSet
562 0 m 1,0,-1
 500 0 l 1,1,-1
 500 62 l 1,2,-1
 438 62 l 1,3,-1
 438 125 l 1,4,-1
 438 188 l 1,5,-1
 375 188 l 1,6,-1
 375 250 l 1,7,-1
 312 250 l 1,8,-1
 312 312 l 1,9,-1
 250 312 l 1,10,-1
 250 375 l 1,11,-1
 250 438 l 1,12,-1
 188 438 l 1,13,-1
 188 375 l 1,14,-1
 188 312 l 1,15,-1
 188 250 l 1,16,-1
 188 188 l 1,17,-1
 188 125 l 1,18,-1
 188 62 l 1,19,-1
 188 0 l 1,20,-1
 125 0 l 1,21,-1
 62 0 l 1,22,-1
 0 0 l 1,23,-1
 0 62 l 1,24,-1
 62 62 l 1,25,-1
 62 125 l 1,26,-1
 62 188 l 1,27,-1
 62 250 l 1,28,-1
 62 312 l 1,29,-1
 62 375 l 1,30,-1
 62 438 l 1,31,-1
 62 500 l 1,32,-1
 62 562 l 1,33,-1
 62 625 l 1,34,-1
 125 625 l 1,35,-1
 188 625 l 1,36,-1
 188 562 l 1,37,-1
 250 562 l 1,38,-1
 250 500 l 1,39,-1
 312 500 l 1,40,-1
 312 438 l 1,41,-1
 375 438 l 1,42,-1
 375 375 l 1,43,-1
 438 375 l 1,44,-1
 438 312 l 1,45,-1
 438 250 l 1,46,-1
 500 250 l 1,47,-1
 500 312 l 1,48,-1
 500 375 l 1,49,-1
 500 438 l 1,50,-1
 500 500 l 1,51,-1
 500 562 l 1,52,-1
 500 625 l 1,53,-1
 562 625 l 1,54,-1
 625 625 l 1,55,-1
 688 625 l 1,56,-1
 688 562 l 1,57,-1
 625 562 l 1,58,-1
 625 500 l 1,59,-1
 625 438 l 1,60,-1
 625 375 l 1,61,-1
 625 312 l 1,62,-1
 625 250 l 1,63,-1
 625 188 l 1,64,-1
 625 125 l 1,65,-1
 625 62 l 1,66,-1
 625 0 l 1,67,-1
 562 0 l 1,0,-1
EndSplineSet
Validated: 1
EndChar

StartChar: O
Encoding: 79 79 50
Width: 625
Flags: W
LayerCount: 2
Fore
SplineSet
438 0 m 1,0,-1
 375 0 l 1,1,-1
 312 0 l 1,2,-1
 250 0 l 1,3,-1
 188 0 l 1,4,-1
 188 62 l 1,5,-1
 125 62 l 1,6,-1
 125 125 l 1,7,-1
 62 125 l 1,8,-1
 62 188 l 1,9,-1
 62 250 l 1,10,-1
 62 312 l 1,11,-1
 62 375 l 1,12,-1
 62 438 l 1,13,-1
 62 500 l 1,14,-1
 62 562 l 1,15,-1
 125 562 l 1,16,-1
 125 625 l 1,17,-1
 188 625 l 1,18,-1
 250 625 l 1,19,-1
 312 625 l 1,20,-1
 375 625 l 1,21,-1
 438 625 l 1,22,-1
 438 562 l 1,23,-1
 500 562 l 1,24,-1
 500 500 l 1,25,-1
 562 500 l 1,26,-1
 562 438 l 1,27,-1
 562 375 l 1,28,-1
 562 312 l 1,29,-1
 562 250 l 1,30,-1
 562 188 l 1,31,-1
 562 125 l 1,32,-1
 562 62 l 1,33,-1
 500 62 l 1,34,-1
 500 0 l 1,35,-1
 438 0 l 1,0,-1
375 62 m 1,36,-1
 438 62 l 1,37,-1
 438 125 l 1,38,-1
 438 188 l 1,39,-1
 438 250 l 1,40,-1
 438 312 l 1,41,-1
 438 375 l 1,42,-1
 438 438 l 1,43,-1
 438 500 l 1,44,-1
 375 500 l 1,45,-1
 375 562 l 1,46,-1
 312 562 l 1,47,-1
 250 562 l 1,48,-1
 188 562 l 1,49,-1
 188 500 l 1,50,-1
 188 438 l 1,51,-1
 188 375 l 1,52,-1
 188 312 l 1,53,-1
 188 250 l 1,54,-1
 188 188 l 1,55,-1
 188 125 l 1,56,-1
 250 125 l 1,57,-1
 250 62 l 1,58,-1
 312 62 l 1,59,-1
 375 62 l 1,36,-1
EndSplineSet
Validated: 1
EndChar

StartChar: P
Encoding: 80 80 51
Width: 625
Flags: W
LayerCount: 2
Fore
SplineSet
125 0 m 1,0,-1
 62 0 l 1,1,-1
 62 62 l 1,2,-1
 62 125 l 1,3,-1
 62 188 l 1,4,-1
 62 250 l 1,5,-1
 62 312 l 1,6,-1
 62 375 l 1,7,-1
 62 438 l 1,8,-1
 62 500 l 1,9,-1
 62 562 l 1,10,-1
 62 625 l 1,11,-1
 125 625 l 1,12,-1
 188 625 l 1,13,-1
 188 562 l 1,14,-1
 250 562 l 1,15,-1
 250 625 l 1,16,-1
 312 625 l 1,17,-1
 375 625 l 1,18,-1
 438 625 l 1,19,-1
 500 625 l 1,20,-1
 500 562 l 1,21,-1
 562 562 l 1,22,-1
 562 500 l 1,23,-1
 562 438 l 1,24,-1
 562 375 l 1,25,-1
 562 312 l 1,26,-1
 500 312 l 1,27,-1
 500 250 l 1,28,-1
 438 250 l 1,29,-1
 375 250 l 1,30,-1
 312 250 l 1,31,-1
 250 250 l 1,32,-1
 188 250 l 1,33,-1
 188 188 l 1,34,-1
 188 125 l 1,35,-1
 188 62 l 1,36,-1
 188 0 l 1,37,-1
 125 0 l 1,0,-1
312 312 m 1,38,-1
 375 312 l 1,39,-1
 375 375 l 1,40,-1
 438 375 l 1,41,-1
 438 438 l 1,42,-1
 438 500 l 1,43,-1
 438 562 l 1,44,-1
 375 562 l 1,45,-1
 312 562 l 1,46,-1
 250 562 l 1,47,-1
 250 500 l 1,48,-1
 188 500 l 1,49,-1
 188 438 l 1,50,-1
 188 375 l 1,51,-1
 188 312 l 1,52,-1
 250 312 l 1,53,-1
 312 312 l 1,38,-1
EndSplineSet
Validated: 5
EndChar

StartChar: Q
Encoding: 81 81 52
Width: 750
Flags: W
LayerCount: 2
Fore
SplineSet
625 -62 m 1,0,-1
 562 -62 l 1,1,-1
 562 0 l 1,2,-1
 500 0 l 1,3,-1
 438 0 l 1,4,-1
 375 0 l 1,5,-1
 312 0 l 1,6,-1
 250 0 l 1,7,-1
 188 0 l 1,8,-1
 188 62 l 1,9,-1
 125 62 l 1,10,-1
 125 125 l 1,11,-1
 62 125 l 1,12,-1
 62 188 l 1,13,-1
 62 250 l 1,14,-1
 62 312 l 1,15,-1
 62 375 l 1,16,-1
 62 438 l 1,17,-1
 62 500 l 1,18,-1
 62 562 l 1,19,-1
 125 562 l 1,20,-1
 125 625 l 1,21,-1
 188 625 l 1,22,-1
 250 625 l 1,23,-1
 312 625 l 1,24,-1
 375 625 l 1,25,-1
 438 625 l 1,26,-1
 438 562 l 1,27,-1
 500 562 l 1,28,-1
 500 500 l 1,29,-1
 562 500 l 1,30,-1
 562 438 l 1,31,-1
 562 375 l 1,32,-1
 562 312 l 1,33,-1
 562 250 l 1,34,-1
 562 188 l 1,35,-1
 562 125 l 1,36,-1
 562 62 l 1,37,-1
 625 62 l 1,38,-1
 625 0 l 1,39,-1
 688 0 l 1,40,-1
 688 -62 l 1,41,-1
 625 -62 l 1,0,-1
312 62 m 1,42,-1
 375 62 l 1,43,-1
 375 125 l 1,44,-1
 438 125 l 1,45,-1
 438 188 l 1,46,-1
 438 250 l 1,47,-1
 438 312 l 1,48,-1
 438 375 l 1,49,-1
 438 438 l 1,50,-1
 438 500 l 1,51,-1
 375 500 l 1,52,-1
 375 562 l 1,53,-1
 312 562 l 1,54,-1
 250 562 l 1,55,-1
 188 562 l 1,56,-1
 188 500 l 1,57,-1
 188 438 l 1,58,-1
 188 375 l 1,59,-1
 188 312 l 1,60,-1
 188 250 l 1,61,-1
 188 188 l 1,62,-1
 188 125 l 1,63,-1
 250 125 l 1,64,-1
 250 62 l 1,65,-1
 312 62 l 1,42,-1
375 125 m 1,66,-1
 312 125 l 1,67,-1
 312 188 l 1,68,-1
 375 188 l 1,69,-1
 375 125 l 1,66,-1
EndSplineSet
Validated: 5
EndChar

StartChar: R
Encoding: 82 82 53
Width: 625
Flags: W
LayerCount: 2
Fore
SplineSet
500 0 m 1,0,-1
 438 0 l 1,1,-1
 438 62 l 1,2,-1
 438 125 l 1,3,-1
 438 188 l 1,4,-1
 438 250 l 1,5,-1
 375 250 l 1,6,-1
 312 250 l 1,7,-1
 250 250 l 1,8,-1
 188 250 l 1,9,-1
 188 188 l 1,10,-1
 188 125 l 1,11,-1
 188 62 l 1,12,-1
 188 0 l 1,13,-1
 125 0 l 1,14,-1
 62 0 l 1,15,-1
 62 62 l 1,16,-1
 62 125 l 1,17,-1
 62 188 l 1,18,-1
 62 250 l 1,19,-1
 62 312 l 1,20,-1
 62 375 l 1,21,-1
 62 438 l 1,22,-1
 62 500 l 1,23,-1
 62 562 l 1,24,-1
 62 625 l 1,25,-1
 125 625 l 1,26,-1
 188 625 l 1,27,-1
 188 562 l 1,28,-1
 250 562 l 1,29,-1
 250 625 l 1,30,-1
 312 625 l 1,31,-1
 375 625 l 1,32,-1
 438 625 l 1,33,-1
 500 625 l 1,34,-1
 500 562 l 1,35,-1
 562 562 l 1,36,-1
 562 500 l 1,37,-1
 562 438 l 1,38,-1
 562 375 l 1,39,-1
 562 312 l 1,40,-1
 500 312 l 1,41,-1
 500 250 l 1,42,-1
 562 250 l 1,43,-1
 562 188 l 1,44,-1
 562 125 l 1,45,-1
 562 62 l 1,46,-1
 562 0 l 1,47,-1
 500 0 l 1,0,-1
312 312 m 1,48,-1
 375 312 l 1,49,-1
 375 375 l 1,50,-1
 438 375 l 1,51,-1
 438 438 l 1,52,-1
 438 500 l 1,53,-1
 438 562 l 1,54,-1
 375 562 l 1,55,-1
 312 562 l 1,56,-1
 250 562 l 1,57,-1
 250 500 l 1,58,-1
 188 500 l 1,59,-1
 188 438 l 1,60,-1
 188 375 l 1,61,-1
 188 312 l 1,62,-1
 250 312 l 1,63,-1
 312 312 l 1,48,-1
EndSplineSet
Validated: 5
EndChar

StartChar: S
Encoding: 83 83 54
Width: 562
Flags: W
LayerCount: 2
Fore
SplineSet
438 438 m 1,0,-1
 438 500 l 1,1,-1
 375 500 l 1,2,-1
 375 562 l 1,3,-1
 312 562 l 1,4,-1
 250 562 l 1,5,-1
 188 562 l 1,6,-1
 188 500 l 1,7,-1
 188 438 l 1,8,-1
 250 438 l 1,9,-1
 250 375 l 1,10,-1
 312 375 l 1,11,-1
 375 375 l 1,12,-1
 375 312 l 1,13,-1
 438 312 l 1,14,-1
 438 250 l 1,15,-1
 500 250 l 1,16,-1
 500 188 l 1,17,-1
 500 125 l 1,18,-1
 500 62 l 1,19,-1
 438 62 l 1,20,-1
 438 0 l 1,21,-1
 375 0 l 1,22,-1
 312 0 l 1,23,-1
 250 0 l 1,24,-1
 188 0 l 1,25,-1
 125 0 l 1,26,-1
 125 62 l 1,27,-1
 62 62 l 1,28,-1
 62 125 l 1,29,-1
 62 188 l 1,30,-1
 62 250 l 1,31,-1
 125 250 l 1,32,-1
 125 188 l 1,33,-1
 125 125 l 1,34,-1
 188 125 l 1,35,-1
 188 62 l 1,36,-1
 250 62 l 1,37,-1
 312 62 l 1,38,-1
 375 62 l 1,39,-1
 375 125 l 1,40,-1
 375 188 l 1,41,-1
 312 188 l 1,42,-1
 312 250 l 1,43,-1
 250 250 l 1,44,-1
 188 250 l 1,45,-1
 188 312 l 1,46,-1
 125 312 l 1,47,-1
 125 375 l 1,48,-1
 62 375 l 1,49,-1
 62 438 l 1,50,-1
 62 500 l 1,51,-1
 62 562 l 1,52,-1
 125 562 l 1,53,-1
 125 625 l 1,54,-1
 188 625 l 1,55,-1
 250 625 l 1,56,-1
 312 625 l 1,57,-1
 375 625 l 1,58,-1
 438 625 l 1,59,-1
 438 562 l 1,60,-1
 500 562 l 1,61,-1
 500 500 l 1,62,-1
 500 438 l 1,63,-1
 438 438 l 1,0,-1
EndSplineSet
Validated: 1
EndChar

StartChar: T
Encoding: 84 84 55
Width: 562
Flags: W
LayerCount: 2
Fore
SplineSet
438 500 m 1,0,-1
 438 562 l 1,1,-1
 375 562 l 1,2,-1
 312 562 l 1,3,-1
 312 500 l 1,4,-1
 312 438 l 1,5,-1
 312 375 l 1,6,-1
 312 312 l 1,7,-1
 312 250 l 1,8,-1
 312 188 l 1,9,-1
 312 125 l 1,10,-1
 312 62 l 1,11,-1
 312 0 l 1,12,-1
 250 0 l 1,13,-1
 188 0 l 1,14,-1
 188 62 l 1,15,-1
 188 125 l 1,16,-1
 188 188 l 1,17,-1
 188 250 l 1,18,-1
 188 312 l 1,19,-1
 188 375 l 1,20,-1
 188 438 l 1,21,-1
 188 500 l 1,22,-1
 188 562 l 1,23,-1
 125 562 l 1,24,-1
 62 562 l 1,25,-1
 62 500 l 1,26,-1
 0 500 l 1,27,-1
 0 562 l 1,28,-1
 0 625 l 1,29,-1
 62 625 l 1,30,-1
 125 625 l 1,31,-1
 188 625 l 1,32,-1
 250 625 l 1,33,-1
 312 625 l 1,34,-1
 375 625 l 1,35,-1
 438 625 l 1,36,-1
 500 625 l 1,37,-1
 500 562 l 1,38,-1
 500 500 l 1,39,-1
 438 500 l 1,0,-1
EndSplineSet
Validated: 1
EndChar

StartChar: U
Encoding: 85 85 56
Width: 625
Flags: W
LayerCount: 2
Fore
SplineSet
375 0 m 1,0,-1
 312 0 l 1,1,-1
 250 0 l 1,2,-1
 188 0 l 1,3,-1
 188 62 l 1,4,-1
 125 62 l 1,5,-1
 125 125 l 1,6,-1
 62 125 l 1,7,-1
 62 188 l 1,8,-1
 62 250 l 1,9,-1
 62 312 l 1,10,-1
 62 375 l 1,11,-1
 62 438 l 1,12,-1
 62 500 l 1,13,-1
 125 500 l 1,14,-1
 125 562 l 1,15,-1
 125 625 l 1,16,-1
 188 625 l 1,17,-1
 250 625 l 1,18,-1
 250 562 l 1,19,-1
 250 500 l 1,20,-1
 188 500 l 1,21,-1
 188 438 l 1,22,-1
 188 375 l 1,23,-1
 188 312 l 1,24,-1
 188 250 l 1,25,-1
 188 188 l 1,26,-1
 188 125 l 1,27,-1
 250 125 l 1,28,-1
 250 62 l 1,29,-1
 312 62 l 1,30,-1
 375 62 l 1,31,-1
 375 125 l 1,32,-1
 438 125 l 1,33,-1
 438 188 l 1,34,-1
 438 250 l 1,35,-1
 438 312 l 1,36,-1
 438 375 l 1,37,-1
 438 438 l 1,38,-1
 438 500 l 1,39,-1
 438 562 l 1,40,-1
 438 625 l 1,41,-1
 500 625 l 1,42,-1
 562 625 l 1,43,-1
 562 562 l 1,44,-1
 562 500 l 1,45,-1
 562 438 l 1,46,-1
 562 375 l 1,47,-1
 562 312 l 1,48,-1
 562 250 l 1,49,-1
 562 188 l 1,50,-1
 562 125 l 1,51,-1
 500 125 l 1,52,-1
 500 62 l 1,53,-1
 438 62 l 1,54,-1
 438 0 l 1,55,-1
 375 0 l 1,0,-1
EndSplineSet
Validated: 1
EndChar

StartChar: V
Encoding: 86 86 57
Width: 562
Flags: W
LayerCount: 2
Fore
SplineSet
250 0 m 1,0,-1
 188 0 l 1,1,-1
 188 62 l 1,2,-1
 188 125 l 1,3,-1
 125 125 l 1,4,-1
 125 188 l 1,5,-1
 125 250 l 1,6,-1
 62 250 l 1,7,-1
 62 312 l 1,8,-1
 62 375 l 1,9,-1
 62 438 l 1,10,-1
 0 438 l 1,11,-1
 0 500 l 1,12,-1
 0 562 l 1,13,-1
 0 625 l 1,14,-1
 62 625 l 1,15,-1
 125 625 l 1,16,-1
 125 562 l 1,17,-1
 125 500 l 1,18,-1
 125 438 l 1,19,-1
 188 438 l 1,20,-1
 188 375 l 1,21,-1
 188 312 l 1,22,-1
 188 250 l 1,23,-1
 250 250 l 1,24,-1
 312 250 l 1,25,-1
 312 312 l 1,26,-1
 312 375 l 1,27,-1
 312 438 l 1,28,-1
 375 438 l 1,29,-1
 375 500 l 1,30,-1
 375 562 l 1,31,-1
 375 625 l 1,32,-1
 438 625 l 1,33,-1
 500 625 l 1,34,-1
 500 562 l 1,35,-1
 500 500 l 1,36,-1
 500 438 l 1,37,-1
 438 438 l 1,38,-1
 438 375 l 1,39,-1
 438 312 l 1,40,-1
 438 250 l 1,41,-1
 375 250 l 1,42,-1
 375 188 l 1,43,-1
 375 125 l 1,44,-1
 312 125 l 1,45,-1
 312 62 l 1,46,-1
 312 0 l 1,47,-1
 250 0 l 1,0,-1
EndSplineSet
Validated: 1
EndChar

StartChar: W
Encoding: 87 87 58
Width: 875
Flags: W
LayerCount: 2
Fore
SplineSet
562 0 m 1,0,-1
 500 0 l 1,1,-1
 500 62 l 1,2,-1
 500 125 l 1,3,-1
 438 125 l 1,4,-1
 438 188 l 1,5,-1
 438 250 l 1,6,-1
 375 250 l 1,7,-1
 375 188 l 1,8,-1
 375 125 l 1,9,-1
 312 125 l 1,10,-1
 312 62 l 1,11,-1
 312 0 l 1,12,-1
 250 0 l 1,13,-1
 188 0 l 1,14,-1
 188 62 l 1,15,-1
 188 125 l 1,16,-1
 125 125 l 1,17,-1
 125 188 l 1,18,-1
 125 250 l 1,19,-1
 62 250 l 1,20,-1
 62 312 l 1,21,-1
 62 375 l 1,22,-1
 62 438 l 1,23,-1
 0 438 l 1,24,-1
 0 500 l 1,25,-1
 0 562 l 1,26,-1
 0 625 l 1,27,-1
 62 625 l 1,28,-1
 125 625 l 1,29,-1
 125 562 l 1,30,-1
 125 500 l 1,31,-1
 125 438 l 1,32,-1
 188 438 l 1,33,-1
 188 375 l 1,34,-1
 188 312 l 1,35,-1
 188 250 l 1,36,-1
 250 250 l 1,37,-1
 312 250 l 1,38,-1
 312 312 l 1,39,-1
 312 375 l 1,40,-1
 312 438 l 1,41,-1
 375 438 l 1,42,-1
 375 500 l 1,43,-1
 375 562 l 1,44,-1
 375 625 l 1,45,-1
 438 625 l 1,46,-1
 438 562 l 1,47,-1
 438 500 l 1,48,-1
 438 438 l 1,49,-1
 500 438 l 1,50,-1
 500 375 l 1,51,-1
 500 312 l 1,52,-1
 500 250 l 1,53,-1
 562 250 l 1,54,-1
 625 250 l 1,55,-1
 625 312 l 1,56,-1
 625 375 l 1,57,-1
 625 438 l 1,58,-1
 688 438 l 1,59,-1
 688 500 l 1,60,-1
 688 562 l 1,61,-1
 688 625 l 1,62,-1
 750 625 l 1,63,-1
 812 625 l 1,64,-1
 812 562 l 1,65,-1
 812 500 l 1,66,-1
 812 438 l 1,67,-1
 750 438 l 1,68,-1
 750 375 l 1,69,-1
 750 312 l 1,70,-1
 750 250 l 1,71,-1
 688 250 l 1,72,-1
 688 188 l 1,73,-1
 688 125 l 1,74,-1
 625 125 l 1,75,-1
 625 62 l 1,76,-1
 625 0 l 1,77,-1
 562 0 l 1,0,-1
EndSplineSet
Validated: 1
EndChar

StartChar: X
Encoding: 88 88 59
Width: 562
Flags: W
LayerCount: 2
Fore
SplineSet
438 0 m 1,0,-1
 375 0 l 1,1,-1
 375 62 l 1,2,-1
 375 125 l 1,3,-1
 312 125 l 1,4,-1
 312 188 l 1,5,-1
 250 188 l 1,6,-1
 188 188 l 1,7,-1
 188 125 l 1,8,-1
 125 125 l 1,9,-1
 125 62 l 1,10,-1
 125 0 l 1,11,-1
 62 0 l 1,12,-1
 0 0 l 1,13,-1
 0 62 l 1,14,-1
 0 125 l 1,15,-1
 0 188 l 1,16,-1
 62 188 l 1,17,-1
 62 250 l 1,18,-1
 125 250 l 1,19,-1
 125 312 l 1,20,-1
 125 375 l 1,21,-1
 62 375 l 1,22,-1
 62 438 l 1,23,-1
 0 438 l 1,24,-1
 0 500 l 1,25,-1
 0 562 l 1,26,-1
 0 625 l 1,27,-1
 62 625 l 1,28,-1
 125 625 l 1,29,-1
 125 562 l 1,30,-1
 125 500 l 1,31,-1
 188 500 l 1,32,-1
 188 438 l 1,33,-1
 250 438 l 1,34,-1
 312 438 l 1,35,-1
 312 500 l 1,36,-1
 375 500 l 1,37,-1
 375 562 l 1,38,-1
 375 625 l 1,39,-1
 438 625 l 1,40,-1
 500 625 l 1,41,-1
 500 562 l 1,42,-1
 500 500 l 1,43,-1
 500 438 l 1,44,-1
 438 438 l 1,45,-1
 438 375 l 1,46,-1
 375 375 l 1,47,-1
 375 312 l 1,48,-1
 375 250 l 1,49,-1
 438 250 l 1,50,-1
 438 188 l 1,51,-1
 500 188 l 1,52,-1
 500 125 l 1,53,-1
 500 62 l 1,54,-1
 500 0 l 1,55,-1
 438 0 l 1,0,-1
EndSplineSet
Validated: 1
EndChar

StartChar: Y
Encoding: 89 89 60
Width: 562
Flags: W
LayerCount: 2
Fore
SplineSet
312 0 m 1,0,-1
 250 0 l 1,1,-1
 188 0 l 1,2,-1
 125 0 l 1,3,-1
 125 62 l 1,4,-1
 188 62 l 1,5,-1
 188 125 l 1,6,-1
 188 188 l 1,7,-1
 188 250 l 1,8,-1
 188 312 l 1,9,-1
 125 312 l 1,10,-1
 125 375 l 1,11,-1
 62 375 l 1,12,-1
 62 438 l 1,13,-1
 0 438 l 1,14,-1
 0 500 l 1,15,-1
 0 562 l 1,16,-1
 0 625 l 1,17,-1
 62 625 l 1,18,-1
 125 625 l 1,19,-1
 125 562 l 1,20,-1
 125 500 l 1,21,-1
 188 500 l 1,22,-1
 188 438 l 1,23,-1
 188 375 l 1,24,-1
 250 375 l 1,25,-1
 312 375 l 1,26,-1
 312 438 l 1,27,-1
 312 500 l 1,28,-1
 375 500 l 1,29,-1
 375 562 l 1,30,-1
 375 625 l 1,31,-1
 438 625 l 1,32,-1
 500 625 l 1,33,-1
 500 562 l 1,34,-1
 500 500 l 1,35,-1
 500 438 l 1,36,-1
 438 438 l 1,37,-1
 438 375 l 1,38,-1
 375 375 l 1,39,-1
 375 312 l 1,40,-1
 312 312 l 1,41,-1
 312 250 l 1,42,-1
 312 188 l 1,43,-1
 312 125 l 1,44,-1
 312 62 l 1,45,-1
 375 62 l 1,46,-1
 375 0 l 1,47,-1
 312 0 l 1,0,-1
EndSplineSet
Validated: 1
EndChar

StartChar: Z
Encoding: 90 90 61
Width: 625
Flags: W
LayerCount: 2
Fore
SplineSet
0 500 m 1,0,-1
 0 562 l 1,1,-1
 0 625 l 1,2,-1
 62 625 l 1,3,-1
 125 625 l 1,4,-1
 188 625 l 1,5,-1
 250 625 l 1,6,-1
 312 625 l 1,7,-1
 375 625 l 1,8,-1
 438 625 l 1,9,-1
 500 625 l 1,10,-1
 562 625 l 1,11,-1
 562 562 l 1,12,-1
 562 500 l 1,13,-1
 500 500 l 1,14,-1
 500 438 l 1,15,-1
 438 438 l 1,16,-1
 438 375 l 1,17,-1
 375 375 l 1,18,-1
 375 312 l 1,19,-1
 312 312 l 1,20,-1
 312 250 l 1,21,-1
 250 250 l 1,22,-1
 250 188 l 1,23,-1
 188 188 l 1,24,-1
 188 125 l 1,25,-1
 188 62 l 1,26,-1
 250 62 l 1,27,-1
 312 62 l 1,28,-1
 375 62 l 1,29,-1
 438 62 l 1,30,-1
 500 62 l 1,31,-1
 500 125 l 1,32,-1
 562 125 l 1,33,-1
 562 62 l 1,34,-1
 562 0 l 1,35,-1
 500 0 l 1,36,-1
 438 0 l 1,37,-1
 375 0 l 1,38,-1
 312 0 l 1,39,-1
 250 0 l 1,40,-1
 188 0 l 1,41,-1
 125 0 l 1,42,-1
 62 0 l 1,43,-1
 0 0 l 1,44,-1
 0 62 l 1,45,-1
 0 125 l 1,46,-1
 62 125 l 1,47,-1
 62 188 l 1,48,-1
 62 250 l 1,49,-1
 125 250 l 1,50,-1
 125 312 l 1,51,-1
 188 312 l 1,52,-1
 188 375 l 1,53,-1
 250 375 l 1,54,-1
 250 438 l 1,55,-1
 312 438 l 1,56,-1
 312 500 l 1,57,-1
 375 500 l 1,58,-1
 375 562 l 1,59,-1
 312 562 l 1,60,-1
 250 562 l 1,61,-1
 188 562 l 1,62,-1
 125 562 l 1,63,-1
 62 562 l 1,64,-1
 62 500 l 1,65,-1
 0 500 l 1,0,-1
EndSplineSet
Validated: 1
EndChar

StartChar: bracketleft
Encoding: 91 91 62
Width: 312
Flags: W
LayerCount: 2
Fore
SplineSet
188 -125 m 1,0,-1
 250 -125 l 1,1,-1
 250 -188 l 1,2,-1
 188 -188 l 1,3,-1
 125 -188 l 1,4,-1
 62 -188 l 1,5,-1
 0 -188 l 1,6,-1
 0 -125 l 1,7,-1
 0 -62 l 1,8,-1
 0 0 l 1,9,-1
 0 62 l 1,10,-1
 0 125 l 1,11,-1
 0 188 l 1,12,-1
 0 250 l 1,13,-1
 0 312 l 1,14,-1
 0 375 l 1,15,-1
 0 438 l 1,16,-1
 0 500 l 1,17,-1
 0 562 l 1,18,-1
 0 625 l 1,19,-1
 62 625 l 1,20,-1
 125 625 l 1,21,-1
 188 625 l 1,22,-1
 250 625 l 1,23,-1
 250 562 l 1,24,-1
 188 562 l 1,25,-1
 125 562 l 1,26,-1
 125 500 l 1,27,-1
 125 438 l 1,28,-1
 125 375 l 1,29,-1
 125 312 l 1,30,-1
 125 250 l 1,31,-1
 125 188 l 1,32,-1
 125 125 l 1,33,-1
 125 62 l 1,34,-1
 125 0 l 1,35,-1
 125 -62 l 1,36,-1
 125 -125 l 1,37,-1
 188 -125 l 1,0,-1
EndSplineSet
Validated: 1
EndChar

StartChar: backslash
Encoding: 92 92 63
Width: 375
Flags: W
LayerCount: 2
Fore
SplineSet
250 0 m 1,0,-1
 250 62 l 1,1,-1
 250 125 l 1,2,-1
 312 125 l 1,3,-1
 312 62 l 1,4,-1
 312 0 l 1,5,-1
 250 0 l 1,0,-1
250 125 m 1,6,-1
 188 125 l 1,7,-1
 188 188 l 1,8,-1
 188 250 l 1,9,-1
 250 250 l 1,10,-1
 250 188 l 1,11,-1
 250 125 l 1,6,-1
188 250 m 1,12,-1
 125 250 l 1,13,-1
 125 312 l 1,14,-1
 125 375 l 1,15,-1
 188 375 l 1,16,-1
 188 312 l 1,17,-1
 188 250 l 1,12,-1
125 375 m 1,18,-1
 62 375 l 1,19,-1
 62 438 l 1,20,-1
 62 500 l 1,21,-1
 125 500 l 1,22,-1
 125 438 l 1,23,-1
 125 375 l 1,18,-1
62 500 m 1,24,-1
 0 500 l 1,25,-1
 0 562 l 1,26,-1
 0 625 l 1,27,-1
 62 625 l 1,28,-1
 62 562 l 1,29,-1
 62 500 l 1,24,-1
EndSplineSet
Validated: 5
EndChar

StartChar: bracketright
Encoding: 93 93 64
Width: 312
Flags: W
LayerCount: 2
Fore
SplineSet
188 -188 m 1,0,-1
 125 -188 l 1,1,-1
 62 -188 l 1,2,-1
 0 -188 l 1,3,-1
 0 -125 l 1,4,-1
 62 -125 l 1,5,-1
 125 -125 l 1,6,-1
 125 -62 l 1,7,-1
 125 0 l 1,8,-1
 125 62 l 1,9,-1
 125 125 l 1,10,-1
 125 188 l 1,11,-1
 125 250 l 1,12,-1
 125 312 l 1,13,-1
 125 375 l 1,14,-1
 125 438 l 1,15,-1
 125 500 l 1,16,-1
 125 562 l 1,17,-1
 62 562 l 1,18,-1
 0 562 l 1,19,-1
 0 625 l 1,20,-1
 62 625 l 1,21,-1
 125 625 l 1,22,-1
 188 625 l 1,23,-1
 250 625 l 1,24,-1
 250 562 l 1,25,-1
 250 500 l 1,26,-1
 250 438 l 1,27,-1
 250 375 l 1,28,-1
 250 312 l 1,29,-1
 250 250 l 1,30,-1
 250 188 l 1,31,-1
 250 125 l 1,32,-1
 250 62 l 1,33,-1
 250 0 l 1,34,-1
 250 -62 l 1,35,-1
 250 -125 l 1,36,-1
 250 -188 l 1,37,-1
 188 -188 l 1,0,-1
EndSplineSet
Validated: 1
EndChar

StartChar: asciicircum
Encoding: 94 94 65
Width: 375
Flags: W
LayerCount: 2
Fore
SplineSet
250 312 m 1,0,-1
 250 375 l 1,1,-1
 250 438 l 1,2,-1
 312 438 l 1,3,-1
 312 375 l 1,4,-1
 312 312 l 1,5,-1
 250 312 l 1,0,-1
0 312 m 1,6,-1
 0 375 l 1,7,-1
 0 438 l 1,8,-1
 62 438 l 1,9,-1
 62 375 l 1,10,-1
 62 312 l 1,11,-1
 0 312 l 1,6,-1
250 438 m 1,12,-1
 188 438 l 1,13,-1
 188 500 l 1,14,-1
 188 562 l 1,15,-1
 250 562 l 1,16,-1
 250 500 l 1,17,-1
 250 438 l 1,12,-1
62 438 m 1,18,-1
 62 500 l 1,19,-1
 62 562 l 1,20,-1
 125 562 l 1,21,-1
 125 500 l 1,22,-1
 125 438 l 1,23,-1
 62 438 l 1,18,-1
188 562 m 1,24,-1
 125 562 l 1,25,-1
 125 625 l 1,26,-1
 188 625 l 1,27,-1
 188 562 l 1,24,-1
EndSplineSet
Validated: 5
EndChar

StartChar: underscore
Encoding: 95 95 66
Width: 437
Flags: W
LayerCount: 2
Fore
SplineSet
312 -125 m 1,0,-1
 375 -125 l 1,1,-1
 375 -188 l 1,2,-1
 312 -188 l 1,3,-1
 250 -188 l 1,4,-1
 188 -188 l 1,5,-1
 125 -188 l 1,6,-1
 62 -188 l 1,7,-1
 0 -188 l 1,8,-1
 0 -125 l 1,9,-1
 62 -125 l 1,10,-1
 125 -125 l 1,11,-1
 188 -125 l 1,12,-1
 250 -125 l 1,13,-1
 312 -125 l 1,0,-1
EndSplineSet
Validated: 1
EndChar

StartChar: grave
Encoding: 96 96 67
Width: 187
Flags: W
LayerCount: 2
Fore
SplineSet
62 438 m 1,0,-1
 62 500 l 1,1,-1
 0 500 l 1,2,-1
 0 562 l 1,3,-1
 0 625 l 1,4,-1
 62 625 l 1,5,-1
 125 625 l 1,6,-1
 125 562 l 1,7,-1
 125 500 l 1,8,-1
 125 438 l 1,9,-1
 62 438 l 1,0,-1
EndSplineSet
Validated: 1
EndChar

StartChar: a
Encoding: 97 97 68
Width: 500
Flags: W
LayerCount: 2
Fore
SplineSet
375 0 m 1,0,-1
 375 62 l 1,1,-1
 312 62 l 1,2,-1
 312 0 l 1,3,-1
 250 0 l 1,4,-1
 188 0 l 1,5,-1
 125 0 l 1,6,-1
 62 0 l 1,7,-1
 62 62 l 1,8,-1
 0 62 l 1,9,-1
 0 125 l 1,10,-1
 0 188 l 1,11,-1
 62 188 l 1,12,-1
 62 250 l 1,13,-1
 125 250 l 1,14,-1
 125 312 l 1,15,-1
 62 312 l 1,16,-1
 0 312 l 1,17,-1
 0 375 l 1,18,-1
 62 375 l 1,19,-1
 62 438 l 1,20,-1
 125 438 l 1,21,-1
 188 438 l 1,22,-1
 250 438 l 1,23,-1
 312 438 l 1,24,-1
 312 375 l 1,25,-1
 375 375 l 1,26,-1
 375 312 l 1,27,-1
 375 250 l 1,28,-1
 375 188 l 1,29,-1
 375 125 l 1,30,-1
 438 125 l 1,31,-1
 438 62 l 1,32,-1
 438 0 l 1,33,-1
 375 0 l 1,0,-1
188 62 m 1,34,-1
 250 62 l 1,35,-1
 250 125 l 1,36,-1
 250 188 l 1,37,-1
 250 250 l 1,38,-1
 188 250 l 1,39,-1
 188 188 l 1,40,-1
 125 188 l 1,41,-1
 125 125 l 1,42,-1
 125 62 l 1,43,-1
 188 62 l 1,34,-1
188 312 m 1,44,-1
 250 312 l 1,45,-1
 250 375 l 1,46,-1
 188 375 l 1,47,-1
 125 375 l 1,48,-1
 125 312 l 1,49,-1
 188 312 l 1,44,-1
EndSplineSet
Validated: 5
EndChar

StartChar: b
Encoding: 98 98 69
Width: 437
Flags: W
LayerCount: 2
Fore
SplineSet
250 0 m 1,0,-1
 188 0 l 1,1,-1
 125 0 l 1,2,-1
 62 0 l 1,3,-1
 0 0 l 1,4,-1
 0 62 l 1,5,-1
 0 125 l 1,6,-1
 0 188 l 1,7,-1
 0 250 l 1,8,-1
 0 312 l 1,9,-1
 0 375 l 1,10,-1
 0 438 l 1,11,-1
 0 500 l 1,12,-1
 0 562 l 1,13,-1
 62 562 l 1,14,-1
 62 625 l 1,15,-1
 125 625 l 1,16,-1
 125 562 l 1,17,-1
 125 500 l 1,18,-1
 125 438 l 1,19,-1
 125 375 l 1,20,-1
 188 375 l 1,21,-1
 188 438 l 1,22,-1
 250 438 l 1,23,-1
 312 438 l 1,24,-1
 312 375 l 1,25,-1
 375 375 l 1,26,-1
 375 312 l 1,27,-1
 375 250 l 1,28,-1
 375 188 l 1,29,-1
 375 125 l 1,30,-1
 375 62 l 1,31,-1
 312 62 l 1,32,-1
 312 0 l 1,33,-1
 250 0 l 1,0,-1
188 62 m 1,34,-1
 188 125 l 1,35,-1
 250 125 l 1,36,-1
 250 188 l 1,37,-1
 250 250 l 1,38,-1
 250 312 l 1,39,-1
 250 375 l 1,40,-1
 188 375 l 1,41,-1
 188 312 l 1,42,-1
 125 312 l 1,43,-1
 125 250 l 1,44,-1
 125 188 l 1,45,-1
 125 125 l 1,46,-1
 125 62 l 1,47,-1
 188 62 l 1,34,-1
EndSplineSet
Validated: 5
EndChar

StartChar: c
Encoding: 99 99 70
Width: 437
Flags: W
LayerCount: 2
Fore
SplineSet
250 0 m 1,0,-1
 188 0 l 1,1,-1
 125 0 l 1,2,-1
 62 0 l 1,3,-1
 62 62 l 1,4,-1
 0 62 l 1,5,-1
 0 125 l 1,6,-1
 0 188 l 1,7,-1
 0 250 l 1,8,-1
 0 312 l 1,9,-1
 62 312 l 1,10,-1
 62 375 l 1,11,-1
 125 375 l 1,12,-1
 125 438 l 1,13,-1
 188 438 l 1,14,-1
 250 438 l 1,15,-1
 312 438 l 1,16,-1
 312 375 l 1,17,-1
 375 375 l 1,18,-1
 375 312 l 1,19,-1
 312 312 l 1,20,-1
 250 312 l 1,21,-1
 250 375 l 1,22,-1
 188 375 l 1,23,-1
 188 312 l 1,24,-1
 125 312 l 1,25,-1
 125 250 l 1,26,-1
 125 188 l 1,27,-1
 125 125 l 1,28,-1
 188 125 l 1,29,-1
 188 62 l 1,30,-1
 250 62 l 1,31,-1
 250 125 l 1,32,-1
 312 125 l 1,33,-1
 375 125 l 1,34,-1
 375 62 l 1,35,-1
 312 62 l 1,36,-1
 312 0 l 1,37,-1
 250 0 l 1,0,-1
EndSplineSet
Validated: 1
EndChar

StartChar: d
Encoding: 100 100 71
Width: 500
Flags: W
LayerCount: 2
Fore
SplineSet
375 0 m 1,0,-1
 312 0 l 1,1,-1
 250 0 l 1,2,-1
 188 0 l 1,3,-1
 125 0 l 1,4,-1
 62 0 l 1,5,-1
 62 62 l 1,6,-1
 0 62 l 1,7,-1
 0 125 l 1,8,-1
 0 188 l 1,9,-1
 0 250 l 1,10,-1
 0 312 l 1,11,-1
 0 375 l 1,12,-1
 62 375 l 1,13,-1
 62 438 l 1,14,-1
 125 438 l 1,15,-1
 188 438 l 1,16,-1
 188 375 l 1,17,-1
 125 375 l 1,18,-1
 125 312 l 1,19,-1
 125 250 l 1,20,-1
 125 188 l 1,21,-1
 125 125 l 1,22,-1
 188 125 l 1,23,-1
 188 62 l 1,24,-1
 250 62 l 1,25,-1
 250 125 l 1,26,-1
 250 188 l 1,27,-1
 250 250 l 1,28,-1
 250 312 l 1,29,-1
 188 312 l 1,30,-1
 188 375 l 1,31,-1
 250 375 l 1,32,-1
 250 438 l 1,33,-1
 250 500 l 1,34,-1
 250 562 l 1,35,-1
 250 625 l 1,36,-1
 312 625 l 1,37,-1
 312 562 l 1,38,-1
 375 562 l 1,39,-1
 375 500 l 1,40,-1
 375 438 l 1,41,-1
 375 375 l 1,42,-1
 375 312 l 1,43,-1
 375 250 l 1,44,-1
 375 188 l 1,45,-1
 375 125 l 1,46,-1
 375 62 l 1,47,-1
 438 62 l 1,48,-1
 438 0 l 1,49,-1
 375 0 l 1,0,-1
EndSplineSet
Validated: 5
EndChar

StartChar: e
Encoding: 101 101 72
Width: 437
Flags: W
LayerCount: 2
Fore
SplineSet
250 0 m 1,0,-1
 188 0 l 1,1,-1
 125 0 l 1,2,-1
 62 0 l 1,3,-1
 62 62 l 1,4,-1
 0 62 l 1,5,-1
 0 125 l 1,6,-1
 0 188 l 1,7,-1
 0 250 l 1,8,-1
 0 312 l 1,9,-1
 62 312 l 1,10,-1
 62 375 l 1,11,-1
 125 375 l 1,12,-1
 125 438 l 1,13,-1
 188 438 l 1,14,-1
 250 438 l 1,15,-1
 312 438 l 1,16,-1
 312 375 l 1,17,-1
 375 375 l 1,18,-1
 375 312 l 1,19,-1
 312 312 l 1,20,-1
 312 250 l 1,21,-1
 250 250 l 1,22,-1
 250 312 l 1,23,-1
 250 375 l 1,24,-1
 188 375 l 1,25,-1
 188 312 l 1,26,-1
 125 312 l 1,27,-1
 125 250 l 1,28,-1
 188 250 l 1,29,-1
 250 250 l 1,30,-1
 250 188 l 1,31,-1
 188 188 l 1,32,-1
 125 188 l 1,33,-1
 125 125 l 1,34,-1
 188 125 l 1,35,-1
 188 62 l 1,36,-1
 250 62 l 1,37,-1
 250 125 l 1,38,-1
 312 125 l 1,39,-1
 312 188 l 1,40,-1
 375 188 l 1,41,-1
 375 125 l 1,42,-1
 375 62 l 1,43,-1
 312 62 l 1,44,-1
 312 0 l 1,45,-1
 250 0 l 1,0,-1
EndSplineSet
Validated: 5
EndChar

StartChar: f
Encoding: 102 102 73
Width: 375
Flags: W
LayerCount: 2
Fore
SplineSet
250 500 m 1,0,-1
 250 562 l 1,1,-1
 312 562 l 1,2,-1
 312 500 l 1,3,-1
 250 500 l 1,0,-1
188 0 m 1,4,-1
 125 0 l 1,5,-1
 62 0 l 1,6,-1
 0 0 l 1,7,-1
 0 62 l 1,8,-1
 62 62 l 1,9,-1
 62 125 l 1,10,-1
 62 188 l 1,11,-1
 62 250 l 1,12,-1
 62 312 l 1,13,-1
 62 375 l 1,14,-1
 0 375 l 1,15,-1
 0 438 l 1,16,-1
 62 438 l 1,17,-1
 62 500 l 1,18,-1
 62 562 l 1,19,-1
 125 562 l 1,20,-1
 125 625 l 1,21,-1
 188 625 l 1,22,-1
 250 625 l 1,23,-1
 250 562 l 1,24,-1
 188 562 l 1,25,-1
 188 500 l 1,26,-1
 188 438 l 1,27,-1
 250 438 l 1,28,-1
 250 375 l 1,29,-1
 188 375 l 1,30,-1
 188 312 l 1,31,-1
 188 250 l 1,32,-1
 188 188 l 1,33,-1
 188 125 l 1,34,-1
 188 62 l 1,35,-1
 250 62 l 1,36,-1
 250 0 l 1,37,-1
 188 0 l 1,4,-1
EndSplineSet
Validated: 5
EndChar

StartChar: g
Encoding: 103 103 74
Width: 437
Flags: W
LayerCount: 2
Fore
SplineSet
250 -188 m 1,0,-1
 188 -188 l 1,1,-1
 125 -188 l 1,2,-1
 62 -188 l 1,3,-1
 62 -125 l 1,4,-1
 0 -125 l 1,5,-1
 0 -62 l 1,6,-1
 62 -62 l 1,7,-1
 125 -62 l 1,8,-1
 125 -125 l 1,9,-1
 188 -125 l 1,10,-1
 250 -125 l 1,11,-1
 250 -62 l 1,12,-1
 250 0 l 1,13,-1
 188 0 l 1,14,-1
 125 0 l 1,15,-1
 62 0 l 1,16,-1
 62 62 l 1,17,-1
 0 62 l 1,18,-1
 0 125 l 1,19,-1
 0 188 l 1,20,-1
 0 250 l 1,21,-1
 0 312 l 1,22,-1
 0 375 l 1,23,-1
 62 375 l 1,24,-1
 62 438 l 1,25,-1
 125 438 l 1,26,-1
 188 438 l 1,27,-1
 188 375 l 1,28,-1
 125 375 l 1,29,-1
 125 312 l 1,30,-1
 125 250 l 1,31,-1
 125 188 l 1,32,-1
 125 125 l 1,33,-1
 188 125 l 1,34,-1
 188 62 l 1,35,-1
 250 62 l 1,36,-1
 250 125 l 1,37,-1
 250 188 l 1,38,-1
 250 250 l 1,39,-1
 250 312 l 1,40,-1
 188 312 l 1,41,-1
 188 375 l 1,42,-1
 250 375 l 1,43,-1
 250 438 l 1,44,-1
 312 438 l 1,45,-1
 375 438 l 1,46,-1
 375 375 l 1,47,-1
 375 312 l 1,48,-1
 375 250 l 1,49,-1
 375 188 l 1,50,-1
 375 125 l 1,51,-1
 375 62 l 1,52,-1
 375 0 l 1,53,-1
 375 -62 l 1,54,-1
 375 -125 l 1,55,-1
 312 -125 l 1,56,-1
 312 -188 l 1,57,-1
 250 -188 l 1,0,-1
EndSplineSet
Validated: 5
EndChar

StartChar: h
Encoding: 104 104 75
Width: 437
Flags: W
LayerCount: 2
Fore
SplineSet
312 0 m 1,0,-1
 250 0 l 1,1,-1
 250 62 l 1,2,-1
 250 125 l 1,3,-1
 250 188 l 1,4,-1
 250 250 l 1,5,-1
 250 312 l 1,6,-1
 250 375 l 1,7,-1
 188 375 l 1,8,-1
 188 312 l 1,9,-1
 125 312 l 1,10,-1
 125 250 l 1,11,-1
 125 188 l 1,12,-1
 125 125 l 1,13,-1
 125 62 l 1,14,-1
 125 0 l 1,15,-1
 62 0 l 1,16,-1
 0 0 l 1,17,-1
 0 62 l 1,18,-1
 0 125 l 1,19,-1
 0 188 l 1,20,-1
 0 250 l 1,21,-1
 0 312 l 1,22,-1
 0 375 l 1,23,-1
 0 438 l 1,24,-1
 0 500 l 1,25,-1
 0 562 l 1,26,-1
 0 625 l 1,27,-1
 62 625 l 1,28,-1
 125 625 l 1,29,-1
 125 562 l 1,30,-1
 125 500 l 1,31,-1
 125 438 l 1,32,-1
 125 375 l 1,33,-1
 188 375 l 1,34,-1
 188 438 l 1,35,-1
 250 438 l 1,36,-1
 312 438 l 1,37,-1
 312 375 l 1,38,-1
 375 375 l 1,39,-1
 375 312 l 1,40,-1
 375 250 l 1,41,-1
 375 188 l 1,42,-1
 375 125 l 1,43,-1
 375 62 l 1,44,-1
 375 0 l 1,45,-1
 312 0 l 1,0,-1
EndSplineSet
Validated: 5
EndChar

StartChar: i
Encoding: 105 105 76
Width: 187
Flags: W
LayerCount: 2
Fore
SplineSet
0 0 m 1,0,-1
 0 62 l 1,1,-1
 0 125 l 1,2,-1
 0 188 l 1,3,-1
 0 250 l 1,4,-1
 0 312 l 1,5,-1
 0 375 l 1,6,-1
 62 375 l 1,7,-1
 62 438 l 1,8,-1
 125 438 l 1,9,-1
 125 375 l 1,10,-1
 125 312 l 1,11,-1
 125 250 l 1,12,-1
 125 188 l 1,13,-1
 125 125 l 1,14,-1
 125 62 l 1,15,-1
 62 62 l 1,16,-1
 62 0 l 1,17,-1
 0 0 l 1,0,-1
62 500 m 1,18,-1
 0 500 l 1,19,-1
 0 562 l 1,20,-1
 0 625 l 1,21,-1
 62 625 l 1,22,-1
 125 625 l 1,23,-1
 125 562 l 1,24,-1
 125 500 l 1,25,-1
 62 500 l 1,18,-1
EndSplineSet
Validated: 1
EndChar

StartChar: j
Encoding: 106 106 77
Width: 312
Flags: W
LayerCount: 2
Fore
SplineSet
62 -188 m 1,0,-1
 0 -188 l 1,1,-1
 0 -125 l 1,2,-1
 62 -125 l 1,3,-1
 62 -62 l 1,4,-1
 62 0 l 1,5,-1
 62 62 l 1,6,-1
 62 125 l 1,7,-1
 62 188 l 1,8,-1
 62 250 l 1,9,-1
 62 312 l 1,10,-1
 0 312 l 1,11,-1
 0 375 l 1,12,-1
 62 375 l 1,13,-1
 125 375 l 1,14,-1
 125 438 l 1,15,-1
 188 438 l 1,16,-1
 250 438 l 1,17,-1
 250 375 l 1,18,-1
 188 375 l 1,19,-1
 188 312 l 1,20,-1
 188 250 l 1,21,-1
 188 188 l 1,22,-1
 188 125 l 1,23,-1
 188 62 l 1,24,-1
 188 0 l 1,25,-1
 188 -62 l 1,26,-1
 188 -125 l 1,27,-1
 125 -125 l 1,28,-1
 125 -188 l 1,29,-1
 62 -188 l 1,0,-1
0 -125 m 1,30,-1
 -62 -125 l 1,31,-1
 -62 -62 l 1,32,-1
 0 -62 l 1,33,-1
 0 -125 l 1,30,-1
125 500 m 1,34,-1
 62 500 l 1,35,-1
 62 562 l 1,36,-1
 62 625 l 1,37,-1
 125 625 l 1,38,-1
 188 625 l 1,39,-1
 188 562 l 1,40,-1
 188 500 l 1,41,-1
 125 500 l 1,34,-1
EndSplineSet
Validated: 5
EndChar

StartChar: k
Encoding: 107 107 78
Width: 500
Flags: W
LayerCount: 2
Fore
SplineSet
375 0 m 1,0,-1
 375 62 l 1,1,-1
 312 62 l 1,2,-1
 312 125 l 1,3,-1
 250 125 l 1,4,-1
 250 188 l 1,5,-1
 188 188 l 1,6,-1
 188 250 l 1,7,-1
 125 250 l 1,8,-1
 125 188 l 1,9,-1
 125 125 l 1,10,-1
 125 62 l 1,11,-1
 125 0 l 1,12,-1
 62 0 l 1,13,-1
 0 0 l 1,14,-1
 0 62 l 1,15,-1
 0 125 l 1,16,-1
 0 188 l 1,17,-1
 0 250 l 1,18,-1
 0 312 l 1,19,-1
 0 375 l 1,20,-1
 0 438 l 1,21,-1
 0 500 l 1,22,-1
 0 562 l 1,23,-1
 0 625 l 1,24,-1
 62 625 l 1,25,-1
 125 625 l 1,26,-1
 125 562 l 1,27,-1
 125 500 l 1,28,-1
 125 438 l 1,29,-1
 125 375 l 1,30,-1
 125 312 l 1,31,-1
 188 312 l 1,32,-1
 188 375 l 1,33,-1
 250 375 l 1,34,-1
 250 438 l 1,35,-1
 312 438 l 1,36,-1
 312 500 l 1,37,-1
 375 500 l 1,38,-1
 438 500 l 1,39,-1
 438 438 l 1,40,-1
 375 438 l 1,41,-1
 375 375 l 1,42,-1
 312 375 l 1,43,-1
 312 312 l 1,44,-1
 250 312 l 1,45,-1
 250 250 l 1,46,-1
 312 250 l 1,47,-1
 312 188 l 1,48,-1
 375 188 l 1,49,-1
 375 125 l 1,50,-1
 438 125 l 1,51,-1
 438 62 l 1,52,-1
 438 0 l 1,53,-1
 375 0 l 1,0,-1
EndSplineSet
Validated: 1
EndChar

StartChar: l
Encoding: 108 108 79
Width: 187
Flags: W
LayerCount: 2
Fore
SplineSet
62 0 m 1,0,-1
 0 0 l 1,1,-1
 0 62 l 1,2,-1
 0 125 l 1,3,-1
 0 188 l 1,4,-1
 0 250 l 1,5,-1
 0 312 l 1,6,-1
 0 375 l 1,7,-1
 0 438 l 1,8,-1
 0 500 l 1,9,-1
 0 562 l 1,10,-1
 -62 562 l 1,11,-1
 -62 625 l 1,12,-1
 0 625 l 1,13,-1
 62 625 l 1,14,-1
 125 625 l 1,15,-1
 125 562 l 1,16,-1
 125 500 l 1,17,-1
 125 438 l 1,18,-1
 125 375 l 1,19,-1
 125 312 l 1,20,-1
 125 250 l 1,21,-1
 125 188 l 1,22,-1
 125 125 l 1,23,-1
 125 62 l 1,24,-1
 125 0 l 1,25,-1
 62 0 l 1,0,-1
EndSplineSet
Validated: 1
EndChar

StartChar: m
Encoding: 109 109 80
Width: 687
Flags: W
LayerCount: 2
Fore
SplineSet
562 0 m 1,0,-1
 500 0 l 1,1,-1
 500 62 l 1,2,-1
 500 125 l 1,3,-1
 500 188 l 1,4,-1
 500 250 l 1,5,-1
 500 312 l 1,6,-1
 500 375 l 1,7,-1
 438 375 l 1,8,-1
 438 312 l 1,9,-1
 375 312 l 1,10,-1
 375 250 l 1,11,-1
 375 188 l 1,12,-1
 375 125 l 1,13,-1
 375 62 l 1,14,-1
 375 0 l 1,15,-1
 312 0 l 1,16,-1
 250 0 l 1,17,-1
 250 62 l 1,18,-1
 250 125 l 1,19,-1
 250 188 l 1,20,-1
 250 250 l 1,21,-1
 250 312 l 1,22,-1
 250 375 l 1,23,-1
 188 375 l 1,24,-1
 188 312 l 1,25,-1
 125 312 l 1,26,-1
 125 250 l 1,27,-1
 125 188 l 1,28,-1
 125 125 l 1,29,-1
 125 62 l 1,30,-1
 125 0 l 1,31,-1
 62 0 l 1,32,-1
 0 0 l 1,33,-1
 0 62 l 1,34,-1
 0 125 l 1,35,-1
 0 188 l 1,36,-1
 0 250 l 1,37,-1
 0 312 l 1,38,-1
 0 375 l 1,39,-1
 0 438 l 1,40,-1
 62 438 l 1,41,-1
 125 438 l 1,42,-1
 125 375 l 1,43,-1
 188 375 l 1,44,-1
 188 438 l 1,45,-1
 250 438 l 1,46,-1
 312 438 l 1,47,-1
 375 438 l 1,48,-1
 375 375 l 1,49,-1
 438 375 l 1,50,-1
 438 438 l 1,51,-1
 500 438 l 1,52,-1
 562 438 l 1,53,-1
 562 375 l 1,54,-1
 625 375 l 1,55,-1
 625 312 l 1,56,-1
 625 250 l 1,57,-1
 625 188 l 1,58,-1
 625 125 l 1,59,-1
 625 62 l 1,60,-1
 625 0 l 1,61,-1
 562 0 l 1,0,-1
EndSplineSet
Validated: 5
EndChar

StartChar: n
Encoding: 110 110 81
Width: 437
Flags: W
LayerCount: 2
Fore
SplineSet
312 0 m 1,0,-1
 250 0 l 1,1,-1
 250 62 l 1,2,-1
 250 125 l 1,3,-1
 250 188 l 1,4,-1
 250 250 l 1,5,-1
 250 312 l 1,6,-1
 250 375 l 1,7,-1
 188 375 l 1,8,-1
 188 312 l 1,9,-1
 125 312 l 1,10,-1
 125 250 l 1,11,-1
 125 188 l 1,12,-1
 125 125 l 1,13,-1
 125 62 l 1,14,-1
 125 0 l 1,15,-1
 62 0 l 1,16,-1
 0 0 l 1,17,-1
 0 62 l 1,18,-1
 0 125 l 1,19,-1
 0 188 l 1,20,-1
 0 250 l 1,21,-1
 0 312 l 1,22,-1
 0 375 l 1,23,-1
 0 438 l 1,24,-1
 62 438 l 1,25,-1
 125 438 l 1,26,-1
 125 375 l 1,27,-1
 188 375 l 1,28,-1
 188 438 l 1,29,-1
 250 438 l 1,30,-1
 312 438 l 1,31,-1
 312 375 l 1,32,-1
 375 375 l 1,33,-1
 375 312 l 1,34,-1
 375 250 l 1,35,-1
 375 188 l 1,36,-1
 375 125 l 1,37,-1
 375 62 l 1,38,-1
 375 0 l 1,39,-1
 312 0 l 1,0,-1
EndSplineSet
Validated: 5
EndChar

StartChar: o
Encoding: 111 111 82
Width: 500
Flags: W
LayerCount: 2
Fore
SplineSet
312 0 m 1,0,-1
 250 0 l 1,1,-1
 188 0 l 1,2,-1
 125 0 l 1,3,-1
 125 62 l 1,4,-1
 62 62 l 1,5,-1
 62 125 l 1,6,-1
 0 125 l 1,7,-1
 0 188 l 1,8,-1
 0 250 l 1,9,-1
 0 312 l 1,10,-1
 0 375 l 1,11,-1
 62 375 l 1,12,-1
 62 438 l 1,13,-1
 125 438 l 1,14,-1
 188 438 l 1,15,-1
 250 438 l 1,16,-1
 312 438 l 1,17,-1
 312 375 l 1,18,-1
 375 375 l 1,19,-1
 375 312 l 1,20,-1
 438 312 l 1,21,-1
 438 250 l 1,22,-1
 438 188 l 1,23,-1
 438 125 l 1,24,-1
 438 62 l 1,25,-1
 375 62 l 1,26,-1
 375 0 l 1,27,-1
 312 0 l 1,0,-1
312 62 m 1,28,-1
 312 125 l 1,29,-1
 312 188 l 1,30,-1
 312 250 l 1,31,-1
 250 250 l 1,32,-1
 250 312 l 1,33,-1
 188 312 l 1,34,-1
 188 375 l 1,35,-1
 125 375 l 1,36,-1
 125 312 l 1,37,-1
 125 250 l 1,38,-1
 125 188 l 1,39,-1
 188 188 l 1,40,-1
 188 125 l 1,41,-1
 250 125 l 1,42,-1
 250 62 l 1,43,-1
 312 62 l 1,28,-1
EndSplineSet
Validated: 1
EndChar

StartChar: p
Encoding: 112 112 83
Width: 437
Flags: W
LayerCount: 2
Fore
SplineSet
62 -188 m 1,0,-1
 0 -188 l 1,1,-1
 0 -125 l 1,2,-1
 0 -62 l 1,3,-1
 0 0 l 1,4,-1
 0 62 l 1,5,-1
 0 125 l 1,6,-1
 0 188 l 1,7,-1
 0 250 l 1,8,-1
 0 312 l 1,9,-1
 0 375 l 1,10,-1
 0 438 l 1,11,-1
 62 438 l 1,12,-1
 125 438 l 1,13,-1
 125 375 l 1,14,-1
 188 375 l 1,15,-1
 188 438 l 1,16,-1
 250 438 l 1,17,-1
 312 438 l 1,18,-1
 312 375 l 1,19,-1
 375 375 l 1,20,-1
 375 312 l 1,21,-1
 375 250 l 1,22,-1
 375 188 l 1,23,-1
 375 125 l 1,24,-1
 375 62 l 1,25,-1
 312 62 l 1,26,-1
 312 0 l 1,27,-1
 250 0 l 1,28,-1
 188 0 l 1,29,-1
 125 0 l 1,30,-1
 125 -62 l 1,31,-1
 125 -125 l 1,32,-1
 125 -188 l 1,33,-1
 62 -188 l 1,0,-1
188 62 m 1,34,-1
 188 125 l 1,35,-1
 250 125 l 1,36,-1
 250 188 l 1,37,-1
 250 250 l 1,38,-1
 250 312 l 1,39,-1
 250 375 l 1,40,-1
 188 375 l 1,41,-1
 188 312 l 1,42,-1
 125 312 l 1,43,-1
 125 250 l 1,44,-1
 125 188 l 1,45,-1
 125 125 l 1,46,-1
 125 62 l 1,47,-1
 188 62 l 1,34,-1
EndSplineSet
Validated: 5
EndChar

StartChar: q
Encoding: 113 113 84
Width: 437
Flags: W
LayerCount: 2
Fore
SplineSet
312 -188 m 1,0,-1
 250 -188 l 1,1,-1
 250 -125 l 1,2,-1
 250 -62 l 1,3,-1
 250 0 l 1,4,-1
 188 0 l 1,5,-1
 125 0 l 1,6,-1
 62 0 l 1,7,-1
 62 62 l 1,8,-1
 0 62 l 1,9,-1
 0 125 l 1,10,-1
 0 188 l 1,11,-1
 0 250 l 1,12,-1
 0 312 l 1,13,-1
 0 375 l 1,14,-1
 62 375 l 1,15,-1
 62 438 l 1,16,-1
 125 438 l 1,17,-1
 188 438 l 1,18,-1
 188 375 l 1,19,-1
 125 375 l 1,20,-1
 125 312 l 1,21,-1
 125 250 l 1,22,-1
 125 188 l 1,23,-1
 125 125 l 1,24,-1
 188 125 l 1,25,-1
 188 62 l 1,26,-1
 250 62 l 1,27,-1
 250 125 l 1,28,-1
 250 188 l 1,29,-1
 250 250 l 1,30,-1
 250 312 l 1,31,-1
 188 312 l 1,32,-1
 188 375 l 1,33,-1
 250 375 l 1,34,-1
 250 438 l 1,35,-1
 312 438 l 1,36,-1
 375 438 l 1,37,-1
 375 375 l 1,38,-1
 375 312 l 1,39,-1
 375 250 l 1,40,-1
 375 188 l 1,41,-1
 375 125 l 1,42,-1
 375 62 l 1,43,-1
 375 0 l 1,44,-1
 375 -62 l 1,45,-1
 375 -125 l 1,46,-1
 375 -188 l 1,47,-1
 312 -188 l 1,0,-1
EndSplineSet
Validated: 5
EndChar

StartChar: r
Encoding: 114 114 85
Width: 375
Flags: W
LayerCount: 2
Fore
SplineSet
250 312 m 1,0,-1
 250 375 l 1,1,-1
 188 375 l 1,2,-1
 188 312 l 1,3,-1
 125 312 l 1,4,-1
 125 250 l 1,5,-1
 125 188 l 1,6,-1
 125 125 l 1,7,-1
 125 62 l 1,8,-1
 125 0 l 1,9,-1
 62 0 l 1,10,-1
 0 0 l 1,11,-1
 0 62 l 1,12,-1
 0 125 l 1,13,-1
 0 188 l 1,14,-1
 0 250 l 1,15,-1
 0 312 l 1,16,-1
 0 375 l 1,17,-1
 0 438 l 1,18,-1
 62 438 l 1,19,-1
 62 375 l 1,20,-1
 125 375 l 1,21,-1
 125 438 l 1,22,-1
 188 438 l 1,23,-1
 250 438 l 1,24,-1
 312 438 l 1,25,-1
 312 375 l 1,26,-1
 312 312 l 1,27,-1
 250 312 l 1,0,-1
EndSplineSet
Validated: 1
EndChar

StartChar: s
Encoding: 115 115 86
Width: 437
Flags: W
LayerCount: 2
Fore
SplineSet
250 0 m 1,0,-1
 188 0 l 1,1,-1
 125 0 l 1,2,-1
 62 0 l 1,3,-1
 62 62 l 1,4,-1
 0 62 l 1,5,-1
 0 125 l 1,6,-1
 62 125 l 1,7,-1
 125 125 l 1,8,-1
 125 62 l 1,9,-1
 188 62 l 1,10,-1
 250 62 l 1,11,-1
 250 125 l 1,12,-1
 188 125 l 1,13,-1
 188 188 l 1,14,-1
 125 188 l 1,15,-1
 62 188 l 1,16,-1
 62 250 l 1,17,-1
 0 250 l 1,18,-1
 0 312 l 1,19,-1
 0 375 l 1,20,-1
 62 375 l 1,21,-1
 62 438 l 1,22,-1
 125 438 l 1,23,-1
 188 438 l 1,24,-1
 250 438 l 1,25,-1
 312 438 l 1,26,-1
 312 375 l 1,27,-1
 375 375 l 1,28,-1
 375 312 l 1,29,-1
 312 312 l 1,30,-1
 250 312 l 1,31,-1
 250 375 l 1,32,-1
 188 375 l 1,33,-1
 125 375 l 1,34,-1
 125 312 l 1,35,-1
 188 312 l 1,36,-1
 188 250 l 1,37,-1
 250 250 l 1,38,-1
 312 250 l 1,39,-1
 312 188 l 1,40,-1
 375 188 l 1,41,-1
 375 125 l 1,42,-1
 375 62 l 1,43,-1
 312 62 l 1,44,-1
 312 0 l 1,45,-1
 250 0 l 1,0,-1
EndSplineSet
Validated: 1
EndChar

StartChar: t
Encoding: 116 116 87
Width: 250
Flags: W
LayerCount: 2
Fore
SplineSet
125 0 m 1,0,-1
 62 0 l 1,1,-1
 62 62 l 1,2,-1
 0 62 l 1,3,-1
 0 125 l 1,4,-1
 0 188 l 1,5,-1
 0 250 l 1,6,-1
 0 312 l 1,7,-1
 0 375 l 1,8,-1
 0 438 l 1,9,-1
 -62 438 l 1,10,-1
 -62 500 l 1,11,-1
 0 500 l 1,12,-1
 0 562 l 1,13,-1
 0 625 l 1,14,-1
 62 625 l 1,15,-1
 125 625 l 1,16,-1
 125 562 l 1,17,-1
 125 500 l 1,18,-1
 188 500 l 1,19,-1
 188 438 l 1,20,-1
 125 438 l 1,21,-1
 125 375 l 1,22,-1
 125 312 l 1,23,-1
 125 250 l 1,24,-1
 125 188 l 1,25,-1
 125 125 l 1,26,-1
 125 62 l 1,27,-1
 188 62 l 1,28,-1
 188 0 l 1,29,-1
 125 0 l 1,0,-1
EndSplineSet
Validated: 1
EndChar

StartChar: u
Encoding: 117 117 88
Width: 500
Flags: W
LayerCount: 2
Fore
SplineSet
375 0 m 1,0,-1
 312 0 l 1,1,-1
 250 0 l 1,2,-1
 250 62 l 1,3,-1
 188 62 l 1,4,-1
 188 0 l 1,5,-1
 125 0 l 1,6,-1
 62 0 l 1,7,-1
 62 62 l 1,8,-1
 0 62 l 1,9,-1
 0 125 l 1,10,-1
 0 188 l 1,11,-1
 0 250 l 1,12,-1
 0 312 l 1,13,-1
 62 312 l 1,14,-1
 62 375 l 1,15,-1
 62 438 l 1,16,-1
 125 438 l 1,17,-1
 188 438 l 1,18,-1
 188 375 l 1,19,-1
 188 312 l 1,20,-1
 125 312 l 1,21,-1
 125 250 l 1,22,-1
 125 188 l 1,23,-1
 125 125 l 1,24,-1
 125 62 l 1,25,-1
 188 62 l 1,26,-1
 188 125 l 1,27,-1
 250 125 l 1,28,-1
 250 188 l 1,29,-1
 250 250 l 1,30,-1
 250 312 l 1,31,-1
 250 375 l 1,32,-1
 250 438 l 1,33,-1
 312 438 l 1,34,-1
 375 438 l 1,35,-1
 375 375 l 1,36,-1
 375 312 l 1,37,-1
 375 250 l 1,38,-1
 375 188 l 1,39,-1
 375 125 l 1,40,-1
 375 62 l 1,41,-1
 438 62 l 1,42,-1
 438 0 l 1,43,-1
 375 0 l 1,0,-1
EndSplineSet
Validated: 5
EndChar

StartChar: v
Encoding: 118 118 89
Width: 437
Flags: W
LayerCount: 2
Fore
SplineSet
188 0 m 1,0,-1
 125 0 l 1,1,-1
 125 62 l 1,2,-1
 62 62 l 1,3,-1
 62 125 l 1,4,-1
 62 188 l 1,5,-1
 0 188 l 1,6,-1
 0 250 l 1,7,-1
 0 312 l 1,8,-1
 0 375 l 1,9,-1
 0 438 l 1,10,-1
 62 438 l 1,11,-1
 125 438 l 1,12,-1
 125 375 l 1,13,-1
 125 312 l 1,14,-1
 125 250 l 1,15,-1
 125 188 l 1,16,-1
 188 188 l 1,17,-1
 250 188 l 1,18,-1
 250 250 l 1,19,-1
 250 312 l 1,20,-1
 250 375 l 1,21,-1
 250 438 l 1,22,-1
 312 438 l 1,23,-1
 375 438 l 1,24,-1
 375 375 l 1,25,-1
 375 312 l 1,26,-1
 375 250 l 1,27,-1
 375 188 l 1,28,-1
 312 188 l 1,29,-1
 312 125 l 1,30,-1
 312 62 l 1,31,-1
 250 62 l 1,32,-1
 250 0 l 1,33,-1
 188 0 l 1,0,-1
EndSplineSet
Validated: 1
EndChar

StartChar: w
Encoding: 119 119 90
Width: 687
Flags: W
LayerCount: 2
Fore
SplineSet
438 0 m 1,0,-1
 375 0 l 1,1,-1
 375 62 l 1,2,-1
 312 62 l 1,3,-1
 250 62 l 1,4,-1
 250 0 l 1,5,-1
 188 0 l 1,6,-1
 125 0 l 1,7,-1
 125 62 l 1,8,-1
 62 62 l 1,9,-1
 62 125 l 1,10,-1
 62 188 l 1,11,-1
 0 188 l 1,12,-1
 0 250 l 1,13,-1
 0 312 l 1,14,-1
 0 375 l 1,15,-1
 0 438 l 1,16,-1
 62 438 l 1,17,-1
 125 438 l 1,18,-1
 125 375 l 1,19,-1
 125 312 l 1,20,-1
 125 250 l 1,21,-1
 125 188 l 1,22,-1
 188 188 l 1,23,-1
 188 125 l 1,24,-1
 250 125 l 1,25,-1
 250 188 l 1,26,-1
 250 250 l 1,27,-1
 250 312 l 1,28,-1
 312 312 l 1,29,-1
 375 312 l 1,30,-1
 375 250 l 1,31,-1
 375 188 l 1,32,-1
 375 125 l 1,33,-1
 438 125 l 1,34,-1
 438 188 l 1,35,-1
 500 188 l 1,36,-1
 500 250 l 1,37,-1
 500 312 l 1,38,-1
 500 375 l 1,39,-1
 500 438 l 1,40,-1
 562 438 l 1,41,-1
 625 438 l 1,42,-1
 625 375 l 1,43,-1
 625 312 l 1,44,-1
 625 250 l 1,45,-1
 625 188 l 1,46,-1
 562 188 l 1,47,-1
 562 125 l 1,48,-1
 562 62 l 1,49,-1
 500 62 l 1,50,-1
 500 0 l 1,51,-1
 438 0 l 1,0,-1
EndSplineSet
Validated: 1
EndChar

StartChar: x
Encoding: 120 120 91
Width: 437
Flags: W
LayerCount: 2
Fore
SplineSet
312 0 m 1,0,-1
 250 0 l 1,1,-1
 250 62 l 1,2,-1
 250 125 l 1,3,-1
 188 125 l 1,4,-1
 125 125 l 1,5,-1
 125 62 l 1,6,-1
 125 0 l 1,7,-1
 62 0 l 1,8,-1
 0 0 l 1,9,-1
 0 62 l 1,10,-1
 0 125 l 1,11,-1
 62 125 l 1,12,-1
 62 188 l 1,13,-1
 125 188 l 1,14,-1
 125 250 l 1,15,-1
 62 250 l 1,16,-1
 62 312 l 1,17,-1
 0 312 l 1,18,-1
 0 375 l 1,19,-1
 0 438 l 1,20,-1
 62 438 l 1,21,-1
 125 438 l 1,22,-1
 125 375 l 1,23,-1
 125 312 l 1,24,-1
 188 312 l 1,25,-1
 250 312 l 1,26,-1
 250 375 l 1,27,-1
 250 438 l 1,28,-1
 312 438 l 1,29,-1
 375 438 l 1,30,-1
 375 375 l 1,31,-1
 375 312 l 1,32,-1
 312 312 l 1,33,-1
 312 250 l 1,34,-1
 250 250 l 1,35,-1
 250 188 l 1,36,-1
 312 188 l 1,37,-1
 312 125 l 1,38,-1
 375 125 l 1,39,-1
 375 62 l 1,40,-1
 375 0 l 1,41,-1
 312 0 l 1,0,-1
EndSplineSet
Validated: 1
EndChar

StartChar: y
Encoding: 121 121 92
Width: 562
Flags: W
LayerCount: 2
Fore
SplineSet
125 -188 m 1,0,-1
 62 -188 l 1,1,-1
 62 -125 l 1,2,-1
 125 -125 l 1,3,-1
 125 -62 l 1,4,-1
 188 -62 l 1,5,-1
 188 0 l 1,6,-1
 188 62 l 1,7,-1
 125 62 l 1,8,-1
 125 125 l 1,9,-1
 125 188 l 1,10,-1
 62 188 l 1,11,-1
 62 250 l 1,12,-1
 62 312 l 1,13,-1
 0 312 l 1,14,-1
 0 375 l 1,15,-1
 0 438 l 1,16,-1
 62 438 l 1,17,-1
 125 438 l 1,18,-1
 125 375 l 1,19,-1
 125 312 l 1,20,-1
 188 312 l 1,21,-1
 188 250 l 1,22,-1
 188 188 l 1,23,-1
 250 188 l 1,24,-1
 312 188 l 1,25,-1
 312 250 l 1,26,-1
 312 312 l 1,27,-1
 375 312 l 1,28,-1
 375 375 l 1,29,-1
 375 438 l 1,30,-1
 438 438 l 1,31,-1
 500 438 l 1,32,-1
 500 375 l 1,33,-1
 500 312 l 1,34,-1
 438 312 l 1,35,-1
 438 250 l 1,36,-1
 438 188 l 1,37,-1
 375 188 l 1,38,-1
 375 125 l 1,39,-1
 375 62 l 1,40,-1
 312 62 l 1,41,-1
 312 0 l 1,42,-1
 312 -62 l 1,43,-1
 250 -62 l 1,44,-1
 250 -125 l 1,45,-1
 188 -125 l 1,46,-1
 188 -188 l 1,47,-1
 125 -188 l 1,0,-1
EndSplineSet
Validated: 1
EndChar

StartChar: z
Encoding: 122 122 93
Width: 500
Flags: W
LayerCount: 2
Fore
SplineSet
312 0 m 1,0,-1
 250 0 l 1,1,-1
 188 0 l 1,2,-1
 125 0 l 1,3,-1
 62 0 l 1,4,-1
 0 0 l 1,5,-1
 0 62 l 1,6,-1
 0 125 l 1,7,-1
 62 125 l 1,8,-1
 62 188 l 1,9,-1
 125 188 l 1,10,-1
 125 250 l 1,11,-1
 188 250 l 1,12,-1
 250 250 l 1,13,-1
 250 312 l 1,14,-1
 312 312 l 1,15,-1
 312 375 l 1,16,-1
 250 375 l 1,17,-1
 188 375 l 1,18,-1
 125 375 l 1,19,-1
 125 312 l 1,20,-1
 62 312 l 1,21,-1
 0 312 l 1,22,-1
 0 375 l 1,23,-1
 62 375 l 1,24,-1
 62 438 l 1,25,-1
 125 438 l 1,26,-1
 188 438 l 1,27,-1
 250 438 l 1,28,-1
 312 438 l 1,29,-1
 375 438 l 1,30,-1
 438 438 l 1,31,-1
 438 375 l 1,32,-1
 438 312 l 1,33,-1
 375 312 l 1,34,-1
 375 250 l 1,35,-1
 312 250 l 1,36,-1
 312 188 l 1,37,-1
 250 188 l 1,38,-1
 188 188 l 1,39,-1
 188 125 l 1,40,-1
 125 125 l 1,41,-1
 125 62 l 1,42,-1
 188 62 l 1,43,-1
 250 62 l 1,44,-1
 312 62 l 1,45,-1
 312 125 l 1,46,-1
 375 125 l 1,47,-1
 438 125 l 1,48,-1
 438 62 l 1,49,-1
 375 62 l 1,50,-1
 375 0 l 1,51,-1
 312 0 l 1,0,-1
EndSplineSet
Validated: 1
EndChar

StartChar: braceleft
Encoding: 123 123 94
Width: 312
Flags: W
LayerCount: 2
Fore
SplineSet
188 -188 m 1,0,-1
 188 -125 l 1,1,-1
 250 -125 l 1,2,-1
 250 -188 l 1,3,-1
 188 -188 l 1,0,-1
188 -125 m 1,4,-1
 125 -125 l 1,5,-1
 125 -62 l 1,6,-1
 125 0 l 1,7,-1
 125 62 l 1,8,-1
 125 125 l 1,9,-1
 188 125 l 1,10,-1
 188 62 l 1,11,-1
 188 0 l 1,12,-1
 188 -62 l 1,13,-1
 188 -125 l 1,4,-1
125 125 m 1,14,-1
 62 125 l 1,15,-1
 62 188 l 1,16,-1
 125 188 l 1,17,-1
 125 125 l 1,14,-1
62 188 m 1,18,-1
 0 188 l 1,19,-1
 0 250 l 1,20,-1
 0 312 l 1,21,-1
 62 312 l 1,22,-1
 62 250 l 1,23,-1
 62 188 l 1,18,-1
62 312 m 1,24,-1
 62 375 l 1,25,-1
 125 375 l 1,26,-1
 125 312 l 1,27,-1
 62 312 l 1,24,-1
125 375 m 1,28,-1
 125 438 l 1,29,-1
 125 500 l 1,30,-1
 125 562 l 1,31,-1
 125 625 l 1,32,-1
 188 625 l 1,33,-1
 188 562 l 1,34,-1
 188 500 l 1,35,-1
 188 438 l 1,36,-1
 188 375 l 1,37,-1
 125 375 l 1,28,-1
188 625 m 1,38,-1
 188 688 l 1,39,-1
 250 688 l 1,40,-1
 250 625 l 1,41,-1
 188 625 l 1,38,-1
EndSplineSet
Validated: 5
EndChar

StartChar: bar
Encoding: 124 124 95
Width: 187
Flags: W
LayerCount: 2
Fore
SplineSet
62 -188 m 1,0,-1
 62 -125 l 1,1,-1
 62 -62 l 1,2,-1
 62 0 l 1,3,-1
 62 62 l 1,4,-1
 62 125 l 1,5,-1
 62 188 l 1,6,-1
 62 250 l 1,7,-1
 62 312 l 1,8,-1
 62 375 l 1,9,-1
 62 438 l 1,10,-1
 62 500 l 1,11,-1
 62 562 l 1,12,-1
 62 625 l 1,13,-1
 125 625 l 1,14,-1
 125 562 l 1,15,-1
 125 500 l 1,16,-1
 125 438 l 1,17,-1
 125 375 l 1,18,-1
 125 312 l 1,19,-1
 125 250 l 1,20,-1
 125 188 l 1,21,-1
 125 125 l 1,22,-1
 125 62 l 1,23,-1
 125 0 l 1,24,-1
 125 -62 l 1,25,-1
 125 -125 l 1,26,-1
 125 -188 l 1,27,-1
 62 -188 l 1,0,-1
EndSplineSet
Validated: 1
EndChar

StartChar: braceright
Encoding: 125 125 96
Width: 375
Flags: W
LayerCount: 2
Fore
SplineSet
62 -188 m 1,0,-1
 62 -125 l 1,1,-1
 125 -125 l 1,2,-1
 125 -188 l 1,3,-1
 62 -188 l 1,0,-1
125 -125 m 1,4,-1
 125 -62 l 1,5,-1
 125 0 l 1,6,-1
 125 62 l 1,7,-1
 125 125 l 1,8,-1
 188 125 l 1,9,-1
 188 62 l 1,10,-1
 188 0 l 1,11,-1
 188 -62 l 1,12,-1
 188 -125 l 1,13,-1
 125 -125 l 1,4,-1
188 125 m 1,14,-1
 188 188 l 1,15,-1
 250 188 l 1,16,-1
 250 125 l 1,17,-1
 188 125 l 1,14,-1
250 188 m 1,18,-1
 250 250 l 1,19,-1
 250 312 l 1,20,-1
 312 312 l 1,21,-1
 312 250 l 1,22,-1
 312 188 l 1,23,-1
 250 188 l 1,18,-1
250 312 m 1,24,-1
 188 312 l 1,25,-1
 188 375 l 1,26,-1
 250 375 l 1,27,-1
 250 312 l 1,24,-1
188 375 m 1,28,-1
 125 375 l 1,29,-1
 125 438 l 1,30,-1
 125 500 l 1,31,-1
 125 562 l 1,32,-1
 125 625 l 1,33,-1
 188 625 l 1,34,-1
 188 562 l 1,35,-1
 188 500 l 1,36,-1
 188 438 l 1,37,-1
 188 375 l 1,28,-1
125 625 m 1,38,-1
 62 625 l 1,39,-1
 62 688 l 1,40,-1
 125 688 l 1,41,-1
 125 625 l 1,38,-1
EndSplineSet
Validated: 5
EndChar

StartChar: asciitilde
Encoding: 126 126 97
Width: 500
Flags: W
LayerCount: 2
Fore
SplineSet
0 250 m 1,0,-1
 0 312 l 1,1,-1
 62 312 l 1,2,-1
 62 250 l 1,3,-1
 0 250 l 1,0,-1
312 250 m 1,4,-1
 375 250 l 1,5,-1
 375 188 l 1,6,-1
 312 188 l 1,7,-1
 250 188 l 1,8,-1
 250 250 l 1,9,-1
 312 250 l 1,4,-1
375 250 m 1,10,-1
 375 312 l 1,11,-1
 438 312 l 1,12,-1
 438 250 l 1,13,-1
 375 250 l 1,10,-1
250 250 m 1,14,-1
 188 250 l 1,15,-1
 188 312 l 1,16,-1
 250 312 l 1,17,-1
 250 250 l 1,14,-1
188 312 m 1,18,-1
 125 312 l 1,19,-1
 62 312 l 1,20,-1
 62 375 l 1,21,-1
 125 375 l 1,22,-1
 188 375 l 1,23,-1
 188 312 l 1,18,-1
EndSplineSet
Validated: 5
EndChar

StartChar: exclamdown
Encoding: 161 161 99
Width: 250
Flags: W
LayerCount: 2
Fore
SplineSet
62 -188 m 1,0,-1
 62 -125 l 1,1,-1
 62 -62 l 1,2,-1
 62 0 l 1,3,-1
 62 62 l 1,4,-1
 62 125 l 1,5,-1
 62 188 l 1,6,-1
 125 188 l 1,7,-1
 125 250 l 1,8,-1
 188 250 l 1,9,-1
 188 188 l 1,10,-1
 188 125 l 1,11,-1
 188 62 l 1,12,-1
 188 0 l 1,13,-1
 188 -62 l 1,14,-1
 188 -125 l 1,15,-1
 125 -125 l 1,16,-1
 125 -188 l 1,17,-1
 62 -188 l 1,0,-1
125 312 m 1,18,-1
 62 312 l 1,19,-1
 62 375 l 1,20,-1
 62 438 l 1,21,-1
 125 438 l 1,22,-1
 188 438 l 1,23,-1
 188 375 l 1,24,-1
 188 312 l 1,25,-1
 125 312 l 1,18,-1
EndSplineSet
Validated: 1
EndChar

StartChar: cent
Encoding: 162 162 100
Width: 437
Flags: W
LayerCount: 2
Fore
SplineSet
125 -125 m 1,0,-1
 125 -62 l 1,1,-1
 125 0 l 1,2,-1
 125 62 l 1,3,-1
 62 62 l 1,4,-1
 62 125 l 1,5,-1
 125 125 l 1,6,-1
 188 125 l 1,7,-1
 188 62 l 1,8,-1
 250 62 l 1,9,-1
 312 62 l 1,10,-1
 312 0 l 1,11,-1
 250 0 l 1,12,-1
 188 0 l 1,13,-1
 188 -62 l 1,14,-1
 188 -125 l 1,15,-1
 125 -125 l 1,0,-1
312 62 m 1,16,-1
 312 125 l 1,17,-1
 375 125 l 1,18,-1
 375 62 l 1,19,-1
 312 62 l 1,16,-1
188 125 m 1,20,-1
 188 188 l 1,21,-1
 188 250 l 1,22,-1
 188 312 l 1,23,-1
 250 312 l 1,24,-1
 250 250 l 1,25,-1
 250 188 l 1,26,-1
 250 125 l 1,27,-1
 188 125 l 1,20,-1
62 125 m 1,28,-1
 0 125 l 1,29,-1
 0 188 l 1,30,-1
 0 250 l 1,31,-1
 0 312 l 1,32,-1
 62 312 l 1,33,-1
 62 250 l 1,34,-1
 62 188 l 1,35,-1
 62 125 l 1,28,-1
250 312 m 1,36,-1
 250 375 l 1,37,-1
 188 375 l 1,38,-1
 125 375 l 1,39,-1
 125 312 l 1,40,-1
 62 312 l 1,41,-1
 62 375 l 1,42,-1
 125 375 l 1,43,-1
 125 438 l 1,44,-1
 188 438 l 1,45,-1
 250 438 l 1,46,-1
 250 500 l 1,47,-1
 250 562 l 1,48,-1
 312 562 l 1,49,-1
 312 500 l 1,50,-1
 312 438 l 1,51,-1
 312 375 l 1,52,-1
 375 375 l 1,53,-1
 375 312 l 1,54,-1
 312 312 l 1,55,-1
 250 312 l 1,36,-1
EndSplineSet
Validated: 5
EndChar

StartChar: sterling
Encoding: 163 163 101
Width: 500
Flags: W
LayerCount: 2
Fore
SplineSet
375 500 m 1,0,-1
 375 562 l 1,1,-1
 438 562 l 1,2,-1
 438 500 l 1,3,-1
 375 500 l 1,0,-1
375 62 m 1,4,-1
 438 62 l 1,5,-1
 438 0 l 1,6,-1
 375 0 l 1,7,-1
 312 0 l 1,8,-1
 250 0 l 1,9,-1
 188 0 l 1,10,-1
 125 0 l 1,11,-1
 62 0 l 1,12,-1
 0 0 l 1,13,-1
 0 62 l 1,14,-1
 0 125 l 1,15,-1
 62 125 l 1,16,-1
 62 188 l 1,17,-1
 125 188 l 1,18,-1
 125 250 l 1,19,-1
 125 312 l 1,20,-1
 62 312 l 1,21,-1
 0 312 l 1,22,-1
 0 375 l 1,23,-1
 62 375 l 1,24,-1
 62 438 l 1,25,-1
 0 438 l 1,26,-1
 0 500 l 1,27,-1
 0 562 l 1,28,-1
 62 562 l 1,29,-1
 62 625 l 1,30,-1
 125 625 l 1,31,-1
 188 625 l 1,32,-1
 250 625 l 1,33,-1
 312 625 l 1,34,-1
 375 625 l 1,35,-1
 375 562 l 1,36,-1
 312 562 l 1,37,-1
 250 562 l 1,38,-1
 188 562 l 1,39,-1
 188 500 l 1,40,-1
 125 500 l 1,41,-1
 125 438 l 1,42,-1
 188 438 l 1,43,-1
 188 375 l 1,44,-1
 250 375 l 1,45,-1
 312 375 l 1,46,-1
 375 375 l 1,47,-1
 375 312 l 1,48,-1
 312 312 l 1,49,-1
 250 312 l 1,50,-1
 250 250 l 1,51,-1
 250 188 l 1,52,-1
 188 188 l 1,53,-1
 188 125 l 1,54,-1
 125 125 l 1,55,-1
 125 62 l 1,56,-1
 188 62 l 1,57,-1
 250 62 l 1,58,-1
 312 62 l 1,59,-1
 375 62 l 1,4,-1
EndSplineSet
Validated: 5
EndChar

StartChar: currency
Encoding: 164 164 102
Width: 562
Flags: W
LayerCount: 2
Fore
SplineSet
438 62 m 1,0,-1
 438 125 l 1,1,-1
 500 125 l 1,2,-1
 500 62 l 1,3,-1
 438 62 l 1,0,-1
0 62 m 1,4,-1
 0 125 l 1,5,-1
 62 125 l 1,6,-1
 62 62 l 1,7,-1
 0 62 l 1,4,-1
438 125 m 1,8,-1
 375 125 l 1,9,-1
 375 188 l 1,10,-1
 438 188 l 1,11,-1
 438 125 l 1,8,-1
250 188 m 1,12,-1
 312 188 l 1,13,-1
 312 125 l 1,14,-1
 250 125 l 1,15,-1
 188 125 l 1,16,-1
 188 188 l 1,17,-1
 250 188 l 1,12,-1
62 125 m 1,18,-1
 62 188 l 1,19,-1
 125 188 l 1,20,-1
 125 125 l 1,21,-1
 62 125 l 1,18,-1
375 188 m 1,22,-1
 312 188 l 1,23,-1
 312 250 l 1,24,-1
 375 250 l 1,25,-1
 375 188 l 1,22,-1
188 188 m 1,26,-1
 125 188 l 1,27,-1
 125 250 l 1,28,-1
 188 250 l 1,29,-1
 188 188 l 1,26,-1
375 250 m 1,30,-1
 375 312 l 1,31,-1
 375 375 l 1,32,-1
 438 375 l 1,33,-1
 438 312 l 1,34,-1
 438 250 l 1,35,-1
 375 250 l 1,30,-1
125 250 m 1,36,-1
 62 250 l 1,37,-1
 62 312 l 1,38,-1
 62 375 l 1,39,-1
 125 375 l 1,40,-1
 125 312 l 1,41,-1
 125 250 l 1,36,-1
375 375 m 1,42,-1
 312 375 l 1,43,-1
 312 438 l 1,44,-1
 375 438 l 1,45,-1
 375 375 l 1,42,-1
125 375 m 1,46,-1
 125 438 l 1,47,-1
 188 438 l 1,48,-1
 188 375 l 1,49,-1
 125 375 l 1,46,-1
375 438 m 1,50,-1
 375 500 l 1,51,-1
 438 500 l 1,52,-1
 438 438 l 1,53,-1
 375 438 l 1,50,-1
312 438 m 1,54,-1
 250 438 l 1,55,-1
 188 438 l 1,56,-1
 188 500 l 1,57,-1
 250 500 l 1,58,-1
 312 500 l 1,59,-1
 312 438 l 1,54,-1
125 438 m 1,60,-1
 62 438 l 1,61,-1
 62 500 l 1,62,-1
 125 500 l 1,63,-1
 125 438 l 1,60,-1
438 500 m 1,64,-1
 438 562 l 1,65,-1
 500 562 l 1,66,-1
 500 500 l 1,67,-1
 438 500 l 1,64,-1
62 500 m 1,68,-1
 0 500 l 1,69,-1
 0 562 l 1,70,-1
 62 562 l 1,71,-1
 62 500 l 1,68,-1
EndSplineSet
Validated: 5
EndChar

StartChar: yen
Encoding: 165 165 103
Width: 562
Flags: W
LayerCount: 2
Fore
SplineSet
250 0 m 1,0,-1
 188 0 l 1,1,-1
 188 62 l 1,2,-1
 125 62 l 1,3,-1
 62 62 l 1,4,-1
 62 125 l 1,5,-1
 125 125 l 1,6,-1
 188 125 l 1,7,-1
 188 188 l 1,8,-1
 125 188 l 1,9,-1
 62 188 l 1,10,-1
 62 250 l 1,11,-1
 125 250 l 1,12,-1
 188 250 l 1,13,-1
 188 312 l 1,14,-1
 125 312 l 1,15,-1
 125 375 l 1,16,-1
 62 375 l 1,17,-1
 62 438 l 1,18,-1
 0 438 l 1,19,-1
 0 500 l 1,20,-1
 0 562 l 1,21,-1
 0 625 l 1,22,-1
 62 625 l 1,23,-1
 125 625 l 1,24,-1
 125 562 l 1,25,-1
 125 500 l 1,26,-1
 188 500 l 1,27,-1
 188 438 l 1,28,-1
 188 375 l 1,29,-1
 250 375 l 1,30,-1
 312 375 l 1,31,-1
 312 438 l 1,32,-1
 312 500 l 1,33,-1
 375 500 l 1,34,-1
 375 562 l 1,35,-1
 375 625 l 1,36,-1
 438 625 l 1,37,-1
 500 625 l 1,38,-1
 500 562 l 1,39,-1
 500 500 l 1,40,-1
 500 438 l 1,41,-1
 438 438 l 1,42,-1
 438 375 l 1,43,-1
 375 375 l 1,44,-1
 375 312 l 1,45,-1
 312 312 l 1,46,-1
 312 250 l 1,47,-1
 375 250 l 1,48,-1
 438 250 l 1,49,-1
 438 188 l 1,50,-1
 375 188 l 1,51,-1
 312 188 l 1,52,-1
 312 125 l 1,53,-1
 375 125 l 1,54,-1
 438 125 l 1,55,-1
 438 62 l 1,56,-1
 375 62 l 1,57,-1
 312 62 l 1,58,-1
 312 0 l 1,59,-1
 250 0 l 1,0,-1
EndSplineSet
Validated: 1
EndChar

StartChar: brokenbar
Encoding: 166 166 104
Width: 125
Flags: W
LayerCount: 2
Fore
SplineSet
0 -188 m 1,0,-1
 0 -125 l 1,1,-1
 0 -62 l 1,2,-1
 0 0 l 1,3,-1
 0 62 l 1,4,-1
 0 125 l 1,5,-1
 62 125 l 1,6,-1
 62 62 l 1,7,-1
 62 0 l 1,8,-1
 62 -62 l 1,9,-1
 62 -125 l 1,10,-1
 62 -188 l 1,11,-1
 0 -188 l 1,0,-1
0 312 m 1,12,-1
 0 375 l 1,13,-1
 0 438 l 1,14,-1
 0 500 l 1,15,-1
 0 562 l 1,16,-1
 0 625 l 1,17,-1
 62 625 l 1,18,-1
 62 562 l 1,19,-1
 62 500 l 1,20,-1
 62 438 l 1,21,-1
 62 375 l 1,22,-1
 62 312 l 1,23,-1
 0 312 l 1,12,-1
EndSplineSet
Validated: 1
EndChar

StartChar: section
Encoding: 167 167 105
Width: 437
Flags: W
LayerCount: 2
Fore
SplineSet
312 500 m 1,0,-1
 312 562 l 1,1,-1
 250 562 l 1,2,-1
 250 625 l 1,3,-1
 188 625 l 1,4,-1
 125 625 l 1,5,-1
 125 562 l 1,6,-1
 62 562 l 1,7,-1
 62 500 l 1,8,-1
 125 500 l 1,9,-1
 188 500 l 1,10,-1
 188 438 l 1,11,-1
 250 438 l 1,12,-1
 250 375 l 1,13,-1
 312 375 l 1,14,-1
 312 312 l 1,15,-1
 250 312 l 1,16,-1
 250 375 l 1,17,-1
 188 375 l 1,18,-1
 188 438 l 1,19,-1
 125 438 l 1,20,-1
 125 375 l 1,21,-1
 62 375 l 1,22,-1
 62 312 l 1,23,-1
 62 250 l 1,24,-1
 125 250 l 1,25,-1
 125 188 l 1,26,-1
 188 188 l 1,27,-1
 188 125 l 1,28,-1
 250 125 l 1,29,-1
 250 188 l 1,30,-1
 312 188 l 1,31,-1
 312 250 l 1,32,-1
 312 312 l 1,33,-1
 375 312 l 1,34,-1
 375 250 l 1,35,-1
 375 188 l 1,36,-1
 375 125 l 1,37,-1
 312 125 l 1,38,-1
 312 62 l 1,39,-1
 375 62 l 1,40,-1
 375 0 l 1,41,-1
 375 -62 l 1,42,-1
 312 -62 l 1,43,-1
 312 -125 l 1,44,-1
 250 -125 l 1,45,-1
 188 -125 l 1,46,-1
 125 -125 l 1,47,-1
 62 -125 l 1,48,-1
 62 -62 l 1,49,-1
 0 -62 l 1,50,-1
 0 0 l 1,51,-1
 0 62 l 1,52,-1
 62 62 l 1,53,-1
 62 0 l 1,54,-1
 125 0 l 1,55,-1
 125 -62 l 1,56,-1
 188 -62 l 1,57,-1
 250 -62 l 1,58,-1
 250 0 l 1,59,-1
 312 0 l 1,60,-1
 312 62 l 1,61,-1
 250 62 l 1,62,-1
 188 62 l 1,63,-1
 188 125 l 1,64,-1
 125 125 l 1,65,-1
 125 188 l 1,66,-1
 62 188 l 1,67,-1
 62 250 l 1,68,-1
 0 250 l 1,69,-1
 0 312 l 1,70,-1
 0 375 l 1,71,-1
 0 438 l 1,72,-1
 62 438 l 1,73,-1
 62 500 l 1,74,-1
 0 500 l 1,75,-1
 0 562 l 1,76,-1
 0 625 l 1,77,-1
 62 625 l 1,78,-1
 62 688 l 1,79,-1
 125 688 l 1,80,-1
 188 688 l 1,81,-1
 250 688 l 1,82,-1
 312 688 l 1,83,-1
 312 625 l 1,84,-1
 375 625 l 1,85,-1
 375 562 l 1,86,-1
 375 500 l 1,87,-1
 312 500 l 1,0,-1
EndSplineSet
Validated: 5
EndChar

StartChar: dieresis
Encoding: 168 168 106
Width: 375
Flags: W
LayerCount: 2
Fore
SplineSet
250 500 m 1,0,-1
 188 500 l 1,1,-1
 188 562 l 1,2,-1
 188 625 l 1,3,-1
 250 625 l 1,4,-1
 312 625 l 1,5,-1
 312 562 l 1,6,-1
 312 500 l 1,7,-1
 250 500 l 1,0,-1
62 500 m 1,8,-1
 0 500 l 1,9,-1
 0 562 l 1,10,-1
 0 625 l 1,11,-1
 62 625 l 1,12,-1
 125 625 l 1,13,-1
 125 562 l 1,14,-1
 125 500 l 1,15,-1
 62 500 l 1,8,-1
EndSplineSet
Validated: 1
EndChar

StartChar: copyright
Encoding: 169 169 107
Width: 812
Flags: W
LayerCount: 2
Fore
SplineSet
500 438 m 1,0,-1
 500 500 l 1,1,-1
 438 500 l 1,2,-1
 438 562 l 1,3,-1
 375 562 l 1,4,-1
 375 500 l 1,5,-1
 312 500 l 1,6,-1
 312 438 l 1,7,-1
 250 438 l 1,8,-1
 250 375 l 1,9,-1
 250 312 l 1,10,-1
 250 250 l 1,11,-1
 312 250 l 1,12,-1
 312 188 l 1,13,-1
 375 188 l 1,14,-1
 438 188 l 1,15,-1
 438 250 l 1,16,-1
 500 250 l 1,17,-1
 500 312 l 1,18,-1
 562 312 l 1,19,-1
 562 250 l 1,20,-1
 562 188 l 1,21,-1
 500 188 l 1,22,-1
 500 125 l 1,23,-1
 438 125 l 1,24,-1
 375 125 l 1,25,-1
 312 125 l 1,26,-1
 250 125 l 1,27,-1
 250 188 l 1,28,-1
 188 188 l 1,29,-1
 188 250 l 1,30,-1
 125 250 l 1,31,-1
 125 312 l 1,32,-1
 125 375 l 1,33,-1
 125 438 l 1,34,-1
 188 438 l 1,35,-1
 188 500 l 1,36,-1
 250 500 l 1,37,-1
 250 562 l 1,38,-1
 312 562 l 1,39,-1
 312 625 l 1,40,-1
 375 625 l 1,41,-1
 438 625 l 1,42,-1
 500 625 l 1,43,-1
 500 562 l 1,44,-1
 562 562 l 1,45,-1
 562 500 l 1,46,-1
 562 438 l 1,47,-1
 500 438 l 1,0,-1
500 62 m 1,48,-1
 562 62 l 1,49,-1
 562 0 l 1,50,-1
 500 0 l 1,51,-1
 438 0 l 1,52,-1
 375 0 l 1,53,-1
 312 0 l 1,54,-1
 250 0 l 1,55,-1
 188 0 l 1,56,-1
 188 62 l 1,57,-1
 250 62 l 1,58,-1
 312 62 l 1,59,-1
 375 62 l 1,60,-1
 438 62 l 1,61,-1
 500 62 l 1,48,-1
562 62 m 1,62,-1
 562 125 l 1,63,-1
 625 125 l 1,64,-1
 625 62 l 1,65,-1
 562 62 l 1,62,-1
188 62 m 1,66,-1
 125 62 l 1,67,-1
 125 125 l 1,68,-1
 188 125 l 1,69,-1
 188 62 l 1,66,-1
625 125 m 1,70,-1
 625 188 l 1,71,-1
 688 188 l 1,72,-1
 688 125 l 1,73,-1
 625 125 l 1,70,-1
125 125 m 1,74,-1
 62 125 l 1,75,-1
 62 188 l 1,76,-1
 125 188 l 1,77,-1
 125 125 l 1,74,-1
688 188 m 1,78,-1
 688 250 l 1,79,-1
 688 312 l 1,80,-1
 688 375 l 1,81,-1
 688 438 l 1,82,-1
 688 500 l 1,83,-1
 688 562 l 1,84,-1
 750 562 l 1,85,-1
 750 500 l 1,86,-1
 750 438 l 1,87,-1
 750 375 l 1,88,-1
 750 312 l 1,89,-1
 750 250 l 1,90,-1
 750 188 l 1,91,-1
 688 188 l 1,78,-1
62 188 m 1,92,-1
 0 188 l 1,93,-1
 0 250 l 1,94,-1
 0 312 l 1,95,-1
 0 375 l 1,96,-1
 0 438 l 1,97,-1
 0 500 l 1,98,-1
 0 562 l 1,99,-1
 62 562 l 1,100,-1
 62 500 l 1,101,-1
 62 438 l 1,102,-1
 62 375 l 1,103,-1
 62 312 l 1,104,-1
 62 250 l 1,105,-1
 62 188 l 1,92,-1
688 562 m 1,106,-1
 625 562 l 1,107,-1
 625 625 l 1,108,-1
 688 625 l 1,109,-1
 688 562 l 1,106,-1
62 562 m 1,110,-1
 62 625 l 1,111,-1
 125 625 l 1,112,-1
 125 562 l 1,113,-1
 62 562 l 1,110,-1
625 625 m 1,114,-1
 562 625 l 1,115,-1
 562 688 l 1,116,-1
 625 688 l 1,117,-1
 625 625 l 1,114,-1
125 625 m 1,118,-1
 125 688 l 1,119,-1
 188 688 l 1,120,-1
 188 625 l 1,121,-1
 125 625 l 1,118,-1
562 688 m 1,122,-1
 500 688 l 1,123,-1
 438 688 l 1,124,-1
 375 688 l 1,125,-1
 312 688 l 1,126,-1
 250 688 l 1,127,-1
 188 688 l 1,128,-1
 188 750 l 1,129,-1
 250 750 l 1,130,-1
 312 750 l 1,131,-1
 375 750 l 1,132,-1
 438 750 l 1,133,-1
 500 750 l 1,134,-1
 562 750 l 1,135,-1
 562 688 l 1,122,-1
EndSplineSet
Validated: 5
EndChar

StartChar: ordfeminine
Encoding: 170 170 108
Width: 500
Flags: W
LayerCount: 2
Fore
SplineSet
375 312 m 1,0,-1
 375 375 l 1,1,-1
 312 375 l 1,2,-1
 312 312 l 1,3,-1
 250 312 l 1,4,-1
 188 312 l 1,5,-1
 125 312 l 1,6,-1
 62 312 l 1,7,-1
 62 375 l 1,8,-1
 0 375 l 1,9,-1
 0 438 l 1,10,-1
 0 500 l 1,11,-1
 62 500 l 1,12,-1
 62 562 l 1,13,-1
 125 562 l 1,14,-1
 125 625 l 1,15,-1
 62 625 l 1,16,-1
 0 625 l 1,17,-1
 0 688 l 1,18,-1
 62 688 l 1,19,-1
 62 750 l 1,20,-1
 125 750 l 1,21,-1
 188 750 l 1,22,-1
 250 750 l 1,23,-1
 312 750 l 1,24,-1
 312 688 l 1,25,-1
 375 688 l 1,26,-1
 375 625 l 1,27,-1
 375 562 l 1,28,-1
 375 500 l 1,29,-1
 375 438 l 1,30,-1
 438 438 l 1,31,-1
 438 375 l 1,32,-1
 438 312 l 1,33,-1
 375 312 l 1,0,-1
188 375 m 1,34,-1
 250 375 l 1,35,-1
 250 438 l 1,36,-1
 250 500 l 1,37,-1
 250 562 l 1,38,-1
 188 562 l 1,39,-1
 188 500 l 1,40,-1
 125 500 l 1,41,-1
 125 438 l 1,42,-1
 125 375 l 1,43,-1
 188 375 l 1,34,-1
188 625 m 1,44,-1
 250 625 l 1,45,-1
 250 688 l 1,46,-1
 188 688 l 1,47,-1
 125 688 l 1,48,-1
 125 625 l 1,49,-1
 188 625 l 1,44,-1
EndSplineSet
Validated: 5
EndChar

StartChar: guillemotleft
Encoding: 171 171 109
Width: 500
Flags: W
LayerCount: 2
Fore
SplineSet
375 0 m 1,0,-1
 375 62 l 1,1,-1
 438 62 l 1,2,-1
 438 0 l 1,3,-1
 375 0 l 1,0,-1
188 0 m 1,4,-1
 188 62 l 1,5,-1
 250 62 l 1,6,-1
 250 0 l 1,7,-1
 188 0 l 1,4,-1
375 62 m 1,8,-1
 312 62 l 1,9,-1
 312 125 l 1,10,-1
 312 188 l 1,11,-1
 375 188 l 1,12,-1
 375 125 l 1,13,-1
 375 62 l 1,8,-1
188 62 m 1,14,-1
 125 62 l 1,15,-1
 125 125 l 1,16,-1
 125 188 l 1,17,-1
 188 188 l 1,18,-1
 188 125 l 1,19,-1
 188 62 l 1,14,-1
312 188 m 1,20,-1
 250 188 l 1,21,-1
 250 250 l 1,22,-1
 250 312 l 1,23,-1
 312 312 l 1,24,-1
 312 250 l 1,25,-1
 312 188 l 1,20,-1
125 188 m 1,26,-1
 62 188 l 1,27,-1
 62 250 l 1,28,-1
 62 312 l 1,29,-1
 125 312 l 1,30,-1
 125 250 l 1,31,-1
 125 188 l 1,26,-1
312 312 m 1,32,-1
 312 375 l 1,33,-1
 312 438 l 1,34,-1
 375 438 l 1,35,-1
 375 375 l 1,36,-1
 375 312 l 1,37,-1
 312 312 l 1,32,-1
125 312 m 1,38,-1
 125 375 l 1,39,-1
 125 438 l 1,40,-1
 188 438 l 1,41,-1
 188 375 l 1,42,-1
 188 312 l 1,43,-1
 125 312 l 1,38,-1
375 438 m 1,44,-1
 375 500 l 1,45,-1
 438 500 l 1,46,-1
 438 438 l 1,47,-1
 375 438 l 1,44,-1
188 438 m 1,48,-1
 188 500 l 1,49,-1
 250 500 l 1,50,-1
 250 438 l 1,51,-1
 188 438 l 1,48,-1
EndSplineSet
Validated: 5
EndChar

StartChar: logicalnot
Encoding: 172 172 110
Width: 500
Flags: W
LayerCount: 2
Fore
SplineSet
375 312 m 1,0,-1
 375 375 l 1,1,-1
 375 438 l 1,2,-1
 312 438 l 1,3,-1
 250 438 l 1,4,-1
 188 438 l 1,5,-1
 125 438 l 1,6,-1
 62 438 l 1,7,-1
 62 500 l 1,8,-1
 125 500 l 1,9,-1
 188 500 l 1,10,-1
 250 500 l 1,11,-1
 312 500 l 1,12,-1
 375 500 l 1,13,-1
 438 500 l 1,14,-1
 438 438 l 1,15,-1
 438 375 l 1,16,-1
 438 312 l 1,17,-1
 375 312 l 1,0,-1
EndSplineSet
Validated: 1
EndChar

StartChar: registered
Encoding: 174 174 111
Width: 812
Flags: W
LayerCount: 2
Fore
SplineSet
438 188 m 1,0,-1
 438 250 l 1,1,-1
 500 250 l 1,2,-1
 500 188 l 1,3,-1
 438 188 l 1,0,-1
188 188 m 1,4,-1
 188 250 l 1,5,-1
 188 312 l 1,6,-1
 188 375 l 1,7,-1
 188 438 l 1,8,-1
 188 500 l 1,9,-1
 188 562 l 1,10,-1
 250 562 l 1,11,-1
 312 562 l 1,12,-1
 375 562 l 1,13,-1
 438 562 l 1,14,-1
 438 500 l 1,15,-1
 500 500 l 1,16,-1
 500 438 l 1,17,-1
 500 375 l 1,18,-1
 438 375 l 1,19,-1
 438 438 l 1,20,-1
 438 500 l 1,21,-1
 375 500 l 1,22,-1
 312 500 l 1,23,-1
 250 500 l 1,24,-1
 250 438 l 1,25,-1
 250 375 l 1,26,-1
 312 375 l 1,27,-1
 375 375 l 1,28,-1
 438 375 l 1,29,-1
 438 312 l 1,30,-1
 438 250 l 1,31,-1
 375 250 l 1,32,-1
 375 312 l 1,33,-1
 312 312 l 1,34,-1
 250 312 l 1,35,-1
 250 250 l 1,36,-1
 250 188 l 1,37,-1
 188 188 l 1,4,-1
438 62 m 1,38,-1
 500 62 l 1,39,-1
 500 0 l 1,40,-1
 438 0 l 1,41,-1
 375 0 l 1,42,-1
 312 0 l 1,43,-1
 250 0 l 1,44,-1
 188 0 l 1,45,-1
 188 62 l 1,46,-1
 250 62 l 1,47,-1
 312 62 l 1,48,-1
 375 62 l 1,49,-1
 438 62 l 1,38,-1
562 125 m 1,50,-1
 625 125 l 1,51,-1
 625 62 l 1,52,-1
 562 62 l 1,53,-1
 500 62 l 1,54,-1
 500 125 l 1,55,-1
 562 125 l 1,50,-1
188 62 m 1,56,-1
 125 62 l 1,57,-1
 125 125 l 1,58,-1
 188 125 l 1,59,-1
 188 62 l 1,56,-1
625 125 m 1,60,-1
 625 188 l 1,61,-1
 625 250 l 1,62,-1
 688 250 l 1,63,-1
 688 188 l 1,64,-1
 688 125 l 1,65,-1
 625 125 l 1,60,-1
125 125 m 1,66,-1
 62 125 l 1,67,-1
 62 188 l 1,68,-1
 0 188 l 1,69,-1
 0 250 l 1,70,-1
 0 312 l 1,71,-1
 0 375 l 1,72,-1
 0 438 l 1,73,-1
 0 500 l 1,74,-1
 62 500 l 1,75,-1
 62 438 l 1,76,-1
 62 375 l 1,77,-1
 62 312 l 1,78,-1
 62 250 l 1,79,-1
 125 250 l 1,80,-1
 125 188 l 1,81,-1
 125 125 l 1,66,-1
688 250 m 1,82,-1
 688 312 l 1,83,-1
 688 375 l 1,84,-1
 688 438 l 1,85,-1
 750 438 l 1,86,-1
 750 375 l 1,87,-1
 750 312 l 1,88,-1
 750 250 l 1,89,-1
 688 250 l 1,82,-1
688 438 m 1,90,-1
 625 438 l 1,91,-1
 625 500 l 1,92,-1
 625 562 l 1,93,-1
 688 562 l 1,94,-1
 688 500 l 1,95,-1
 688 438 l 1,90,-1
62 500 m 1,96,-1
 62 562 l 1,97,-1
 62 625 l 1,98,-1
 125 625 l 1,99,-1
 125 562 l 1,100,-1
 125 500 l 1,101,-1
 62 500 l 1,96,-1
625 562 m 1,102,-1
 562 562 l 1,103,-1
 562 625 l 1,104,-1
 625 625 l 1,105,-1
 625 562 l 1,102,-1
562 625 m 1,106,-1
 500 625 l 1,107,-1
 438 625 l 1,108,-1
 438 688 l 1,109,-1
 500 688 l 1,110,-1
 562 688 l 1,111,-1
 562 625 l 1,106,-1
188 688 m 1,112,-1
 250 688 l 1,113,-1
 250 625 l 1,114,-1
 188 625 l 1,115,-1
 125 625 l 1,116,-1
 125 688 l 1,117,-1
 188 688 l 1,112,-1
438 688 m 1,118,-1
 375 688 l 1,119,-1
 312 688 l 1,120,-1
 250 688 l 1,121,-1
 250 750 l 1,122,-1
 312 750 l 1,123,-1
 375 750 l 1,124,-1
 438 750 l 1,125,-1
 438 688 l 1,118,-1
EndSplineSet
Validated: 5
EndChar

StartChar: macron
Encoding: 175 175 112
Width: 437
Flags: W
LayerCount: 2
Fore
SplineSet
312 750 m 1,0,-1
 375 750 l 1,1,-1
 375 688 l 1,2,-1
 312 688 l 1,3,-1
 250 688 l 1,4,-1
 188 688 l 1,5,-1
 125 688 l 1,6,-1
 62 688 l 1,7,-1
 0 688 l 1,8,-1
 0 750 l 1,9,-1
 62 750 l 1,10,-1
 125 750 l 1,11,-1
 188 750 l 1,12,-1
 250 750 l 1,13,-1
 312 750 l 1,0,-1
EndSplineSet
Validated: 1
EndChar

StartChar: degree
Encoding: 176 176 113
Width: 312
Flags: W
LayerCount: 2
Fore
SplineSet
125 438 m 1,0,-1
 188 438 l 1,1,-1
 188 375 l 1,2,-1
 125 375 l 1,3,-1
 62 375 l 1,4,-1
 62 438 l 1,5,-1
 125 438 l 1,0,-1
188 438 m 1,6,-1
 188 500 l 1,7,-1
 188 562 l 1,8,-1
 250 562 l 1,9,-1
 250 500 l 1,10,-1
 250 438 l 1,11,-1
 188 438 l 1,6,-1
62 438 m 1,12,-1
 0 438 l 1,13,-1
 0 500 l 1,14,-1
 0 562 l 1,15,-1
 62 562 l 1,16,-1
 62 500 l 1,17,-1
 62 438 l 1,12,-1
188 562 m 1,18,-1
 125 562 l 1,19,-1
 62 562 l 1,20,-1
 62 625 l 1,21,-1
 125 625 l 1,22,-1
 188 625 l 1,23,-1
 188 562 l 1,18,-1
EndSplineSet
Validated: 5
EndChar

StartChar: plusminus
Encoding: 177 177 114
Width: 500
Flags: W
LayerCount: 2
Fore
SplineSet
375 62 m 1,0,-1
 438 62 l 1,1,-1
 438 0 l 1,2,-1
 375 0 l 1,3,-1
 312 0 l 1,4,-1
 250 0 l 1,5,-1
 188 0 l 1,6,-1
 125 0 l 1,7,-1
 62 0 l 1,8,-1
 0 0 l 1,9,-1
 0 62 l 1,10,-1
 62 62 l 1,11,-1
 125 62 l 1,12,-1
 188 62 l 1,13,-1
 188 125 l 1,14,-1
 188 188 l 1,15,-1
 188 250 l 1,16,-1
 125 250 l 1,17,-1
 62 250 l 1,18,-1
 0 250 l 1,19,-1
 0 312 l 1,20,-1
 62 312 l 1,21,-1
 125 312 l 1,22,-1
 188 312 l 1,23,-1
 188 375 l 1,24,-1
 188 438 l 1,25,-1
 188 500 l 1,26,-1
 250 500 l 1,27,-1
 250 438 l 1,28,-1
 250 375 l 1,29,-1
 250 312 l 1,30,-1
 312 312 l 1,31,-1
 375 312 l 1,32,-1
 438 312 l 1,33,-1
 438 250 l 1,34,-1
 375 250 l 1,35,-1
 312 250 l 1,36,-1
 250 250 l 1,37,-1
 250 188 l 1,38,-1
 250 125 l 1,39,-1
 250 62 l 1,40,-1
 312 62 l 1,41,-1
 375 62 l 1,0,-1
EndSplineSet
Validated: 1
EndChar

StartChar: uni00B2
Encoding: 178 178 115
Width: 500
Flags: W
LayerCount: 2
Fore
SplineSet
0 562 m 1,0,-1
 0 625 l 1,1,-1
 0 688 l 1,2,-1
 62 688 l 1,3,-1
 62 750 l 1,4,-1
 125 750 l 1,5,-1
 188 750 l 1,6,-1
 250 750 l 1,7,-1
 312 750 l 1,8,-1
 375 750 l 1,9,-1
 375 688 l 1,10,-1
 438 688 l 1,11,-1
 438 625 l 1,12,-1
 375 625 l 1,13,-1
 375 562 l 1,14,-1
 312 562 l 1,15,-1
 312 500 l 1,16,-1
 250 500 l 1,17,-1
 188 500 l 1,18,-1
 188 438 l 1,19,-1
 125 438 l 1,20,-1
 125 375 l 1,21,-1
 188 375 l 1,22,-1
 250 375 l 1,23,-1
 312 375 l 1,24,-1
 375 375 l 1,25,-1
 438 375 l 1,26,-1
 438 312 l 1,27,-1
 375 312 l 1,28,-1
 312 312 l 1,29,-1
 250 312 l 1,30,-1
 188 312 l 1,31,-1
 125 312 l 1,32,-1
 62 312 l 1,33,-1
 0 312 l 1,34,-1
 0 375 l 1,35,-1
 0 438 l 1,36,-1
 62 438 l 1,37,-1
 62 500 l 1,38,-1
 125 500 l 1,39,-1
 125 562 l 1,40,-1
 188 562 l 1,41,-1
 250 562 l 1,42,-1
 250 625 l 1,43,-1
 312 625 l 1,44,-1
 312 688 l 1,45,-1
 250 688 l 1,46,-1
 188 688 l 1,47,-1
 125 688 l 1,48,-1
 125 625 l 1,49,-1
 62 625 l 1,50,-1
 62 562 l 1,51,-1
 0 562 l 1,0,-1
EndSplineSet
Validated: 1
EndChar

StartChar: uni00B3
Encoding: 179 179 116
Width: 437
Flags: W
LayerCount: 2
Fore
SplineSet
0 562 m 1,0,-1
 0 625 l 1,1,-1
 0 688 l 1,2,-1
 62 688 l 1,3,-1
 62 750 l 1,4,-1
 125 750 l 1,5,-1
 188 750 l 1,6,-1
 250 750 l 1,7,-1
 312 750 l 1,8,-1
 312 688 l 1,9,-1
 375 688 l 1,10,-1
 375 625 l 1,11,-1
 375 562 l 1,12,-1
 312 562 l 1,13,-1
 312 500 l 1,14,-1
 375 500 l 1,15,-1
 375 438 l 1,16,-1
 375 375 l 1,17,-1
 312 375 l 1,18,-1
 312 312 l 1,19,-1
 250 312 l 1,20,-1
 188 312 l 1,21,-1
 125 312 l 1,22,-1
 62 312 l 1,23,-1
 0 312 l 1,24,-1
 0 375 l 1,25,-1
 0 438 l 1,26,-1
 62 438 l 1,27,-1
 62 375 l 1,28,-1
 125 375 l 1,29,-1
 188 375 l 1,30,-1
 250 375 l 1,31,-1
 312 375 l 1,32,-1
 312 438 l 1,33,-1
 250 438 l 1,34,-1
 250 500 l 1,35,-1
 188 500 l 1,36,-1
 125 500 l 1,37,-1
 125 562 l 1,38,-1
 188 562 l 1,39,-1
 250 562 l 1,40,-1
 250 625 l 1,41,-1
 250 688 l 1,42,-1
 188 688 l 1,43,-1
 125 688 l 1,44,-1
 125 625 l 1,45,-1
 62 625 l 1,46,-1
 62 562 l 1,47,-1
 0 562 l 1,0,-1
EndSplineSet
Validated: 5
EndChar

StartChar: acute
Encoding: 180 180 117
Width: 312
Flags: W
LayerCount: 2
Fore
SplineSet
125 562 m 1,0,-1
 125 625 l 1,1,-1
 188 625 l 1,2,-1
 188 562 l 1,3,-1
 125 562 l 1,0,-1
188 625 m 1,4,-1
 188 688 l 1,5,-1
 250 688 l 1,6,-1
 250 625 l 1,7,-1
 188 625 l 1,4,-1
EndSplineSet
Validated: 5
EndChar

StartChar: uni00B5
Encoding: 181 181 118
Width: 562
Flags: W
LayerCount: 2
Fore
SplineSet
438 0 m 1,0,-1
 438 62 l 1,1,-1
 375 62 l 1,2,-1
 375 0 l 1,3,-1
 312 0 l 1,4,-1
 250 0 l 1,5,-1
 188 0 l 1,6,-1
 188 -62 l 1,7,-1
 188 -125 l 1,8,-1
 188 -188 l 1,9,-1
 125 -188 l 1,10,-1
 62 -188 l 1,11,-1
 62 -125 l 1,12,-1
 62 -62 l 1,13,-1
 62 0 l 1,14,-1
 62 62 l 1,15,-1
 62 125 l 1,16,-1
 62 188 l 1,17,-1
 62 250 l 1,18,-1
 62 312 l 1,19,-1
 62 375 l 1,20,-1
 62 438 l 1,21,-1
 62 500 l 1,22,-1
 125 500 l 1,23,-1
 188 500 l 1,24,-1
 188 438 l 1,25,-1
 188 375 l 1,26,-1
 188 312 l 1,27,-1
 188 250 l 1,28,-1
 188 188 l 1,29,-1
 188 125 l 1,30,-1
 188 62 l 1,31,-1
 250 62 l 1,32,-1
 312 62 l 1,33,-1
 312 125 l 1,34,-1
 375 125 l 1,35,-1
 375 188 l 1,36,-1
 375 250 l 1,37,-1
 375 312 l 1,38,-1
 375 375 l 1,39,-1
 375 438 l 1,40,-1
 375 500 l 1,41,-1
 438 500 l 1,42,-1
 500 500 l 1,43,-1
 500 438 l 1,44,-1
 500 375 l 1,45,-1
 500 312 l 1,46,-1
 500 250 l 1,47,-1
 500 188 l 1,48,-1
 500 125 l 1,49,-1
 500 62 l 1,50,-1
 500 0 l 1,51,-1
 438 0 l 1,0,-1
EndSplineSet
Validated: 1
EndChar

StartChar: paragraph
Encoding: 182 182 119
Width: 562
Flags: W
LayerCount: 2
Fore
SplineSet
375 -188 m 1,0,-1
 375 -125 l 1,1,-1
 375 -62 l 1,2,-1
 375 0 l 1,3,-1
 375 62 l 1,4,-1
 375 125 l 1,5,-1
 375 188 l 1,6,-1
 375 250 l 1,7,-1
 375 312 l 1,8,-1
 375 375 l 1,9,-1
 375 438 l 1,10,-1
 375 500 l 1,11,-1
 375 562 l 1,12,-1
 375 625 l 1,13,-1
 312 625 l 1,14,-1
 250 625 l 1,15,-1
 250 562 l 1,16,-1
 250 500 l 1,17,-1
 250 438 l 1,18,-1
 250 375 l 1,19,-1
 250 312 l 1,20,-1
 250 250 l 1,21,-1
 250 188 l 1,22,-1
 250 125 l 1,23,-1
 250 62 l 1,24,-1
 250 0 l 1,25,-1
 250 -62 l 1,26,-1
 250 -125 l 1,27,-1
 250 -188 l 1,28,-1
 188 -188 l 1,29,-1
 188 -125 l 1,30,-1
 188 -62 l 1,31,-1
 188 0 l 1,32,-1
 188 62 l 1,33,-1
 188 125 l 1,34,-1
 188 188 l 1,35,-1
 188 250 l 1,36,-1
 188 312 l 1,37,-1
 125 312 l 1,38,-1
 62 312 l 1,39,-1
 62 375 l 1,40,-1
 0 375 l 1,41,-1
 0 438 l 1,42,-1
 0 500 l 1,43,-1
 0 562 l 1,44,-1
 0 625 l 1,45,-1
 62 625 l 1,46,-1
 62 688 l 1,47,-1
 125 688 l 1,48,-1
 188 688 l 1,49,-1
 250 688 l 1,50,-1
 312 688 l 1,51,-1
 375 688 l 1,52,-1
 438 688 l 1,53,-1
 500 688 l 1,54,-1
 500 625 l 1,55,-1
 438 625 l 1,56,-1
 438 562 l 1,57,-1
 438 500 l 1,58,-1
 438 438 l 1,59,-1
 438 375 l 1,60,-1
 438 312 l 1,61,-1
 438 250 l 1,62,-1
 438 188 l 1,63,-1
 438 125 l 1,64,-1
 438 62 l 1,65,-1
 438 0 l 1,66,-1
 438 -62 l 1,67,-1
 438 -125 l 1,68,-1
 438 -188 l 1,69,-1
 375 -188 l 1,0,-1
EndSplineSet
Validated: 1
EndChar

StartChar: periodcentered
Encoding: 183 183 120
Width: 250
Flags: W
LayerCount: 2
Fore
SplineSet
125 312 m 1,0,-1
 125 375 l 1,1,-1
 188 375 l 1,2,-1
 188 312 l 1,3,-1
 125 312 l 1,0,-1
EndSplineSet
Validated: 1
EndChar

StartChar: cedilla
Encoding: 184 184 121
Width: 312
Flags: W
LayerCount: 2
Fore
SplineSet
188 -188 m 1,0,-1
 125 -188 l 1,1,-1
 62 -188 l 1,2,-1
 62 -125 l 1,3,-1
 125 -125 l 1,4,-1
 188 -125 l 1,5,-1
 188 -62 l 1,6,-1
 250 -62 l 1,7,-1
 250 -125 l 1,8,-1
 250 -188 l 1,9,-1
 188 -188 l 1,0,-1
188 -62 m 1,10,-1
 125 -62 l 1,11,-1
 125 0 l 1,12,-1
 188 0 l 1,13,-1
 188 -62 l 1,10,-1
EndSplineSet
Validated: 5
EndChar

StartChar: uni00B9
Encoding: 185 185 122
Width: 375
Flags: W
LayerCount: 2
Fore
SplineSet
250 375 m 1,0,-1
 188 375 l 1,1,-1
 125 375 l 1,2,-1
 62 375 l 1,3,-1
 62 438 l 1,4,-1
 125 438 l 1,5,-1
 125 500 l 1,6,-1
 125 562 l 1,7,-1
 125 625 l 1,8,-1
 62 625 l 1,9,-1
 62 688 l 1,10,-1
 125 688 l 1,11,-1
 125 750 l 1,12,-1
 188 750 l 1,13,-1
 250 750 l 1,14,-1
 250 688 l 1,15,-1
 250 625 l 1,16,-1
 250 562 l 1,17,-1
 250 500 l 1,18,-1
 250 438 l 1,19,-1
 312 438 l 1,20,-1
 312 375 l 1,21,-1
 250 375 l 1,0,-1
EndSplineSet
Validated: 1
EndChar

StartChar: ordmasculine
Encoding: 186 186 123
Width: 375
Flags: W
LayerCount: 2
Fore
SplineSet
188 438 m 1,0,-1
 250 438 l 1,1,-1
 250 375 l 1,2,-1
 188 375 l 1,3,-1
 125 375 l 1,4,-1
 125 438 l 1,5,-1
 188 438 l 1,0,-1
250 438 m 1,6,-1
 250 500 l 1,7,-1
 250 562 l 1,8,-1
 250 625 l 1,9,-1
 250 688 l 1,10,-1
 312 688 l 1,11,-1
 312 625 l 1,12,-1
 312 562 l 1,13,-1
 312 500 l 1,14,-1
 312 438 l 1,15,-1
 250 438 l 1,6,-1
125 438 m 1,16,-1
 62 438 l 1,17,-1
 62 500 l 1,18,-1
 62 562 l 1,19,-1
 62 625 l 1,20,-1
 62 688 l 1,21,-1
 125 688 l 1,22,-1
 125 625 l 1,23,-1
 125 562 l 1,24,-1
 125 500 l 1,25,-1
 125 438 l 1,16,-1
250 688 m 1,26,-1
 188 688 l 1,27,-1
 125 688 l 1,28,-1
 125 750 l 1,29,-1
 188 750 l 1,30,-1
 250 750 l 1,31,-1
 250 688 l 1,26,-1
EndSplineSet
Validated: 5
EndChar

StartChar: guillemotright
Encoding: 187 187 124
Width: 500
Flags: W
LayerCount: 2
Fore
SplineSet
250 0 m 1,0,-1
 250 62 l 1,1,-1
 312 62 l 1,2,-1
 312 0 l 1,3,-1
 250 0 l 1,0,-1
62 0 m 1,4,-1
 62 62 l 1,5,-1
 125 62 l 1,6,-1
 125 0 l 1,7,-1
 62 0 l 1,4,-1
312 62 m 1,8,-1
 312 125 l 1,9,-1
 312 188 l 1,10,-1
 375 188 l 1,11,-1
 375 125 l 1,12,-1
 375 62 l 1,13,-1
 312 62 l 1,8,-1
125 62 m 1,14,-1
 125 125 l 1,15,-1
 125 188 l 1,16,-1
 188 188 l 1,17,-1
 188 125 l 1,18,-1
 188 62 l 1,19,-1
 125 62 l 1,14,-1
375 188 m 1,20,-1
 375 250 l 1,21,-1
 375 312 l 1,22,-1
 438 312 l 1,23,-1
 438 250 l 1,24,-1
 438 188 l 1,25,-1
 375 188 l 1,20,-1
188 188 m 1,26,-1
 188 250 l 1,27,-1
 188 312 l 1,28,-1
 250 312 l 1,29,-1
 250 250 l 1,30,-1
 250 188 l 1,31,-1
 188 188 l 1,26,-1
375 312 m 1,32,-1
 312 312 l 1,33,-1
 312 375 l 1,34,-1
 312 438 l 1,35,-1
 375 438 l 1,36,-1
 375 375 l 1,37,-1
 375 312 l 1,32,-1
188 312 m 1,38,-1
 125 312 l 1,39,-1
 125 375 l 1,40,-1
 125 438 l 1,41,-1
 188 438 l 1,42,-1
 188 375 l 1,43,-1
 188 312 l 1,38,-1
312 438 m 1,44,-1
 250 438 l 1,45,-1
 250 500 l 1,46,-1
 312 500 l 1,47,-1
 312 438 l 1,44,-1
125 438 m 1,48,-1
 62 438 l 1,49,-1
 62 500 l 1,50,-1
 125 500 l 1,51,-1
 125 438 l 1,48,-1
EndSplineSet
Validated: 5
EndChar

StartChar: onequarter
Encoding: 188 188 125
Width: 875
Flags: W
LayerCount: 2
Fore
SplineSet
688 0 m 1,0,-1
 688 62 l 1,1,-1
 625 62 l 1,2,-1
 562 62 l 1,3,-1
 500 62 l 1,4,-1
 500 125 l 1,5,-1
 562 125 l 1,6,-1
 562 188 l 1,7,-1
 562 250 l 1,8,-1
 625 250 l 1,9,-1
 625 312 l 1,10,-1
 688 312 l 1,11,-1
 688 375 l 1,12,-1
 750 375 l 1,13,-1
 750 312 l 1,14,-1
 750 250 l 1,15,-1
 750 188 l 1,16,-1
 750 125 l 1,17,-1
 812 125 l 1,18,-1
 812 62 l 1,19,-1
 750 62 l 1,20,-1
 750 0 l 1,21,-1
 688 0 l 1,0,-1
188 0 m 1,22,-1
 188 62 l 1,23,-1
 188 125 l 1,24,-1
 250 125 l 1,25,-1
 250 62 l 1,26,-1
 250 0 l 1,27,-1
 188 0 l 1,22,-1
688 125 m 1,28,-1
 688 188 l 1,29,-1
 625 188 l 1,30,-1
 625 125 l 1,31,-1
 688 125 l 1,28,-1
250 125 m 1,32,-1
 250 188 l 1,33,-1
 312 188 l 1,34,-1
 312 125 l 1,35,-1
 250 125 l 1,32,-1
312 188 m 1,36,-1
 312 250 l 1,37,-1
 312 312 l 1,38,-1
 375 312 l 1,39,-1
 375 250 l 1,40,-1
 375 188 l 1,41,-1
 312 188 l 1,36,-1
375 312 m 1,42,-1
 375 375 l 1,43,-1
 438 375 l 1,44,-1
 438 312 l 1,45,-1
 375 312 l 1,42,-1
438 375 m 1,46,-1
 438 438 l 1,47,-1
 500 438 l 1,48,-1
 500 375 l 1,49,-1
 438 375 l 1,46,-1
250 375 m 1,50,-1
 188 375 l 1,51,-1
 125 375 l 1,52,-1
 62 375 l 1,53,-1
 62 438 l 1,54,-1
 125 438 l 1,55,-1
 125 500 l 1,56,-1
 125 562 l 1,57,-1
 62 562 l 1,58,-1
 62 625 l 1,59,-1
 125 625 l 1,60,-1
 125 688 l 1,61,-1
 188 688 l 1,62,-1
 250 688 l 1,63,-1
 250 625 l 1,64,-1
 250 562 l 1,65,-1
 250 500 l 1,66,-1
 250 438 l 1,67,-1
 312 438 l 1,68,-1
 312 375 l 1,69,-1
 250 375 l 1,50,-1
500 438 m 1,70,-1
 500 500 l 1,71,-1
 500 562 l 1,72,-1
 562 562 l 1,73,-1
 562 500 l 1,74,-1
 562 438 l 1,75,-1
 500 438 l 1,70,-1
562 562 m 1,76,-1
 562 625 l 1,77,-1
 625 625 l 1,78,-1
 625 562 l 1,79,-1
 562 562 l 1,76,-1
625 625 m 1,80,-1
 625 688 l 1,81,-1
 688 688 l 1,82,-1
 688 625 l 1,83,-1
 625 625 l 1,80,-1
EndSplineSet
Validated: 5
EndChar

StartChar: onehalf
Encoding: 189 189 126
Width: 875
Flags: W
LayerCount: 2
Fore
SplineSet
188 0 m 1,0,-1
 188 62 l 1,1,-1
 188 125 l 1,2,-1
 250 125 l 1,3,-1
 250 62 l 1,4,-1
 250 0 l 1,5,-1
 188 0 l 1,0,-1
562 250 m 1,6,-1
 562 312 l 1,7,-1
 625 312 l 1,8,-1
 625 250 l 1,9,-1
 562 250 l 1,6,-1
750 62 m 1,10,-1
 812 62 l 1,11,-1
 812 0 l 1,12,-1
 750 0 l 1,13,-1
 688 0 l 1,14,-1
 625 0 l 1,15,-1
 562 0 l 1,16,-1
 500 0 l 1,17,-1
 500 62 l 1,18,-1
 562 62 l 1,19,-1
 562 125 l 1,20,-1
 625 125 l 1,21,-1
 688 125 l 1,22,-1
 688 62 l 1,23,-1
 750 62 l 1,10,-1
688 125 m 1,24,-1
 688 188 l 1,25,-1
 750 188 l 1,26,-1
 750 125 l 1,27,-1
 688 125 l 1,24,-1
250 125 m 1,28,-1
 250 188 l 1,29,-1
 250 250 l 1,30,-1
 312 250 l 1,31,-1
 312 188 l 1,32,-1
 312 125 l 1,33,-1
 250 125 l 1,28,-1
750 188 m 1,34,-1
 750 250 l 1,35,-1
 688 250 l 1,36,-1
 688 312 l 1,37,-1
 625 312 l 1,38,-1
 625 375 l 1,39,-1
 688 375 l 1,40,-1
 750 375 l 1,41,-1
 750 312 l 1,42,-1
 812 312 l 1,43,-1
 812 250 l 1,44,-1
 812 188 l 1,45,-1
 750 188 l 1,34,-1
312 250 m 1,46,-1
 312 312 l 1,47,-1
 375 312 l 1,48,-1
 375 250 l 1,49,-1
 312 250 l 1,46,-1
375 312 m 1,50,-1
 375 375 l 1,51,-1
 438 375 l 1,52,-1
 438 312 l 1,53,-1
 375 312 l 1,50,-1
438 375 m 1,54,-1
 438 438 l 1,55,-1
 438 500 l 1,56,-1
 500 500 l 1,57,-1
 500 438 l 1,58,-1
 500 375 l 1,59,-1
 438 375 l 1,54,-1
250 375 m 1,60,-1
 188 375 l 1,61,-1
 125 375 l 1,62,-1
 62 375 l 1,63,-1
 62 438 l 1,64,-1
 125 438 l 1,65,-1
 125 500 l 1,66,-1
 125 562 l 1,67,-1
 62 562 l 1,68,-1
 62 625 l 1,69,-1
 125 625 l 1,70,-1
 125 688 l 1,71,-1
 188 688 l 1,72,-1
 250 688 l 1,73,-1
 250 625 l 1,74,-1
 250 562 l 1,75,-1
 250 500 l 1,76,-1
 250 438 l 1,77,-1
 312 438 l 1,78,-1
 312 375 l 1,79,-1
 250 375 l 1,60,-1
500 500 m 1,80,-1
 500 562 l 1,81,-1
 562 562 l 1,82,-1
 562 500 l 1,83,-1
 500 500 l 1,80,-1
562 562 m 1,84,-1
 562 625 l 1,85,-1
 562 688 l 1,86,-1
 625 688 l 1,87,-1
 625 625 l 1,88,-1
 625 562 l 1,89,-1
 562 562 l 1,84,-1
625 688 m 1,90,-1
 625 750 l 1,91,-1
 688 750 l 1,92,-1
 688 688 l 1,93,-1
 625 688 l 1,90,-1
EndSplineSet
Validated: 5
EndChar

StartChar: threequarters
Encoding: 190 190 127
Width: 875
Flags: W
LayerCount: 2
Fore
SplineSet
688 0 m 1,0,-1
 688 62 l 1,1,-1
 625 62 l 1,2,-1
 562 62 l 1,3,-1
 500 62 l 1,4,-1
 500 125 l 1,5,-1
 562 125 l 1,6,-1
 562 188 l 1,7,-1
 562 250 l 1,8,-1
 625 250 l 1,9,-1
 625 312 l 1,10,-1
 688 312 l 1,11,-1
 688 375 l 1,12,-1
 750 375 l 1,13,-1
 750 312 l 1,14,-1
 750 250 l 1,15,-1
 750 188 l 1,16,-1
 750 125 l 1,17,-1
 812 125 l 1,18,-1
 812 62 l 1,19,-1
 750 62 l 1,20,-1
 750 0 l 1,21,-1
 688 0 l 1,0,-1
188 0 m 1,22,-1
 188 62 l 1,23,-1
 188 125 l 1,24,-1
 250 125 l 1,25,-1
 250 62 l 1,26,-1
 250 0 l 1,27,-1
 188 0 l 1,22,-1
62 625 m 1,28,-1
 62 688 l 1,29,-1
 125 688 l 1,30,-1
 125 625 l 1,31,-1
 62 625 l 1,28,-1
688 125 m 1,32,-1
 688 188 l 1,33,-1
 625 188 l 1,34,-1
 625 125 l 1,35,-1
 688 125 l 1,32,-1
250 125 m 1,36,-1
 250 188 l 1,37,-1
 312 188 l 1,38,-1
 312 125 l 1,39,-1
 250 125 l 1,36,-1
312 188 m 1,40,-1
 312 250 l 1,41,-1
 312 312 l 1,42,-1
 375 312 l 1,43,-1
 375 250 l 1,44,-1
 375 188 l 1,45,-1
 312 188 l 1,40,-1
375 312 m 1,46,-1
 375 375 l 1,47,-1
 438 375 l 1,48,-1
 438 312 l 1,49,-1
 375 312 l 1,46,-1
438 375 m 1,50,-1
 438 438 l 1,51,-1
 500 438 l 1,52,-1
 500 375 l 1,53,-1
 438 375 l 1,50,-1
188 438 m 1,54,-1
 250 438 l 1,55,-1
 250 375 l 1,56,-1
 188 375 l 1,57,-1
 125 375 l 1,58,-1
 62 375 l 1,59,-1
 62 438 l 1,60,-1
 125 438 l 1,61,-1
 188 438 l 1,54,-1
500 438 m 1,62,-1
 500 500 l 1,63,-1
 500 562 l 1,64,-1
 562 562 l 1,65,-1
 562 500 l 1,66,-1
 562 438 l 1,67,-1
 500 438 l 1,62,-1
250 438 m 1,68,-1
 250 500 l 1,69,-1
 312 500 l 1,70,-1
 312 438 l 1,71,-1
 250 438 l 1,68,-1
250 500 m 1,72,-1
 188 500 l 1,73,-1
 125 500 l 1,74,-1
 125 562 l 1,75,-1
 188 562 l 1,76,-1
 188 625 l 1,77,-1
 188 688 l 1,78,-1
 125 688 l 1,79,-1
 125 750 l 1,80,-1
 188 750 l 1,81,-1
 250 750 l 1,82,-1
 250 688 l 1,83,-1
 312 688 l 1,84,-1
 312 625 l 1,85,-1
 312 562 l 1,86,-1
 250 562 l 1,87,-1
 250 500 l 1,72,-1
562 562 m 1,88,-1
 562 625 l 1,89,-1
 625 625 l 1,90,-1
 625 562 l 1,91,-1
 562 562 l 1,88,-1
625 625 m 1,92,-1
 625 688 l 1,93,-1
 688 688 l 1,94,-1
 688 625 l 1,95,-1
 625 625 l 1,92,-1
EndSplineSet
Validated: 5
EndChar

StartChar: questiondown
Encoding: 191 191 128
Width: 562
Flags: W
LayerCount: 2
Fore
SplineSet
375 -188 m 1,0,-1
 312 -188 l 1,1,-1
 250 -188 l 1,2,-1
 188 -188 l 1,3,-1
 125 -188 l 1,4,-1
 125 -125 l 1,5,-1
 62 -125 l 1,6,-1
 62 -62 l 1,7,-1
 62 0 l 1,8,-1
 62 62 l 1,9,-1
 125 62 l 1,10,-1
 125 125 l 1,11,-1
 188 125 l 1,12,-1
 188 188 l 1,13,-1
 250 188 l 1,14,-1
 250 250 l 1,15,-1
 250 312 l 1,16,-1
 312 312 l 1,17,-1
 375 312 l 1,18,-1
 375 250 l 1,19,-1
 312 250 l 1,20,-1
 312 188 l 1,21,-1
 312 125 l 1,22,-1
 250 125 l 1,23,-1
 250 62 l 1,24,-1
 188 62 l 1,25,-1
 188 0 l 1,26,-1
 188 -62 l 1,27,-1
 188 -125 l 1,28,-1
 250 -125 l 1,29,-1
 312 -125 l 1,30,-1
 375 -125 l 1,31,-1
 375 -62 l 1,32,-1
 438 -62 l 1,33,-1
 438 0 l 1,34,-1
 500 0 l 1,35,-1
 500 -62 l 1,36,-1
 500 -125 l 1,37,-1
 438 -125 l 1,38,-1
 438 -188 l 1,39,-1
 375 -188 l 1,0,-1
312 500 m 1,40,-1
 375 500 l 1,41,-1
 375 438 l 1,42,-1
 312 438 l 1,43,-1
 250 438 l 1,44,-1
 250 500 l 1,45,-1
 312 500 l 1,40,-1
EndSplineSet
Validated: 1
EndChar

StartChar: Agrave
Encoding: 192 192 129
Width: 562
Flags: W
LayerCount: 2
Fore
SplineSet
188 625 m 1,0,-1
 188 688 l 1,1,-1
 250 688 l 1,2,-1
 250 625 l 1,3,-1
 188 625 l 1,0,-1
438 0 m 1,4,-1
 375 0 l 1,5,-1
 375 62 l 1,6,-1
 375 125 l 1,7,-1
 312 125 l 1,8,-1
 250 125 l 1,9,-1
 188 125 l 1,10,-1
 125 125 l 1,11,-1
 125 62 l 1,12,-1
 125 0 l 1,13,-1
 62 0 l 1,14,-1
 0 0 l 1,15,-1
 0 62 l 1,16,-1
 0 125 l 1,17,-1
 0 188 l 1,18,-1
 0 250 l 1,19,-1
 62 250 l 1,20,-1
 62 312 l 1,21,-1
 62 375 l 1,22,-1
 125 375 l 1,23,-1
 125 438 l 1,24,-1
 125 500 l 1,25,-1
 188 500 l 1,26,-1
 188 562 l 1,27,-1
 250 562 l 1,28,-1
 312 562 l 1,29,-1
 312 500 l 1,30,-1
 375 500 l 1,31,-1
 375 438 l 1,32,-1
 375 375 l 1,33,-1
 438 375 l 1,34,-1
 438 312 l 1,35,-1
 438 250 l 1,36,-1
 500 250 l 1,37,-1
 500 188 l 1,38,-1
 500 125 l 1,39,-1
 500 62 l 1,40,-1
 500 0 l 1,41,-1
 438 0 l 1,4,-1
250 250 m 1,42,-1
 312 250 l 1,43,-1
 312 312 l 1,44,-1
 312 375 l 1,45,-1
 312 438 l 1,46,-1
 250 438 l 1,47,-1
 188 438 l 1,48,-1
 188 375 l 1,49,-1
 188 312 l 1,50,-1
 188 250 l 1,51,-1
 250 250 l 1,42,-1
188 688 m 1,52,-1
 125 688 l 1,53,-1
 125 750 l 1,54,-1
 188 750 l 1,55,-1
 188 688 l 1,52,-1
EndSplineSet
Validated: 5
EndChar

StartChar: Aacute
Encoding: 193 193 130
Width: 562
Flags: W
LayerCount: 2
Fore
SplineSet
250 625 m 1,0,-1
 250 688 l 1,1,-1
 312 688 l 1,2,-1
 312 625 l 1,3,-1
 250 625 l 1,0,-1
438 0 m 1,4,-1
 375 0 l 1,5,-1
 375 62 l 1,6,-1
 375 125 l 1,7,-1
 312 125 l 1,8,-1
 250 125 l 1,9,-1
 188 125 l 1,10,-1
 125 125 l 1,11,-1
 125 62 l 1,12,-1
 125 0 l 1,13,-1
 62 0 l 1,14,-1
 0 0 l 1,15,-1
 0 62 l 1,16,-1
 0 125 l 1,17,-1
 0 188 l 1,18,-1
 0 250 l 1,19,-1
 62 250 l 1,20,-1
 62 312 l 1,21,-1
 62 375 l 1,22,-1
 125 375 l 1,23,-1
 125 438 l 1,24,-1
 125 500 l 1,25,-1
 188 500 l 1,26,-1
 188 562 l 1,27,-1
 250 562 l 1,28,-1
 312 562 l 1,29,-1
 312 500 l 1,30,-1
 375 500 l 1,31,-1
 375 438 l 1,32,-1
 375 375 l 1,33,-1
 438 375 l 1,34,-1
 438 312 l 1,35,-1
 438 250 l 1,36,-1
 500 250 l 1,37,-1
 500 188 l 1,38,-1
 500 125 l 1,39,-1
 500 62 l 1,40,-1
 500 0 l 1,41,-1
 438 0 l 1,4,-1
250 250 m 1,42,-1
 312 250 l 1,43,-1
 312 312 l 1,44,-1
 312 375 l 1,45,-1
 312 438 l 1,46,-1
 250 438 l 1,47,-1
 188 438 l 1,48,-1
 188 375 l 1,49,-1
 188 312 l 1,50,-1
 188 250 l 1,51,-1
 250 250 l 1,42,-1
312 688 m 1,52,-1
 312 750 l 1,53,-1
 375 750 l 1,54,-1
 375 688 l 1,55,-1
 312 688 l 1,52,-1
EndSplineSet
Validated: 5
EndChar

StartChar: Acircumflex
Encoding: 194 194 131
Width: 562
Flags: W
LayerCount: 2
Fore
SplineSet
312 625 m 1,0,-1
 312 688 l 1,1,-1
 375 688 l 1,2,-1
 375 625 l 1,3,-1
 312 625 l 1,0,-1
125 625 m 1,4,-1
 125 688 l 1,5,-1
 188 688 l 1,6,-1
 188 625 l 1,7,-1
 125 625 l 1,4,-1
438 0 m 1,8,-1
 375 0 l 1,9,-1
 375 62 l 1,10,-1
 375 125 l 1,11,-1
 312 125 l 1,12,-1
 250 125 l 1,13,-1
 188 125 l 1,14,-1
 125 125 l 1,15,-1
 125 62 l 1,16,-1
 125 0 l 1,17,-1
 62 0 l 1,18,-1
 0 0 l 1,19,-1
 0 62 l 1,20,-1
 0 125 l 1,21,-1
 0 188 l 1,22,-1
 0 250 l 1,23,-1
 62 250 l 1,24,-1
 62 312 l 1,25,-1
 62 375 l 1,26,-1
 125 375 l 1,27,-1
 125 438 l 1,28,-1
 125 500 l 1,29,-1
 188 500 l 1,30,-1
 188 562 l 1,31,-1
 250 562 l 1,32,-1
 312 562 l 1,33,-1
 312 500 l 1,34,-1
 375 500 l 1,35,-1
 375 438 l 1,36,-1
 375 375 l 1,37,-1
 438 375 l 1,38,-1
 438 312 l 1,39,-1
 438 250 l 1,40,-1
 500 250 l 1,41,-1
 500 188 l 1,42,-1
 500 125 l 1,43,-1
 500 62 l 1,44,-1
 500 0 l 1,45,-1
 438 0 l 1,8,-1
250 250 m 1,46,-1
 312 250 l 1,47,-1
 312 312 l 1,48,-1
 312 375 l 1,49,-1
 312 438 l 1,50,-1
 250 438 l 1,51,-1
 188 438 l 1,52,-1
 188 375 l 1,53,-1
 188 312 l 1,54,-1
 188 250 l 1,55,-1
 250 250 l 1,46,-1
312 688 m 1,56,-1
 250 688 l 1,57,-1
 188 688 l 1,58,-1
 188 750 l 1,59,-1
 250 750 l 1,60,-1
 312 750 l 1,61,-1
 312 688 l 1,56,-1
EndSplineSet
Validated: 5
EndChar

StartChar: Atilde
Encoding: 195 195 132
Width: 562
Flags: W
LayerCount: 2
Fore
SplineSet
62 625 m 1,0,-1
 62 688 l 1,1,-1
 125 688 l 1,2,-1
 125 625 l 1,3,-1
 62 625 l 1,0,-1
438 0 m 1,4,-1
 375 0 l 1,5,-1
 375 62 l 1,6,-1
 375 125 l 1,7,-1
 312 125 l 1,8,-1
 250 125 l 1,9,-1
 188 125 l 1,10,-1
 125 125 l 1,11,-1
 125 62 l 1,12,-1
 125 0 l 1,13,-1
 62 0 l 1,14,-1
 0 0 l 1,15,-1
 0 62 l 1,16,-1
 0 125 l 1,17,-1
 0 188 l 1,18,-1
 0 250 l 1,19,-1
 62 250 l 1,20,-1
 62 312 l 1,21,-1
 62 375 l 1,22,-1
 125 375 l 1,23,-1
 125 438 l 1,24,-1
 125 500 l 1,25,-1
 188 500 l 1,26,-1
 188 562 l 1,27,-1
 250 562 l 1,28,-1
 312 562 l 1,29,-1
 312 500 l 1,30,-1
 375 500 l 1,31,-1
 375 438 l 1,32,-1
 375 375 l 1,33,-1
 438 375 l 1,34,-1
 438 312 l 1,35,-1
 438 250 l 1,36,-1
 500 250 l 1,37,-1
 500 188 l 1,38,-1
 500 125 l 1,39,-1
 500 62 l 1,40,-1
 500 0 l 1,41,-1
 438 0 l 1,4,-1
250 250 m 1,42,-1
 312 250 l 1,43,-1
 312 312 l 1,44,-1
 312 375 l 1,45,-1
 312 438 l 1,46,-1
 250 438 l 1,47,-1
 188 438 l 1,48,-1
 188 375 l 1,49,-1
 188 312 l 1,50,-1
 188 250 l 1,51,-1
 250 250 l 1,42,-1
312 688 m 1,52,-1
 375 688 l 1,53,-1
 375 625 l 1,54,-1
 312 625 l 1,55,-1
 250 625 l 1,56,-1
 250 688 l 1,57,-1
 312 688 l 1,52,-1
375 688 m 1,58,-1
 375 750 l 1,59,-1
 438 750 l 1,60,-1
 438 688 l 1,61,-1
 375 688 l 1,58,-1
250 688 m 1,62,-1
 188 688 l 1,63,-1
 125 688 l 1,64,-1
 125 750 l 1,65,-1
 188 750 l 1,66,-1
 250 750 l 1,67,-1
 250 688 l 1,62,-1
EndSplineSet
Validated: 5
EndChar

StartChar: Adieresis
Encoding: 196 196 133
Width: 562
Flags: W
LayerCount: 2
Fore
SplineSet
312 688 m 1,0,-1
 312 750 l 1,1,-1
 375 750 l 1,2,-1
 375 688 l 1,3,-1
 312 688 l 1,0,-1
125 688 m 1,4,-1
 125 750 l 1,5,-1
 188 750 l 1,6,-1
 188 688 l 1,7,-1
 125 688 l 1,4,-1
438 0 m 1,8,-1
 375 0 l 1,9,-1
 375 62 l 1,10,-1
 375 125 l 1,11,-1
 312 125 l 1,12,-1
 250 125 l 1,13,-1
 188 125 l 1,14,-1
 125 125 l 1,15,-1
 125 62 l 1,16,-1
 125 0 l 1,17,-1
 62 0 l 1,18,-1
 0 0 l 1,19,-1
 0 62 l 1,20,-1
 0 125 l 1,21,-1
 0 188 l 1,22,-1
 0 250 l 1,23,-1
 62 250 l 1,24,-1
 62 312 l 1,25,-1
 62 375 l 1,26,-1
 62 438 l 1,27,-1
 125 438 l 1,28,-1
 125 500 l 1,29,-1
 125 562 l 1,30,-1
 188 562 l 1,31,-1
 188 625 l 1,32,-1
 250 625 l 1,33,-1
 312 625 l 1,34,-1
 312 562 l 1,35,-1
 375 562 l 1,36,-1
 375 500 l 1,37,-1
 375 438 l 1,38,-1
 438 438 l 1,39,-1
 438 375 l 1,40,-1
 438 312 l 1,41,-1
 438 250 l 1,42,-1
 500 250 l 1,43,-1
 500 188 l 1,44,-1
 500 125 l 1,45,-1
 500 62 l 1,46,-1
 500 0 l 1,47,-1
 438 0 l 1,8,-1
250 250 m 1,48,-1
 312 250 l 1,49,-1
 312 312 l 1,50,-1
 312 375 l 1,51,-1
 312 438 l 1,52,-1
 312 500 l 1,53,-1
 250 500 l 1,54,-1
 188 500 l 1,55,-1
 188 438 l 1,56,-1
 188 375 l 1,57,-1
 188 312 l 1,58,-1
 188 250 l 1,59,-1
 250 250 l 1,48,-1
EndSplineSet
Validated: 1
EndChar

StartChar: Aring
Encoding: 197 197 134
Width: 562
Flags: W
LayerCount: 2
Fore
SplineSet
438 0 m 1,0,-1
 375 0 l 1,1,-1
 375 62 l 1,2,-1
 375 125 l 1,3,-1
 312 125 l 1,4,-1
 250 125 l 1,5,-1
 188 125 l 1,6,-1
 125 125 l 1,7,-1
 125 62 l 1,8,-1
 125 0 l 1,9,-1
 62 0 l 1,10,-1
 0 0 l 1,11,-1
 0 62 l 1,12,-1
 0 125 l 1,13,-1
 0 188 l 1,14,-1
 0 250 l 1,15,-1
 62 250 l 1,16,-1
 62 312 l 1,17,-1
 62 375 l 1,18,-1
 125 375 l 1,19,-1
 125 438 l 1,20,-1
 125 500 l 1,21,-1
 188 500 l 1,22,-1
 188 562 l 1,23,-1
 250 562 l 1,24,-1
 312 562 l 1,25,-1
 312 500 l 1,26,-1
 375 500 l 1,27,-1
 375 438 l 1,28,-1
 375 375 l 1,29,-1
 438 375 l 1,30,-1
 438 312 l 1,31,-1
 438 250 l 1,32,-1
 500 250 l 1,33,-1
 500 188 l 1,34,-1
 500 125 l 1,35,-1
 500 62 l 1,36,-1
 500 0 l 1,37,-1
 438 0 l 1,0,-1
250 250 m 1,38,-1
 312 250 l 1,39,-1
 312 312 l 1,40,-1
 312 375 l 1,41,-1
 312 438 l 1,42,-1
 250 438 l 1,43,-1
 188 438 l 1,44,-1
 188 375 l 1,45,-1
 188 312 l 1,46,-1
 188 250 l 1,47,-1
 250 250 l 1,38,-1
312 562 m 1,48,-1
 312 625 l 1,49,-1
 312 688 l 1,50,-1
 375 688 l 1,51,-1
 375 625 l 1,52,-1
 375 562 l 1,53,-1
 312 562 l 1,48,-1
188 562 m 1,54,-1
 125 562 l 1,55,-1
 125 625 l 1,56,-1
 125 688 l 1,57,-1
 188 688 l 1,58,-1
 188 625 l 1,59,-1
 188 562 l 1,54,-1
312 688 m 1,60,-1
 250 688 l 1,61,-1
 188 688 l 1,62,-1
 188 750 l 1,63,-1
 250 750 l 1,64,-1
 312 750 l 1,65,-1
 312 688 l 1,60,-1
EndSplineSet
Validated: 5
EndChar

StartChar: AE
Encoding: 198 198 135
Width: 750
Flags: W
LayerCount: 2
Fore
SplineSet
625 62 m 1,0,-1
 688 62 l 1,1,-1
 688 0 l 1,2,-1
 625 0 l 1,3,-1
 562 0 l 1,4,-1
 500 0 l 1,5,-1
 438 0 l 1,6,-1
 375 0 l 1,7,-1
 312 0 l 1,8,-1
 312 62 l 1,9,-1
 312 125 l 1,10,-1
 250 125 l 1,11,-1
 188 125 l 1,12,-1
 125 125 l 1,13,-1
 125 62 l 1,14,-1
 125 0 l 1,15,-1
 62 0 l 1,16,-1
 0 0 l 1,17,-1
 0 62 l 1,18,-1
 0 125 l 1,19,-1
 0 188 l 1,20,-1
 0 250 l 1,21,-1
 62 250 l 1,22,-1
 62 312 l 1,23,-1
 62 375 l 1,24,-1
 62 438 l 1,25,-1
 125 438 l 1,26,-1
 125 500 l 1,27,-1
 125 562 l 1,28,-1
 188 562 l 1,29,-1
 188 625 l 1,30,-1
 250 625 l 1,31,-1
 312 625 l 1,32,-1
 375 625 l 1,33,-1
 438 625 l 1,34,-1
 500 625 l 1,35,-1
 562 625 l 1,36,-1
 625 625 l 1,37,-1
 688 625 l 1,38,-1
 688 562 l 1,39,-1
 625 562 l 1,40,-1
 562 562 l 1,41,-1
 500 562 l 1,42,-1
 438 562 l 1,43,-1
 438 500 l 1,44,-1
 438 438 l 1,45,-1
 438 375 l 1,46,-1
 500 375 l 1,47,-1
 562 375 l 1,48,-1
 625 375 l 1,49,-1
 688 375 l 1,50,-1
 688 312 l 1,51,-1
 625 312 l 1,52,-1
 562 312 l 1,53,-1
 500 312 l 1,54,-1
 438 312 l 1,55,-1
 438 250 l 1,56,-1
 438 188 l 1,57,-1
 438 125 l 1,58,-1
 438 62 l 1,59,-1
 500 62 l 1,60,-1
 562 62 l 1,61,-1
 625 62 l 1,0,-1
250 250 m 1,62,-1
 312 250 l 1,63,-1
 312 312 l 1,64,-1
 312 375 l 1,65,-1
 312 438 l 1,66,-1
 312 500 l 1,67,-1
 250 500 l 1,68,-1
 188 500 l 1,69,-1
 188 438 l 1,70,-1
 188 375 l 1,71,-1
 188 312 l 1,72,-1
 188 250 l 1,73,-1
 250 250 l 1,62,-1
EndSplineSet
Validated: 1
EndChar

StartChar: Ccedilla
Encoding: 199 199 136
Width: 500
Flags: W
LayerCount: 2
Fore
SplineSet
375 438 m 1,0,-1
 375 500 l 1,1,-1
 312 500 l 1,2,-1
 312 562 l 1,3,-1
 250 562 l 1,4,-1
 250 500 l 1,5,-1
 188 500 l 1,6,-1
 188 438 l 1,7,-1
 125 438 l 1,8,-1
 125 375 l 1,9,-1
 125 312 l 1,10,-1
 125 250 l 1,11,-1
 125 188 l 1,12,-1
 125 125 l 1,13,-1
 188 125 l 1,14,-1
 188 62 l 1,15,-1
 250 62 l 1,16,-1
 312 62 l 1,17,-1
 312 125 l 1,18,-1
 375 125 l 1,19,-1
 375 188 l 1,20,-1
 438 188 l 1,21,-1
 438 125 l 1,22,-1
 438 62 l 1,23,-1
 375 62 l 1,24,-1
 375 0 l 1,25,-1
 312 0 l 1,26,-1
 312 -62 l 1,27,-1
 375 -62 l 1,28,-1
 375 -125 l 1,29,-1
 312 -125 l 1,30,-1
 312 -188 l 1,31,-1
 250 -188 l 1,32,-1
 188 -188 l 1,33,-1
 188 -125 l 1,34,-1
 250 -125 l 1,35,-1
 312 -125 l 1,36,-1
 312 -62 l 1,37,-1
 250 -62 l 1,38,-1
 250 0 l 1,39,-1
 188 0 l 1,40,-1
 125 0 l 1,41,-1
 125 62 l 1,42,-1
 62 62 l 1,43,-1
 62 125 l 1,44,-1
 0 125 l 1,45,-1
 0 188 l 1,46,-1
 0 250 l 1,47,-1
 0 312 l 1,48,-1
 0 375 l 1,49,-1
 0 438 l 1,50,-1
 62 438 l 1,51,-1
 62 500 l 1,52,-1
 125 500 l 1,53,-1
 125 562 l 1,54,-1
 188 562 l 1,55,-1
 188 625 l 1,56,-1
 250 625 l 1,57,-1
 312 625 l 1,58,-1
 375 625 l 1,59,-1
 375 562 l 1,60,-1
 438 562 l 1,61,-1
 438 500 l 1,62,-1
 438 438 l 1,63,-1
 375 438 l 1,0,-1
EndSplineSet
Validated: 5
EndChar

StartChar: Egrave
Encoding: 200 200 137
Width: 500
Flags: W
LayerCount: 2
Fore
SplineSet
312 250 m 1,0,-1
 312 312 l 1,1,-1
 250 312 l 1,2,-1
 188 312 l 1,3,-1
 125 312 l 1,4,-1
 125 250 l 1,5,-1
 125 188 l 1,6,-1
 125 125 l 1,7,-1
 125 62 l 1,8,-1
 188 62 l 1,9,-1
 250 62 l 1,10,-1
 312 62 l 1,11,-1
 375 62 l 1,12,-1
 375 125 l 1,13,-1
 438 125 l 1,14,-1
 438 62 l 1,15,-1
 438 0 l 1,16,-1
 375 0 l 1,17,-1
 312 0 l 1,18,-1
 250 0 l 1,19,-1
 188 0 l 1,20,-1
 125 0 l 1,21,-1
 62 0 l 1,22,-1
 0 0 l 1,23,-1
 0 62 l 1,24,-1
 0 125 l 1,25,-1
 0 188 l 1,26,-1
 0 250 l 1,27,-1
 0 312 l 1,28,-1
 0 375 l 1,29,-1
 0 438 l 1,30,-1
 0 500 l 1,31,-1
 62 500 l 1,32,-1
 62 562 l 1,33,-1
 125 562 l 1,34,-1
 188 562 l 1,35,-1
 250 562 l 1,36,-1
 312 562 l 1,37,-1
 375 562 l 1,38,-1
 438 562 l 1,39,-1
 438 500 l 1,40,-1
 438 438 l 1,41,-1
 375 438 l 1,42,-1
 375 500 l 1,43,-1
 312 500 l 1,44,-1
 250 500 l 1,45,-1
 188 500 l 1,46,-1
 125 500 l 1,47,-1
 125 438 l 1,48,-1
 125 375 l 1,49,-1
 188 375 l 1,50,-1
 250 375 l 1,51,-1
 312 375 l 1,52,-1
 375 375 l 1,53,-1
 375 312 l 1,54,-1
 375 250 l 1,55,-1
 312 250 l 1,0,-1
188 625 m 1,56,-1
 188 688 l 1,57,-1
 250 688 l 1,58,-1
 250 625 l 1,59,-1
 188 625 l 1,56,-1
188 688 m 1,60,-1
 125 688 l 1,61,-1
 125 750 l 1,62,-1
 188 750 l 1,63,-1
 188 688 l 1,60,-1
EndSplineSet
Validated: 5
EndChar

StartChar: Eacute
Encoding: 201 201 138
Width: 500
Flags: W
LayerCount: 2
Fore
SplineSet
312 250 m 1,0,-1
 312 312 l 1,1,-1
 250 312 l 1,2,-1
 188 312 l 1,3,-1
 125 312 l 1,4,-1
 125 250 l 1,5,-1
 125 188 l 1,6,-1
 125 125 l 1,7,-1
 125 62 l 1,8,-1
 188 62 l 1,9,-1
 250 62 l 1,10,-1
 312 62 l 1,11,-1
 375 62 l 1,12,-1
 375 125 l 1,13,-1
 438 125 l 1,14,-1
 438 62 l 1,15,-1
 438 0 l 1,16,-1
 375 0 l 1,17,-1
 312 0 l 1,18,-1
 250 0 l 1,19,-1
 188 0 l 1,20,-1
 125 0 l 1,21,-1
 62 0 l 1,22,-1
 0 0 l 1,23,-1
 0 62 l 1,24,-1
 0 125 l 1,25,-1
 0 188 l 1,26,-1
 0 250 l 1,27,-1
 0 312 l 1,28,-1
 0 375 l 1,29,-1
 0 438 l 1,30,-1
 0 500 l 1,31,-1
 62 500 l 1,32,-1
 62 562 l 1,33,-1
 125 562 l 1,34,-1
 188 562 l 1,35,-1
 250 562 l 1,36,-1
 312 562 l 1,37,-1
 375 562 l 1,38,-1
 438 562 l 1,39,-1
 438 500 l 1,40,-1
 438 438 l 1,41,-1
 375 438 l 1,42,-1
 375 500 l 1,43,-1
 312 500 l 1,44,-1
 250 500 l 1,45,-1
 188 500 l 1,46,-1
 125 500 l 1,47,-1
 125 438 l 1,48,-1
 125 375 l 1,49,-1
 188 375 l 1,50,-1
 250 375 l 1,51,-1
 312 375 l 1,52,-1
 375 375 l 1,53,-1
 375 312 l 1,54,-1
 375 250 l 1,55,-1
 312 250 l 1,0,-1
188 625 m 1,56,-1
 188 688 l 1,57,-1
 250 688 l 1,58,-1
 250 625 l 1,59,-1
 188 625 l 1,56,-1
250 688 m 1,60,-1
 250 750 l 1,61,-1
 312 750 l 1,62,-1
 312 688 l 1,63,-1
 250 688 l 1,60,-1
EndSplineSet
Validated: 5
EndChar

StartChar: Ecircumflex
Encoding: 202 202 139
Width: 500
Flags: W
LayerCount: 2
Fore
SplineSet
312 250 m 1,0,-1
 312 312 l 1,1,-1
 250 312 l 1,2,-1
 188 312 l 1,3,-1
 125 312 l 1,4,-1
 125 250 l 1,5,-1
 125 188 l 1,6,-1
 125 125 l 1,7,-1
 125 62 l 1,8,-1
 188 62 l 1,9,-1
 250 62 l 1,10,-1
 312 62 l 1,11,-1
 375 62 l 1,12,-1
 375 125 l 1,13,-1
 438 125 l 1,14,-1
 438 62 l 1,15,-1
 438 0 l 1,16,-1
 375 0 l 1,17,-1
 312 0 l 1,18,-1
 250 0 l 1,19,-1
 188 0 l 1,20,-1
 125 0 l 1,21,-1
 62 0 l 1,22,-1
 0 0 l 1,23,-1
 0 62 l 1,24,-1
 0 125 l 1,25,-1
 0 188 l 1,26,-1
 0 250 l 1,27,-1
 0 312 l 1,28,-1
 0 375 l 1,29,-1
 0 438 l 1,30,-1
 0 500 l 1,31,-1
 62 500 l 1,32,-1
 62 562 l 1,33,-1
 125 562 l 1,34,-1
 188 562 l 1,35,-1
 250 562 l 1,36,-1
 312 562 l 1,37,-1
 375 562 l 1,38,-1
 438 562 l 1,39,-1
 438 500 l 1,40,-1
 438 438 l 1,41,-1
 375 438 l 1,42,-1
 375 500 l 1,43,-1
 312 500 l 1,44,-1
 250 500 l 1,45,-1
 188 500 l 1,46,-1
 125 500 l 1,47,-1
 125 438 l 1,48,-1
 125 375 l 1,49,-1
 188 375 l 1,50,-1
 250 375 l 1,51,-1
 312 375 l 1,52,-1
 375 375 l 1,53,-1
 375 312 l 1,54,-1
 375 250 l 1,55,-1
 312 250 l 1,0,-1
250 625 m 1,56,-1
 250 688 l 1,57,-1
 312 688 l 1,58,-1
 312 625 l 1,59,-1
 250 625 l 1,56,-1
125 625 m 1,60,-1
 125 688 l 1,61,-1
 188 688 l 1,62,-1
 188 625 l 1,63,-1
 125 625 l 1,60,-1
250 688 m 1,64,-1
 188 688 l 1,65,-1
 188 750 l 1,66,-1
 250 750 l 1,67,-1
 250 688 l 1,64,-1
EndSplineSet
Validated: 5
EndChar

StartChar: Edieresis
Encoding: 203 203 140
Width: 500
Flags: W
LayerCount: 2
Fore
SplineSet
312 250 m 1,0,-1
 312 312 l 1,1,-1
 250 312 l 1,2,-1
 188 312 l 1,3,-1
 125 312 l 1,4,-1
 125 250 l 1,5,-1
 125 188 l 1,6,-1
 125 125 l 1,7,-1
 125 62 l 1,8,-1
 188 62 l 1,9,-1
 250 62 l 1,10,-1
 312 62 l 1,11,-1
 375 62 l 1,12,-1
 375 125 l 1,13,-1
 438 125 l 1,14,-1
 438 62 l 1,15,-1
 438 0 l 1,16,-1
 375 0 l 1,17,-1
 312 0 l 1,18,-1
 250 0 l 1,19,-1
 188 0 l 1,20,-1
 125 0 l 1,21,-1
 62 0 l 1,22,-1
 0 0 l 1,23,-1
 0 62 l 1,24,-1
 0 125 l 1,25,-1
 0 188 l 1,26,-1
 0 250 l 1,27,-1
 0 312 l 1,28,-1
 0 375 l 1,29,-1
 0 438 l 1,30,-1
 0 500 l 1,31,-1
 0 562 l 1,32,-1
 62 562 l 1,33,-1
 62 625 l 1,34,-1
 125 625 l 1,35,-1
 188 625 l 1,36,-1
 250 625 l 1,37,-1
 312 625 l 1,38,-1
 375 625 l 1,39,-1
 438 625 l 1,40,-1
 438 562 l 1,41,-1
 438 500 l 1,42,-1
 375 500 l 1,43,-1
 375 562 l 1,44,-1
 312 562 l 1,45,-1
 250 562 l 1,46,-1
 188 562 l 1,47,-1
 125 562 l 1,48,-1
 125 500 l 1,49,-1
 125 438 l 1,50,-1
 125 375 l 1,51,-1
 188 375 l 1,52,-1
 250 375 l 1,53,-1
 312 375 l 1,54,-1
 312 438 l 1,55,-1
 375 438 l 1,56,-1
 375 375 l 1,57,-1
 375 312 l 1,58,-1
 375 250 l 1,59,-1
 312 250 l 1,0,-1
312 688 m 1,60,-1
 312 750 l 1,61,-1
 375 750 l 1,62,-1
 375 688 l 1,63,-1
 312 688 l 1,60,-1
125 688 m 1,64,-1
 125 750 l 1,65,-1
 188 750 l 1,66,-1
 188 688 l 1,67,-1
 125 688 l 1,64,-1
EndSplineSet
Validated: 1
EndChar

StartChar: Igrave
Encoding: 204 204 141
Width: 312
Flags: W
LayerCount: 2
Fore
SplineSet
125 625 m 1,0,-1
 125 688 l 1,1,-1
 188 688 l 1,2,-1
 188 625 l 1,3,-1
 125 625 l 1,0,-1
188 0 m 1,4,-1
 125 0 l 1,5,-1
 62 0 l 1,6,-1
 62 62 l 1,7,-1
 62 125 l 1,8,-1
 62 188 l 1,9,-1
 62 250 l 1,10,-1
 62 312 l 1,11,-1
 62 375 l 1,12,-1
 62 438 l 1,13,-1
 62 500 l 1,14,-1
 0 500 l 1,15,-1
 0 562 l 1,16,-1
 62 562 l 1,17,-1
 125 562 l 1,18,-1
 188 562 l 1,19,-1
 188 500 l 1,20,-1
 188 438 l 1,21,-1
 188 375 l 1,22,-1
 188 312 l 1,23,-1
 188 250 l 1,24,-1
 188 188 l 1,25,-1
 188 125 l 1,26,-1
 188 62 l 1,27,-1
 250 62 l 1,28,-1
 250 0 l 1,29,-1
 188 0 l 1,4,-1
125 688 m 1,30,-1
 62 688 l 1,31,-1
 62 750 l 1,32,-1
 125 750 l 1,33,-1
 125 688 l 1,30,-1
EndSplineSet
Validated: 5
EndChar

StartChar: Iacute
Encoding: 205 205 142
Width: 312
Flags: W
LayerCount: 2
Fore
SplineSet
62 625 m 1,0,-1
 62 688 l 1,1,-1
 125 688 l 1,2,-1
 125 625 l 1,3,-1
 62 625 l 1,0,-1
188 0 m 1,4,-1
 125 0 l 1,5,-1
 62 0 l 1,6,-1
 62 62 l 1,7,-1
 62 125 l 1,8,-1
 62 188 l 1,9,-1
 62 250 l 1,10,-1
 62 312 l 1,11,-1
 62 375 l 1,12,-1
 62 438 l 1,13,-1
 62 500 l 1,14,-1
 0 500 l 1,15,-1
 0 562 l 1,16,-1
 62 562 l 1,17,-1
 125 562 l 1,18,-1
 188 562 l 1,19,-1
 188 500 l 1,20,-1
 188 438 l 1,21,-1
 188 375 l 1,22,-1
 188 312 l 1,23,-1
 188 250 l 1,24,-1
 188 188 l 1,25,-1
 188 125 l 1,26,-1
 188 62 l 1,27,-1
 250 62 l 1,28,-1
 250 0 l 1,29,-1
 188 0 l 1,4,-1
125 688 m 1,30,-1
 125 750 l 1,31,-1
 188 750 l 1,32,-1
 188 688 l 1,33,-1
 125 688 l 1,30,-1
EndSplineSet
Validated: 5
EndChar

StartChar: Icircumflex
Encoding: 206 206 143
Width: 312
Flags: W
LayerCount: 2
Fore
SplineSet
125 625 m 1,0,-1
 125 688 l 1,1,-1
 188 688 l 1,2,-1
 188 625 l 1,3,-1
 125 625 l 1,0,-1
0 625 m 1,4,-1
 0 688 l 1,5,-1
 62 688 l 1,6,-1
 62 625 l 1,7,-1
 0 625 l 1,4,-1
188 0 m 1,8,-1
 125 0 l 1,9,-1
 62 0 l 1,10,-1
 62 62 l 1,11,-1
 62 125 l 1,12,-1
 62 188 l 1,13,-1
 62 250 l 1,14,-1
 62 312 l 1,15,-1
 62 375 l 1,16,-1
 62 438 l 1,17,-1
 62 500 l 1,18,-1
 0 500 l 1,19,-1
 0 562 l 1,20,-1
 62 562 l 1,21,-1
 125 562 l 1,22,-1
 188 562 l 1,23,-1
 188 500 l 1,24,-1
 188 438 l 1,25,-1
 188 375 l 1,26,-1
 188 312 l 1,27,-1
 188 250 l 1,28,-1
 188 188 l 1,29,-1
 188 125 l 1,30,-1
 188 62 l 1,31,-1
 250 62 l 1,32,-1
 250 0 l 1,33,-1
 188 0 l 1,8,-1
125 688 m 1,34,-1
 62 688 l 1,35,-1
 62 750 l 1,36,-1
 125 750 l 1,37,-1
 125 688 l 1,34,-1
EndSplineSet
Validated: 5
EndChar

StartChar: Idieresis
Encoding: 207 207 144
Width: 312
Flags: W
LayerCount: 2
Fore
SplineSet
125 688 m 1,0,-1
 125 750 l 1,1,-1
 188 750 l 1,2,-1
 188 688 l 1,3,-1
 125 688 l 1,0,-1
0 688 m 1,4,-1
 0 750 l 1,5,-1
 62 750 l 1,6,-1
 62 688 l 1,7,-1
 0 688 l 1,4,-1
188 0 m 1,8,-1
 125 0 l 1,9,-1
 62 0 l 1,10,-1
 62 62 l 1,11,-1
 62 125 l 1,12,-1
 62 188 l 1,13,-1
 62 250 l 1,14,-1
 62 312 l 1,15,-1
 62 375 l 1,16,-1
 62 438 l 1,17,-1
 62 500 l 1,18,-1
 62 562 l 1,19,-1
 0 562 l 1,20,-1
 0 625 l 1,21,-1
 62 625 l 1,22,-1
 125 625 l 1,23,-1
 188 625 l 1,24,-1
 188 562 l 1,25,-1
 188 500 l 1,26,-1
 188 438 l 1,27,-1
 188 375 l 1,28,-1
 188 312 l 1,29,-1
 188 250 l 1,30,-1
 188 188 l 1,31,-1
 188 125 l 1,32,-1
 188 62 l 1,33,-1
 250 62 l 1,34,-1
 250 0 l 1,35,-1
 188 0 l 1,8,-1
EndSplineSet
Validated: 1
EndChar

StartChar: Eth
Encoding: 208 208 145
Width: 625
Flags: W
LayerCount: 2
Fore
SplineSet
375 0 m 1,0,-1
 312 0 l 1,1,-1
 250 0 l 1,2,-1
 188 0 l 1,3,-1
 125 0 l 1,4,-1
 62 0 l 1,5,-1
 62 62 l 1,6,-1
 62 125 l 1,7,-1
 62 188 l 1,8,-1
 62 250 l 1,9,-1
 62 312 l 1,10,-1
 0 312 l 1,11,-1
 0 375 l 1,12,-1
 62 375 l 1,13,-1
 62 438 l 1,14,-1
 62 500 l 1,15,-1
 62 562 l 1,16,-1
 0 562 l 1,17,-1
 0 625 l 1,18,-1
 62 625 l 1,19,-1
 125 625 l 1,20,-1
 188 625 l 1,21,-1
 250 625 l 1,22,-1
 312 625 l 1,23,-1
 375 625 l 1,24,-1
 438 625 l 1,25,-1
 438 562 l 1,26,-1
 500 562 l 1,27,-1
 500 500 l 1,28,-1
 562 500 l 1,29,-1
 562 438 l 1,30,-1
 562 375 l 1,31,-1
 562 312 l 1,32,-1
 562 250 l 1,33,-1
 562 188 l 1,34,-1
 562 125 l 1,35,-1
 500 125 l 1,36,-1
 500 62 l 1,37,-1
 438 62 l 1,38,-1
 438 0 l 1,39,-1
 375 0 l 1,0,-1
312 62 m 1,40,-1
 375 62 l 1,41,-1
 375 125 l 1,42,-1
 438 125 l 1,43,-1
 438 188 l 1,44,-1
 438 250 l 1,45,-1
 438 312 l 1,46,-1
 438 375 l 1,47,-1
 438 438 l 1,48,-1
 438 500 l 1,49,-1
 375 500 l 1,50,-1
 375 562 l 1,51,-1
 312 562 l 1,52,-1
 250 562 l 1,53,-1
 250 500 l 1,54,-1
 188 500 l 1,55,-1
 188 438 l 1,56,-1
 188 375 l 1,57,-1
 250 375 l 1,58,-1
 312 375 l 1,59,-1
 312 312 l 1,60,-1
 250 312 l 1,61,-1
 188 312 l 1,62,-1
 188 250 l 1,63,-1
 188 188 l 1,64,-1
 188 125 l 1,65,-1
 188 62 l 1,66,-1
 250 62 l 1,67,-1
 312 62 l 1,40,-1
EndSplineSet
Validated: 1
EndChar

StartChar: Ntilde
Encoding: 209 209 146
Width: 750
Flags: W
LayerCount: 2
Fore
SplineSet
125 625 m 1,0,-1
 125 688 l 1,1,-1
 188 688 l 1,2,-1
 188 625 l 1,3,-1
 125 625 l 1,0,-1
562 0 m 1,4,-1
 500 0 l 1,5,-1
 500 62 l 1,6,-1
 438 62 l 1,7,-1
 438 125 l 1,8,-1
 438 188 l 1,9,-1
 375 188 l 1,10,-1
 375 250 l 1,11,-1
 312 250 l 1,12,-1
 312 312 l 1,13,-1
 250 312 l 1,14,-1
 250 375 l 1,15,-1
 188 375 l 1,16,-1
 188 312 l 1,17,-1
 188 250 l 1,18,-1
 188 188 l 1,19,-1
 188 125 l 1,20,-1
 188 62 l 1,21,-1
 188 0 l 1,22,-1
 125 0 l 1,23,-1
 62 0 l 1,24,-1
 0 0 l 1,25,-1
 0 62 l 1,26,-1
 62 62 l 1,27,-1
 62 125 l 1,28,-1
 62 188 l 1,29,-1
 62 250 l 1,30,-1
 62 312 l 1,31,-1
 62 375 l 1,32,-1
 62 438 l 1,33,-1
 62 500 l 1,34,-1
 62 562 l 1,35,-1
 125 562 l 1,36,-1
 188 562 l 1,37,-1
 250 562 l 1,38,-1
 250 500 l 1,39,-1
 312 500 l 1,40,-1
 312 438 l 1,41,-1
 375 438 l 1,42,-1
 375 375 l 1,43,-1
 438 375 l 1,44,-1
 438 312 l 1,45,-1
 438 250 l 1,46,-1
 500 250 l 1,47,-1
 500 312 l 1,48,-1
 500 375 l 1,49,-1
 500 438 l 1,50,-1
 500 500 l 1,51,-1
 500 562 l 1,52,-1
 562 562 l 1,53,-1
 625 562 l 1,54,-1
 688 562 l 1,55,-1
 688 500 l 1,56,-1
 625 500 l 1,57,-1
 625 438 l 1,58,-1
 625 375 l 1,59,-1
 625 312 l 1,60,-1
 625 250 l 1,61,-1
 625 188 l 1,62,-1
 625 125 l 1,63,-1
 625 62 l 1,64,-1
 625 0 l 1,65,-1
 562 0 l 1,4,-1
500 562 m 1,66,-1
 438 562 l 1,67,-1
 375 562 l 1,68,-1
 375 625 l 1,69,-1
 438 625 l 1,70,-1
 500 625 l 1,71,-1
 500 562 l 1,66,-1
500 625 m 1,72,-1
 500 688 l 1,73,-1
 562 688 l 1,74,-1
 562 625 l 1,75,-1
 500 625 l 1,72,-1
375 625 m 1,76,-1
 312 625 l 1,77,-1
 312 688 l 1,78,-1
 375 688 l 1,79,-1
 375 625 l 1,76,-1
312 688 m 1,80,-1
 250 688 l 1,81,-1
 188 688 l 1,82,-1
 188 750 l 1,83,-1
 250 750 l 1,84,-1
 312 750 l 1,85,-1
 312 688 l 1,80,-1
EndSplineSet
Validated: 5
EndChar

StartChar: Ograve
Encoding: 210 210 147
Width: 562
Flags: W
LayerCount: 2
Fore
SplineSet
188 625 m 1,0,-1
 188 688 l 1,1,-1
 250 688 l 1,2,-1
 250 625 l 1,3,-1
 188 625 l 1,0,-1
375 0 m 1,4,-1
 312 0 l 1,5,-1
 250 0 l 1,6,-1
 188 0 l 1,7,-1
 125 0 l 1,8,-1
 125 62 l 1,9,-1
 62 62 l 1,10,-1
 62 125 l 1,11,-1
 0 125 l 1,12,-1
 0 188 l 1,13,-1
 0 250 l 1,14,-1
 0 312 l 1,15,-1
 0 375 l 1,16,-1
 0 438 l 1,17,-1
 0 500 l 1,18,-1
 62 500 l 1,19,-1
 62 562 l 1,20,-1
 125 562 l 1,21,-1
 188 562 l 1,22,-1
 250 562 l 1,23,-1
 312 562 l 1,24,-1
 375 562 l 1,25,-1
 375 500 l 1,26,-1
 438 500 l 1,27,-1
 438 438 l 1,28,-1
 500 438 l 1,29,-1
 500 375 l 1,30,-1
 500 312 l 1,31,-1
 500 250 l 1,32,-1
 500 188 l 1,33,-1
 500 125 l 1,34,-1
 500 62 l 1,35,-1
 438 62 l 1,36,-1
 438 0 l 1,37,-1
 375 0 l 1,4,-1
312 62 m 1,38,-1
 375 62 l 1,39,-1
 375 125 l 1,40,-1
 375 188 l 1,41,-1
 375 250 l 1,42,-1
 375 312 l 1,43,-1
 375 375 l 1,44,-1
 375 438 l 1,45,-1
 312 438 l 1,46,-1
 312 500 l 1,47,-1
 250 500 l 1,48,-1
 188 500 l 1,49,-1
 125 500 l 1,50,-1
 125 438 l 1,51,-1
 125 375 l 1,52,-1
 125 312 l 1,53,-1
 125 250 l 1,54,-1
 125 188 l 1,55,-1
 125 125 l 1,56,-1
 188 125 l 1,57,-1
 188 62 l 1,58,-1
 250 62 l 1,59,-1
 312 62 l 1,38,-1
188 688 m 1,60,-1
 125 688 l 1,61,-1
 125 750 l 1,62,-1
 188 750 l 1,63,-1
 188 688 l 1,60,-1
EndSplineSet
Validated: 5
EndChar

StartChar: Oacute
Encoding: 211 211 148
Width: 562
Flags: W
LayerCount: 2
Fore
SplineSet
188 625 m 1,0,-1
 188 688 l 1,1,-1
 250 688 l 1,2,-1
 250 625 l 1,3,-1
 188 625 l 1,0,-1
375 0 m 1,4,-1
 312 0 l 1,5,-1
 250 0 l 1,6,-1
 188 0 l 1,7,-1
 125 0 l 1,8,-1
 125 62 l 1,9,-1
 62 62 l 1,10,-1
 62 125 l 1,11,-1
 0 125 l 1,12,-1
 0 188 l 1,13,-1
 0 250 l 1,14,-1
 0 312 l 1,15,-1
 0 375 l 1,16,-1
 0 438 l 1,17,-1
 0 500 l 1,18,-1
 62 500 l 1,19,-1
 62 562 l 1,20,-1
 125 562 l 1,21,-1
 188 562 l 1,22,-1
 250 562 l 1,23,-1
 312 562 l 1,24,-1
 375 562 l 1,25,-1
 375 500 l 1,26,-1
 438 500 l 1,27,-1
 438 438 l 1,28,-1
 500 438 l 1,29,-1
 500 375 l 1,30,-1
 500 312 l 1,31,-1
 500 250 l 1,32,-1
 500 188 l 1,33,-1
 500 125 l 1,34,-1
 500 62 l 1,35,-1
 438 62 l 1,36,-1
 438 0 l 1,37,-1
 375 0 l 1,4,-1
312 62 m 1,38,-1
 375 62 l 1,39,-1
 375 125 l 1,40,-1
 375 188 l 1,41,-1
 375 250 l 1,42,-1
 375 312 l 1,43,-1
 375 375 l 1,44,-1
 375 438 l 1,45,-1
 312 438 l 1,46,-1
 312 500 l 1,47,-1
 250 500 l 1,48,-1
 188 500 l 1,49,-1
 125 500 l 1,50,-1
 125 438 l 1,51,-1
 125 375 l 1,52,-1
 125 312 l 1,53,-1
 125 250 l 1,54,-1
 125 188 l 1,55,-1
 125 125 l 1,56,-1
 188 125 l 1,57,-1
 188 62 l 1,58,-1
 250 62 l 1,59,-1
 312 62 l 1,38,-1
250 688 m 1,60,-1
 250 750 l 1,61,-1
 312 750 l 1,62,-1
 312 688 l 1,63,-1
 250 688 l 1,60,-1
EndSplineSet
Validated: 5
EndChar

StartChar: Ocircumflex
Encoding: 212 212 149
Width: 562
Flags: W
LayerCount: 2
Fore
SplineSet
250 625 m 1,0,-1
 250 688 l 1,1,-1
 312 688 l 1,2,-1
 312 625 l 1,3,-1
 250 625 l 1,0,-1
125 625 m 1,4,-1
 125 688 l 1,5,-1
 188 688 l 1,6,-1
 188 625 l 1,7,-1
 125 625 l 1,4,-1
375 0 m 1,8,-1
 312 0 l 1,9,-1
 250 0 l 1,10,-1
 188 0 l 1,11,-1
 125 0 l 1,12,-1
 125 62 l 1,13,-1
 62 62 l 1,14,-1
 62 125 l 1,15,-1
 0 125 l 1,16,-1
 0 188 l 1,17,-1
 0 250 l 1,18,-1
 0 312 l 1,19,-1
 0 375 l 1,20,-1
 0 438 l 1,21,-1
 0 500 l 1,22,-1
 62 500 l 1,23,-1
 62 562 l 1,24,-1
 125 562 l 1,25,-1
 188 562 l 1,26,-1
 250 562 l 1,27,-1
 312 562 l 1,28,-1
 375 562 l 1,29,-1
 375 500 l 1,30,-1
 438 500 l 1,31,-1
 438 438 l 1,32,-1
 500 438 l 1,33,-1
 500 375 l 1,34,-1
 500 312 l 1,35,-1
 500 250 l 1,36,-1
 500 188 l 1,37,-1
 500 125 l 1,38,-1
 500 62 l 1,39,-1
 438 62 l 1,40,-1
 438 0 l 1,41,-1
 375 0 l 1,8,-1
312 62 m 1,42,-1
 375 62 l 1,43,-1
 375 125 l 1,44,-1
 375 188 l 1,45,-1
 375 250 l 1,46,-1
 375 312 l 1,47,-1
 375 375 l 1,48,-1
 375 438 l 1,49,-1
 312 438 l 1,50,-1
 312 500 l 1,51,-1
 250 500 l 1,52,-1
 188 500 l 1,53,-1
 125 500 l 1,54,-1
 125 438 l 1,55,-1
 125 375 l 1,56,-1
 125 312 l 1,57,-1
 125 250 l 1,58,-1
 125 188 l 1,59,-1
 125 125 l 1,60,-1
 188 125 l 1,61,-1
 188 62 l 1,62,-1
 250 62 l 1,63,-1
 312 62 l 1,42,-1
250 688 m 1,64,-1
 188 688 l 1,65,-1
 188 750 l 1,66,-1
 250 750 l 1,67,-1
 250 688 l 1,64,-1
EndSplineSet
Validated: 5
EndChar

StartChar: Otilde
Encoding: 213 213 150
Width: 562
Flags: W
LayerCount: 2
Fore
SplineSet
0 625 m 1,0,-1
 0 688 l 1,1,-1
 62 688 l 1,2,-1
 62 625 l 1,3,-1
 0 625 l 1,0,-1
375 0 m 1,4,-1
 312 0 l 1,5,-1
 250 0 l 1,6,-1
 188 0 l 1,7,-1
 125 0 l 1,8,-1
 125 62 l 1,9,-1
 62 62 l 1,10,-1
 62 125 l 1,11,-1
 0 125 l 1,12,-1
 0 188 l 1,13,-1
 0 250 l 1,14,-1
 0 312 l 1,15,-1
 0 375 l 1,16,-1
 0 438 l 1,17,-1
 62 438 l 1,18,-1
 62 500 l 1,19,-1
 125 500 l 1,20,-1
 188 500 l 1,21,-1
 250 500 l 1,22,-1
 312 500 l 1,23,-1
 375 500 l 1,24,-1
 375 438 l 1,25,-1
 438 438 l 1,26,-1
 438 375 l 1,27,-1
 500 375 l 1,28,-1
 500 312 l 1,29,-1
 500 250 l 1,30,-1
 500 188 l 1,31,-1
 500 125 l 1,32,-1
 500 62 l 1,33,-1
 438 62 l 1,34,-1
 438 0 l 1,35,-1
 375 0 l 1,4,-1
312 62 m 1,36,-1
 375 62 l 1,37,-1
 375 125 l 1,38,-1
 375 188 l 1,39,-1
 375 250 l 1,40,-1
 375 312 l 1,41,-1
 375 375 l 1,42,-1
 312 375 l 1,43,-1
 312 438 l 1,44,-1
 250 438 l 1,45,-1
 188 438 l 1,46,-1
 125 438 l 1,47,-1
 125 375 l 1,48,-1
 125 312 l 1,49,-1
 125 250 l 1,50,-1
 125 188 l 1,51,-1
 125 125 l 1,52,-1
 188 125 l 1,53,-1
 188 62 l 1,54,-1
 250 62 l 1,55,-1
 312 62 l 1,36,-1
312 625 m 1,56,-1
 375 625 l 1,57,-1
 375 562 l 1,58,-1
 312 562 l 1,59,-1
 250 562 l 1,60,-1
 250 625 l 1,61,-1
 312 625 l 1,56,-1
375 625 m 1,62,-1
 375 688 l 1,63,-1
 438 688 l 1,64,-1
 438 625 l 1,65,-1
 375 625 l 1,62,-1
250 625 m 1,66,-1
 188 625 l 1,67,-1
 188 688 l 1,68,-1
 250 688 l 1,69,-1
 250 625 l 1,66,-1
188 688 m 1,70,-1
 125 688 l 1,71,-1
 62 688 l 1,72,-1
 62 750 l 1,73,-1
 125 750 l 1,74,-1
 188 750 l 1,75,-1
 188 688 l 1,70,-1
EndSplineSet
Validated: 5
EndChar

StartChar: Odieresis
Encoding: 214 214 151
Width: 562
Flags: W
LayerCount: 2
Fore
SplineSet
312 688 m 1,0,-1
 312 750 l 1,1,-1
 375 750 l 1,2,-1
 375 688 l 1,3,-1
 312 688 l 1,0,-1
62 688 m 1,4,-1
 62 750 l 1,5,-1
 125 750 l 1,6,-1
 125 688 l 1,7,-1
 62 688 l 1,4,-1
375 0 m 1,8,-1
 312 0 l 1,9,-1
 250 0 l 1,10,-1
 188 0 l 1,11,-1
 125 0 l 1,12,-1
 125 62 l 1,13,-1
 62 62 l 1,14,-1
 62 125 l 1,15,-1
 0 125 l 1,16,-1
 0 188 l 1,17,-1
 0 250 l 1,18,-1
 0 312 l 1,19,-1
 0 375 l 1,20,-1
 0 438 l 1,21,-1
 0 500 l 1,22,-1
 0 562 l 1,23,-1
 62 562 l 1,24,-1
 62 625 l 1,25,-1
 125 625 l 1,26,-1
 188 625 l 1,27,-1
 250 625 l 1,28,-1
 312 625 l 1,29,-1
 375 625 l 1,30,-1
 375 562 l 1,31,-1
 438 562 l 1,32,-1
 438 500 l 1,33,-1
 500 500 l 1,34,-1
 500 438 l 1,35,-1
 500 375 l 1,36,-1
 500 312 l 1,37,-1
 500 250 l 1,38,-1
 500 188 l 1,39,-1
 500 125 l 1,40,-1
 500 62 l 1,41,-1
 438 62 l 1,42,-1
 438 0 l 1,43,-1
 375 0 l 1,8,-1
312 62 m 1,44,-1
 375 62 l 1,45,-1
 375 125 l 1,46,-1
 375 188 l 1,47,-1
 375 250 l 1,48,-1
 375 312 l 1,49,-1
 375 375 l 1,50,-1
 375 438 l 1,51,-1
 375 500 l 1,52,-1
 312 500 l 1,53,-1
 312 562 l 1,54,-1
 250 562 l 1,55,-1
 188 562 l 1,56,-1
 125 562 l 1,57,-1
 125 500 l 1,58,-1
 125 438 l 1,59,-1
 125 375 l 1,60,-1
 125 312 l 1,61,-1
 125 250 l 1,62,-1
 125 188 l 1,63,-1
 125 125 l 1,64,-1
 188 125 l 1,65,-1
 188 62 l 1,66,-1
 250 62 l 1,67,-1
 312 62 l 1,44,-1
EndSplineSet
Validated: 1
EndChar

StartChar: multiply
Encoding: 215 215 152
Width: 562
Flags: W
LayerCount: 2
Fore
SplineSet
438 188 m 1,0,-1
 375 188 l 1,1,-1
 375 250 l 1,2,-1
 312 250 l 1,3,-1
 250 250 l 1,4,-1
 188 250 l 1,5,-1
 188 188 l 1,6,-1
 125 188 l 1,7,-1
 62 188 l 1,8,-1
 62 250 l 1,9,-1
 125 250 l 1,10,-1
 125 312 l 1,11,-1
 188 312 l 1,12,-1
 188 375 l 1,13,-1
 188 438 l 1,14,-1
 125 438 l 1,15,-1
 125 500 l 1,16,-1
 62 500 l 1,17,-1
 62 562 l 1,18,-1
 125 562 l 1,19,-1
 188 562 l 1,20,-1
 188 500 l 1,21,-1
 250 500 l 1,22,-1
 250 438 l 1,23,-1
 312 438 l 1,24,-1
 312 500 l 1,25,-1
 375 500 l 1,26,-1
 375 562 l 1,27,-1
 438 562 l 1,28,-1
 500 562 l 1,29,-1
 500 500 l 1,30,-1
 438 500 l 1,31,-1
 438 438 l 1,32,-1
 375 438 l 1,33,-1
 375 375 l 1,34,-1
 375 312 l 1,35,-1
 438 312 l 1,36,-1
 438 250 l 1,37,-1
 500 250 l 1,38,-1
 500 188 l 1,39,-1
 438 188 l 1,0,-1
EndSplineSet
Validated: 1
EndChar

StartChar: Oslash
Encoding: 216 216 153
Width: 687
Flags: W
LayerCount: 2
Fore
SplineSet
188 -125 m 1,0,-1
 188 -62 l 1,1,-1
 250 -62 l 1,2,-1
 250 -125 l 1,3,-1
 188 -125 l 1,0,-1
250 -62 m 1,4,-1
 250 0 l 1,5,-1
 250 62 l 1,6,-1
 188 62 l 1,7,-1
 188 125 l 1,8,-1
 125 125 l 1,9,-1
 125 188 l 1,10,-1
 125 250 l 1,11,-1
 125 312 l 1,12,-1
 125 375 l 1,13,-1
 125 438 l 1,14,-1
 125 500 l 1,15,-1
 125 562 l 1,16,-1
 188 562 l 1,17,-1
 188 625 l 1,18,-1
 250 625 l 1,19,-1
 312 625 l 1,20,-1
 375 625 l 1,21,-1
 438 625 l 1,22,-1
 438 688 l 1,23,-1
 500 688 l 1,24,-1
 500 625 l 1,25,-1
 500 562 l 1,26,-1
 562 562 l 1,27,-1
 562 500 l 1,28,-1
 625 500 l 1,29,-1
 625 438 l 1,30,-1
 625 375 l 1,31,-1
 625 312 l 1,32,-1
 625 250 l 1,33,-1
 625 188 l 1,34,-1
 625 125 l 1,35,-1
 625 62 l 1,36,-1
 562 62 l 1,37,-1
 562 0 l 1,38,-1
 500 0 l 1,39,-1
 438 0 l 1,40,-1
 375 0 l 1,41,-1
 312 0 l 1,42,-1
 312 -62 l 1,43,-1
 250 -62 l 1,4,-1
438 62 m 1,44,-1
 500 62 l 1,45,-1
 500 125 l 1,46,-1
 500 188 l 1,47,-1
 500 250 l 1,48,-1
 500 312 l 1,49,-1
 500 375 l 1,50,-1
 500 438 l 1,51,-1
 500 500 l 1,52,-1
 438 500 l 1,53,-1
 438 438 l 1,54,-1
 438 375 l 1,55,-1
 438 312 l 1,56,-1
 375 312 l 1,57,-1
 375 250 l 1,58,-1
 375 188 l 1,59,-1
 375 125 l 1,60,-1
 312 125 l 1,61,-1
 312 188 l 1,62,-1
 312 250 l 1,63,-1
 312 312 l 1,64,-1
 375 312 l 1,65,-1
 375 375 l 1,66,-1
 375 438 l 1,67,-1
 375 500 l 1,68,-1
 438 500 l 1,69,-1
 438 562 l 1,70,-1
 375 562 l 1,71,-1
 312 562 l 1,72,-1
 250 562 l 1,73,-1
 250 500 l 1,74,-1
 250 438 l 1,75,-1
 250 375 l 1,76,-1
 250 312 l 1,77,-1
 250 250 l 1,78,-1
 250 188 l 1,79,-1
 250 125 l 1,80,-1
 312 125 l 1,81,-1
 312 62 l 1,82,-1
 375 62 l 1,83,-1
 438 62 l 1,44,-1
500 688 m 1,84,-1
 500 750 l 1,85,-1
 562 750 l 1,86,-1
 562 688 l 1,87,-1
 500 688 l 1,84,-1
EndSplineSet
Validated: 5
EndChar

StartChar: Ugrave
Encoding: 217 217 154
Width: 625
Flags: W
LayerCount: 2
Fore
SplineSet
312 625 m 1,0,-1
 312 688 l 1,1,-1
 375 688 l 1,2,-1
 375 625 l 1,3,-1
 312 625 l 1,0,-1
375 0 m 1,4,-1
 312 0 l 1,5,-1
 250 0 l 1,6,-1
 188 0 l 1,7,-1
 188 62 l 1,8,-1
 125 62 l 1,9,-1
 125 125 l 1,10,-1
 62 125 l 1,11,-1
 62 188 l 1,12,-1
 62 250 l 1,13,-1
 62 312 l 1,14,-1
 62 375 l 1,15,-1
 62 438 l 1,16,-1
 62 500 l 1,17,-1
 125 500 l 1,18,-1
 125 562 l 1,19,-1
 125 625 l 1,20,-1
 188 625 l 1,21,-1
 250 625 l 1,22,-1
 250 562 l 1,23,-1
 250 500 l 1,24,-1
 188 500 l 1,25,-1
 188 438 l 1,26,-1
 188 375 l 1,27,-1
 188 312 l 1,28,-1
 188 250 l 1,29,-1
 188 188 l 1,30,-1
 188 125 l 1,31,-1
 250 125 l 1,32,-1
 250 62 l 1,33,-1
 312 62 l 1,34,-1
 375 62 l 1,35,-1
 375 125 l 1,36,-1
 438 125 l 1,37,-1
 438 188 l 1,38,-1
 438 250 l 1,39,-1
 438 312 l 1,40,-1
 438 375 l 1,41,-1
 438 438 l 1,42,-1
 438 500 l 1,43,-1
 438 562 l 1,44,-1
 438 625 l 1,45,-1
 500 625 l 1,46,-1
 562 625 l 1,47,-1
 562 562 l 1,48,-1
 562 500 l 1,49,-1
 562 438 l 1,50,-1
 562 375 l 1,51,-1
 562 312 l 1,52,-1
 562 250 l 1,53,-1
 562 188 l 1,54,-1
 562 125 l 1,55,-1
 500 125 l 1,56,-1
 500 62 l 1,57,-1
 438 62 l 1,58,-1
 438 0 l 1,59,-1
 375 0 l 1,4,-1
312 688 m 1,60,-1
 250 688 l 1,61,-1
 250 750 l 1,62,-1
 312 750 l 1,63,-1
 312 688 l 1,60,-1
EndSplineSet
Validated: 5
EndChar

StartChar: Uacute
Encoding: 218 218 155
Width: 625
Flags: W
LayerCount: 2
Fore
SplineSet
312 625 m 1,0,-1
 312 688 l 1,1,-1
 375 688 l 1,2,-1
 375 625 l 1,3,-1
 312 625 l 1,0,-1
375 0 m 1,4,-1
 312 0 l 1,5,-1
 250 0 l 1,6,-1
 188 0 l 1,7,-1
 188 62 l 1,8,-1
 125 62 l 1,9,-1
 125 125 l 1,10,-1
 62 125 l 1,11,-1
 62 188 l 1,12,-1
 62 250 l 1,13,-1
 62 312 l 1,14,-1
 62 375 l 1,15,-1
 62 438 l 1,16,-1
 62 500 l 1,17,-1
 125 500 l 1,18,-1
 125 562 l 1,19,-1
 125 625 l 1,20,-1
 188 625 l 1,21,-1
 250 625 l 1,22,-1
 250 562 l 1,23,-1
 250 500 l 1,24,-1
 188 500 l 1,25,-1
 188 438 l 1,26,-1
 188 375 l 1,27,-1
 188 312 l 1,28,-1
 188 250 l 1,29,-1
 188 188 l 1,30,-1
 188 125 l 1,31,-1
 250 125 l 1,32,-1
 250 62 l 1,33,-1
 312 62 l 1,34,-1
 375 62 l 1,35,-1
 375 125 l 1,36,-1
 438 125 l 1,37,-1
 438 188 l 1,38,-1
 438 250 l 1,39,-1
 438 312 l 1,40,-1
 438 375 l 1,41,-1
 438 438 l 1,42,-1
 438 500 l 1,43,-1
 438 562 l 1,44,-1
 438 625 l 1,45,-1
 500 625 l 1,46,-1
 562 625 l 1,47,-1
 562 562 l 1,48,-1
 562 500 l 1,49,-1
 562 438 l 1,50,-1
 562 375 l 1,51,-1
 562 312 l 1,52,-1
 562 250 l 1,53,-1
 562 188 l 1,54,-1
 562 125 l 1,55,-1
 500 125 l 1,56,-1
 500 62 l 1,57,-1
 438 62 l 1,58,-1
 438 0 l 1,59,-1
 375 0 l 1,4,-1
375 688 m 1,60,-1
 375 750 l 1,61,-1
 438 750 l 1,62,-1
 438 688 l 1,63,-1
 375 688 l 1,60,-1
EndSplineSet
Validated: 5
EndChar

StartChar: Ucircumflex
Encoding: 219 219 156
Width: 625
Flags: W
LayerCount: 2
Fore
SplineSet
375 625 m 1,0,-1
 375 688 l 1,1,-1
 438 688 l 1,2,-1
 438 625 l 1,3,-1
 375 625 l 1,0,-1
250 625 m 1,4,-1
 250 688 l 1,5,-1
 312 688 l 1,6,-1
 312 625 l 1,7,-1
 250 625 l 1,4,-1
375 0 m 1,8,-1
 312 0 l 1,9,-1
 250 0 l 1,10,-1
 188 0 l 1,11,-1
 188 62 l 1,12,-1
 125 62 l 1,13,-1
 125 125 l 1,14,-1
 62 125 l 1,15,-1
 62 188 l 1,16,-1
 62 250 l 1,17,-1
 62 312 l 1,18,-1
 62 375 l 1,19,-1
 62 438 l 1,20,-1
 125 438 l 1,21,-1
 125 500 l 1,22,-1
 125 562 l 1,23,-1
 188 562 l 1,24,-1
 250 562 l 1,25,-1
 250 500 l 1,26,-1
 250 438 l 1,27,-1
 188 438 l 1,28,-1
 188 375 l 1,29,-1
 188 312 l 1,30,-1
 188 250 l 1,31,-1
 188 188 l 1,32,-1
 188 125 l 1,33,-1
 250 125 l 1,34,-1
 250 62 l 1,35,-1
 312 62 l 1,36,-1
 375 62 l 1,37,-1
 375 125 l 1,38,-1
 438 125 l 1,39,-1
 438 188 l 1,40,-1
 438 250 l 1,41,-1
 438 312 l 1,42,-1
 438 375 l 1,43,-1
 438 438 l 1,44,-1
 438 500 l 1,45,-1
 438 562 l 1,46,-1
 500 562 l 1,47,-1
 562 562 l 1,48,-1
 562 500 l 1,49,-1
 562 438 l 1,50,-1
 562 375 l 1,51,-1
 562 312 l 1,52,-1
 562 250 l 1,53,-1
 562 188 l 1,54,-1
 562 125 l 1,55,-1
 500 125 l 1,56,-1
 500 62 l 1,57,-1
 438 62 l 1,58,-1
 438 0 l 1,59,-1
 375 0 l 1,8,-1
375 688 m 1,60,-1
 312 688 l 1,61,-1
 312 750 l 1,62,-1
 375 750 l 1,63,-1
 375 688 l 1,60,-1
EndSplineSet
Validated: 5
EndChar

StartChar: Udieresis
Encoding: 220 220 157
Width: 625
Flags: W
LayerCount: 2
Fore
SplineSet
375 688 m 1,0,-1
 375 750 l 1,1,-1
 438 750 l 1,2,-1
 438 688 l 1,3,-1
 375 688 l 1,0,-1
250 688 m 1,4,-1
 250 750 l 1,5,-1
 312 750 l 1,6,-1
 312 688 l 1,7,-1
 250 688 l 1,4,-1
375 0 m 1,8,-1
 312 0 l 1,9,-1
 250 0 l 1,10,-1
 188 0 l 1,11,-1
 188 62 l 1,12,-1
 125 62 l 1,13,-1
 125 125 l 1,14,-1
 62 125 l 1,15,-1
 62 188 l 1,16,-1
 62 250 l 1,17,-1
 62 312 l 1,18,-1
 62 375 l 1,19,-1
 62 438 l 1,20,-1
 62 500 l 1,21,-1
 125 500 l 1,22,-1
 125 562 l 1,23,-1
 125 625 l 1,24,-1
 188 625 l 1,25,-1
 250 625 l 1,26,-1
 250 562 l 1,27,-1
 250 500 l 1,28,-1
 188 500 l 1,29,-1
 188 438 l 1,30,-1
 188 375 l 1,31,-1
 188 312 l 1,32,-1
 188 250 l 1,33,-1
 188 188 l 1,34,-1
 188 125 l 1,35,-1
 250 125 l 1,36,-1
 250 62 l 1,37,-1
 312 62 l 1,38,-1
 375 62 l 1,39,-1
 375 125 l 1,40,-1
 438 125 l 1,41,-1
 438 188 l 1,42,-1
 438 250 l 1,43,-1
 438 312 l 1,44,-1
 438 375 l 1,45,-1
 438 438 l 1,46,-1
 438 500 l 1,47,-1
 438 562 l 1,48,-1
 438 625 l 1,49,-1
 500 625 l 1,50,-1
 562 625 l 1,51,-1
 562 562 l 1,52,-1
 562 500 l 1,53,-1
 562 438 l 1,54,-1
 562 375 l 1,55,-1
 562 312 l 1,56,-1
 562 250 l 1,57,-1
 562 188 l 1,58,-1
 562 125 l 1,59,-1
 500 125 l 1,60,-1
 500 62 l 1,61,-1
 438 62 l 1,62,-1
 438 0 l 1,63,-1
 375 0 l 1,8,-1
EndSplineSet
Validated: 1
EndChar

StartChar: Yacute
Encoding: 221 221 158
Width: 562
Flags: W
LayerCount: 2
Fore
SplineSet
188 562 m 1,0,-1
 188 625 l 1,1,-1
 250 625 l 1,2,-1
 250 562 l 1,3,-1
 188 562 l 1,0,-1
312 0 m 1,4,-1
 250 0 l 1,5,-1
 188 0 l 1,6,-1
 125 0 l 1,7,-1
 125 62 l 1,8,-1
 188 62 l 1,9,-1
 188 125 l 1,10,-1
 188 188 l 1,11,-1
 188 250 l 1,12,-1
 188 312 l 1,13,-1
 125 312 l 1,14,-1
 125 375 l 1,15,-1
 62 375 l 1,16,-1
 62 438 l 1,17,-1
 0 438 l 1,18,-1
 0 500 l 1,19,-1
 0 562 l 1,20,-1
 0 625 l 1,21,-1
 62 625 l 1,22,-1
 125 625 l 1,23,-1
 125 562 l 1,24,-1
 125 500 l 1,25,-1
 188 500 l 1,26,-1
 188 438 l 1,27,-1
 188 375 l 1,28,-1
 250 375 l 1,29,-1
 312 375 l 1,30,-1
 312 438 l 1,31,-1
 312 500 l 1,32,-1
 375 500 l 1,33,-1
 375 562 l 1,34,-1
 375 625 l 1,35,-1
 438 625 l 1,36,-1
 500 625 l 1,37,-1
 500 562 l 1,38,-1
 500 500 l 1,39,-1
 500 438 l 1,40,-1
 438 438 l 1,41,-1
 438 375 l 1,42,-1
 375 375 l 1,43,-1
 375 312 l 1,44,-1
 312 312 l 1,45,-1
 312 250 l 1,46,-1
 312 188 l 1,47,-1
 312 125 l 1,48,-1
 312 62 l 1,49,-1
 375 62 l 1,50,-1
 375 0 l 1,51,-1
 312 0 l 1,4,-1
250 625 m 1,52,-1
 250 688 l 1,53,-1
 312 688 l 1,54,-1
 312 625 l 1,55,-1
 250 625 l 1,52,-1
EndSplineSet
Validated: 5
EndChar

StartChar: Thorn
Encoding: 222 222 159
Width: 687
Flags: W
LayerCount: 2
Fore
SplineSet
125 0 m 1,0,-1
 62 0 l 1,1,-1
 62 62 l 1,2,-1
 62 125 l 1,3,-1
 62 188 l 1,4,-1
 62 250 l 1,5,-1
 62 312 l 1,6,-1
 62 375 l 1,7,-1
 62 438 l 1,8,-1
 62 500 l 1,9,-1
 62 562 l 1,10,-1
 62 625 l 1,11,-1
 62 688 l 1,12,-1
 125 688 l 1,13,-1
 188 688 l 1,14,-1
 188 625 l 1,15,-1
 188 562 l 1,16,-1
 250 562 l 1,17,-1
 312 562 l 1,18,-1
 375 562 l 1,19,-1
 438 562 l 1,20,-1
 500 562 l 1,21,-1
 500 500 l 1,22,-1
 562 500 l 1,23,-1
 562 438 l 1,24,-1
 625 438 l 1,25,-1
 625 375 l 1,26,-1
 625 312 l 1,27,-1
 625 250 l 1,28,-1
 562 250 l 1,29,-1
 562 188 l 1,30,-1
 500 188 l 1,31,-1
 438 188 l 1,32,-1
 438 125 l 1,33,-1
 375 125 l 1,34,-1
 312 125 l 1,35,-1
 250 125 l 1,36,-1
 188 125 l 1,37,-1
 188 62 l 1,38,-1
 188 0 l 1,39,-1
 125 0 l 1,0,-1
375 250 m 1,40,-1
 438 250 l 1,41,-1
 438 312 l 1,42,-1
 500 312 l 1,43,-1
 500 375 l 1,44,-1
 500 438 l 1,45,-1
 438 438 l 1,46,-1
 438 500 l 1,47,-1
 375 500 l 1,48,-1
 312 500 l 1,49,-1
 250 500 l 1,50,-1
 188 500 l 1,51,-1
 188 438 l 1,52,-1
 188 375 l 1,53,-1
 188 312 l 1,54,-1
 188 250 l 1,55,-1
 250 250 l 1,56,-1
 312 250 l 1,57,-1
 375 250 l 1,40,-1
EndSplineSet
Validated: 1
EndChar

StartChar: germandbls
Encoding: 223 223 160
Width: 500
Flags: W
LayerCount: 2
Fore
SplineSet
312 0 m 1,0,-1
 250 0 l 1,1,-1
 250 62 l 1,2,-1
 312 62 l 1,3,-1
 312 125 l 1,4,-1
 312 188 l 1,5,-1
 312 250 l 1,6,-1
 312 312 l 1,7,-1
 250 312 l 1,8,-1
 250 375 l 1,9,-1
 312 375 l 1,10,-1
 312 438 l 1,11,-1
 312 500 l 1,12,-1
 312 562 l 1,13,-1
 250 562 l 1,14,-1
 188 562 l 1,15,-1
 188 500 l 1,16,-1
 125 500 l 1,17,-1
 125 438 l 1,18,-1
 125 375 l 1,19,-1
 125 312 l 1,20,-1
 125 250 l 1,21,-1
 125 188 l 1,22,-1
 125 125 l 1,23,-1
 125 62 l 1,24,-1
 125 0 l 1,25,-1
 62 0 l 1,26,-1
 0 0 l 1,27,-1
 0 62 l 1,28,-1
 0 125 l 1,29,-1
 0 188 l 1,30,-1
 0 250 l 1,31,-1
 0 312 l 1,32,-1
 0 375 l 1,33,-1
 0 438 l 1,34,-1
 0 500 l 1,35,-1
 62 500 l 1,36,-1
 62 562 l 1,37,-1
 125 562 l 1,38,-1
 125 625 l 1,39,-1
 188 625 l 1,40,-1
 250 625 l 1,41,-1
 312 625 l 1,42,-1
 375 625 l 1,43,-1
 375 562 l 1,44,-1
 438 562 l 1,45,-1
 438 500 l 1,46,-1
 438 438 l 1,47,-1
 438 375 l 1,48,-1
 375 375 l 1,49,-1
 375 312 l 1,50,-1
 438 312 l 1,51,-1
 438 250 l 1,52,-1
 438 188 l 1,53,-1
 438 125 l 1,54,-1
 438 62 l 1,55,-1
 375 62 l 1,56,-1
 375 0 l 1,57,-1
 312 0 l 1,0,-1
250 62 m 1,58,-1
 188 62 l 1,59,-1
 188 125 l 1,60,-1
 250 125 l 1,61,-1
 250 62 l 1,58,-1
EndSplineSet
Validated: 5
EndChar

StartChar: agrave
Encoding: 224 224 161
Width: 500
Flags: W
LayerCount: 2
Fore
SplineSet
375 0 m 1,0,-1
 375 62 l 1,1,-1
 312 62 l 1,2,-1
 312 0 l 1,3,-1
 250 0 l 1,4,-1
 188 0 l 1,5,-1
 125 0 l 1,6,-1
 62 0 l 1,7,-1
 62 62 l 1,8,-1
 0 62 l 1,9,-1
 0 125 l 1,10,-1
 0 188 l 1,11,-1
 62 188 l 1,12,-1
 62 250 l 1,13,-1
 125 250 l 1,14,-1
 125 312 l 1,15,-1
 62 312 l 1,16,-1
 0 312 l 1,17,-1
 0 375 l 1,18,-1
 62 375 l 1,19,-1
 62 438 l 1,20,-1
 125 438 l 1,21,-1
 188 438 l 1,22,-1
 250 438 l 1,23,-1
 312 438 l 1,24,-1
 312 375 l 1,25,-1
 375 375 l 1,26,-1
 375 312 l 1,27,-1
 375 250 l 1,28,-1
 375 188 l 1,29,-1
 375 125 l 1,30,-1
 438 125 l 1,31,-1
 438 62 l 1,32,-1
 438 0 l 1,33,-1
 375 0 l 1,0,-1
188 500 m 1,34,-1
 188 562 l 1,35,-1
 250 562 l 1,36,-1
 250 500 l 1,37,-1
 188 500 l 1,34,-1
188 62 m 1,38,-1
 250 62 l 1,39,-1
 250 125 l 1,40,-1
 250 188 l 1,41,-1
 250 250 l 1,42,-1
 188 250 l 1,43,-1
 188 188 l 1,44,-1
 125 188 l 1,45,-1
 125 125 l 1,46,-1
 125 62 l 1,47,-1
 188 62 l 1,38,-1
188 312 m 1,48,-1
 250 312 l 1,49,-1
 250 375 l 1,50,-1
 188 375 l 1,51,-1
 125 375 l 1,52,-1
 125 312 l 1,53,-1
 188 312 l 1,48,-1
188 562 m 1,54,-1
 125 562 l 1,55,-1
 125 625 l 1,56,-1
 188 625 l 1,57,-1
 188 562 l 1,54,-1
EndSplineSet
Validated: 5
EndChar

StartChar: aacute
Encoding: 225 225 162
Width: 500
Flags: W
LayerCount: 2
Fore
SplineSet
375 0 m 1,0,-1
 375 62 l 1,1,-1
 312 62 l 1,2,-1
 312 0 l 1,3,-1
 250 0 l 1,4,-1
 188 0 l 1,5,-1
 125 0 l 1,6,-1
 62 0 l 1,7,-1
 62 62 l 1,8,-1
 0 62 l 1,9,-1
 0 125 l 1,10,-1
 0 188 l 1,11,-1
 62 188 l 1,12,-1
 62 250 l 1,13,-1
 125 250 l 1,14,-1
 125 312 l 1,15,-1
 62 312 l 1,16,-1
 0 312 l 1,17,-1
 0 375 l 1,18,-1
 62 375 l 1,19,-1
 62 438 l 1,20,-1
 125 438 l 1,21,-1
 188 438 l 1,22,-1
 250 438 l 1,23,-1
 312 438 l 1,24,-1
 312 375 l 1,25,-1
 375 375 l 1,26,-1
 375 312 l 1,27,-1
 375 250 l 1,28,-1
 375 188 l 1,29,-1
 375 125 l 1,30,-1
 438 125 l 1,31,-1
 438 62 l 1,32,-1
 438 0 l 1,33,-1
 375 0 l 1,0,-1
125 500 m 1,34,-1
 125 562 l 1,35,-1
 188 562 l 1,36,-1
 188 500 l 1,37,-1
 125 500 l 1,34,-1
188 62 m 1,38,-1
 250 62 l 1,39,-1
 250 125 l 1,40,-1
 250 188 l 1,41,-1
 250 250 l 1,42,-1
 188 250 l 1,43,-1
 188 188 l 1,44,-1
 125 188 l 1,45,-1
 125 125 l 1,46,-1
 125 62 l 1,47,-1
 188 62 l 1,38,-1
188 312 m 1,48,-1
 250 312 l 1,49,-1
 250 375 l 1,50,-1
 188 375 l 1,51,-1
 125 375 l 1,52,-1
 125 312 l 1,53,-1
 188 312 l 1,48,-1
188 562 m 1,54,-1
 188 625 l 1,55,-1
 250 625 l 1,56,-1
 250 562 l 1,57,-1
 188 562 l 1,54,-1
EndSplineSet
Validated: 5
EndChar

StartChar: acircumflex
Encoding: 226 226 163
Width: 500
Flags: W
LayerCount: 2
Fore
SplineSet
375 0 m 1,0,-1
 375 62 l 1,1,-1
 312 62 l 1,2,-1
 312 0 l 1,3,-1
 250 0 l 1,4,-1
 188 0 l 1,5,-1
 125 0 l 1,6,-1
 62 0 l 1,7,-1
 62 62 l 1,8,-1
 0 62 l 1,9,-1
 0 125 l 1,10,-1
 0 188 l 1,11,-1
 62 188 l 1,12,-1
 62 250 l 1,13,-1
 125 250 l 1,14,-1
 125 312 l 1,15,-1
 62 312 l 1,16,-1
 0 312 l 1,17,-1
 0 375 l 1,18,-1
 62 375 l 1,19,-1
 62 438 l 1,20,-1
 125 438 l 1,21,-1
 188 438 l 1,22,-1
 250 438 l 1,23,-1
 312 438 l 1,24,-1
 312 375 l 1,25,-1
 375 375 l 1,26,-1
 375 312 l 1,27,-1
 375 250 l 1,28,-1
 375 188 l 1,29,-1
 375 125 l 1,30,-1
 438 125 l 1,31,-1
 438 62 l 1,32,-1
 438 0 l 1,33,-1
 375 0 l 1,0,-1
312 500 m 1,34,-1
 312 562 l 1,35,-1
 375 562 l 1,36,-1
 375 500 l 1,37,-1
 312 500 l 1,34,-1
62 500 m 1,38,-1
 62 562 l 1,39,-1
 125 562 l 1,40,-1
 125 500 l 1,41,-1
 62 500 l 1,38,-1
188 62 m 1,42,-1
 250 62 l 1,43,-1
 250 125 l 1,44,-1
 250 188 l 1,45,-1
 250 250 l 1,46,-1
 188 250 l 1,47,-1
 188 188 l 1,48,-1
 125 188 l 1,49,-1
 125 125 l 1,50,-1
 125 62 l 1,51,-1
 188 62 l 1,42,-1
188 312 m 1,52,-1
 250 312 l 1,53,-1
 250 375 l 1,54,-1
 188 375 l 1,55,-1
 125 375 l 1,56,-1
 125 312 l 1,57,-1
 188 312 l 1,52,-1
312 562 m 1,58,-1
 250 562 l 1,59,-1
 250 625 l 1,60,-1
 312 625 l 1,61,-1
 312 562 l 1,58,-1
125 562 m 1,62,-1
 125 625 l 1,63,-1
 188 625 l 1,64,-1
 188 562 l 1,65,-1
 125 562 l 1,62,-1
250 625 m 1,66,-1
 188 625 l 1,67,-1
 188 688 l 1,68,-1
 250 688 l 1,69,-1
 250 625 l 1,66,-1
EndSplineSet
Validated: 5
EndChar

StartChar: atilde
Encoding: 227 227 164
Width: 500
Flags: W
LayerCount: 2
Fore
SplineSet
375 0 m 1,0,-1
 375 62 l 1,1,-1
 312 62 l 1,2,-1
 312 0 l 1,3,-1
 250 0 l 1,4,-1
 188 0 l 1,5,-1
 125 0 l 1,6,-1
 62 0 l 1,7,-1
 62 62 l 1,8,-1
 0 62 l 1,9,-1
 0 125 l 1,10,-1
 0 188 l 1,11,-1
 62 188 l 1,12,-1
 62 250 l 1,13,-1
 125 250 l 1,14,-1
 125 312 l 1,15,-1
 62 312 l 1,16,-1
 0 312 l 1,17,-1
 0 375 l 1,18,-1
 62 375 l 1,19,-1
 62 438 l 1,20,-1
 125 438 l 1,21,-1
 188 438 l 1,22,-1
 250 438 l 1,23,-1
 312 438 l 1,24,-1
 312 375 l 1,25,-1
 375 375 l 1,26,-1
 375 312 l 1,27,-1
 375 250 l 1,28,-1
 375 188 l 1,29,-1
 375 125 l 1,30,-1
 438 125 l 1,31,-1
 438 62 l 1,32,-1
 438 0 l 1,33,-1
 375 0 l 1,0,-1
0 562 m 1,34,-1
 0 625 l 1,35,-1
 62 625 l 1,36,-1
 62 562 l 1,37,-1
 0 562 l 1,34,-1
188 62 m 1,38,-1
 250 62 l 1,39,-1
 250 125 l 1,40,-1
 250 188 l 1,41,-1
 250 250 l 1,42,-1
 188 250 l 1,43,-1
 188 188 l 1,44,-1
 125 188 l 1,45,-1
 125 125 l 1,46,-1
 125 62 l 1,47,-1
 188 62 l 1,38,-1
188 312 m 1,48,-1
 250 312 l 1,49,-1
 250 375 l 1,50,-1
 188 375 l 1,51,-1
 125 375 l 1,52,-1
 125 312 l 1,53,-1
 188 312 l 1,48,-1
312 562 m 1,54,-1
 375 562 l 1,55,-1
 375 500 l 1,56,-1
 312 500 l 1,57,-1
 250 500 l 1,58,-1
 250 562 l 1,59,-1
 312 562 l 1,54,-1
375 562 m 1,60,-1
 375 625 l 1,61,-1
 438 625 l 1,62,-1
 438 562 l 1,63,-1
 375 562 l 1,60,-1
250 562 m 1,64,-1
 188 562 l 1,65,-1
 188 625 l 1,66,-1
 250 625 l 1,67,-1
 250 562 l 1,64,-1
188 625 m 1,68,-1
 125 625 l 1,69,-1
 62 625 l 1,70,-1
 62 688 l 1,71,-1
 125 688 l 1,72,-1
 188 688 l 1,73,-1
 188 625 l 1,68,-1
EndSplineSet
Validated: 5
EndChar

StartChar: adieresis
Encoding: 228 228 165
Width: 500
Flags: W
LayerCount: 2
Fore
SplineSet
375 0 m 1,0,-1
 375 62 l 1,1,-1
 312 62 l 1,2,-1
 312 0 l 1,3,-1
 250 0 l 1,4,-1
 188 0 l 1,5,-1
 125 0 l 1,6,-1
 62 0 l 1,7,-1
 62 62 l 1,8,-1
 0 62 l 1,9,-1
 0 125 l 1,10,-1
 0 188 l 1,11,-1
 62 188 l 1,12,-1
 62 250 l 1,13,-1
 125 250 l 1,14,-1
 125 312 l 1,15,-1
 62 312 l 1,16,-1
 0 312 l 1,17,-1
 0 375 l 1,18,-1
 62 375 l 1,19,-1
 62 438 l 1,20,-1
 125 438 l 1,21,-1
 188 438 l 1,22,-1
 250 438 l 1,23,-1
 312 438 l 1,24,-1
 312 375 l 1,25,-1
 375 375 l 1,26,-1
 375 312 l 1,27,-1
 375 250 l 1,28,-1
 375 188 l 1,29,-1
 375 125 l 1,30,-1
 438 125 l 1,31,-1
 438 62 l 1,32,-1
 438 0 l 1,33,-1
 375 0 l 1,0,-1
250 500 m 1,34,-1
 250 562 l 1,35,-1
 312 562 l 1,36,-1
 312 500 l 1,37,-1
 250 500 l 1,34,-1
62 500 m 1,38,-1
 62 562 l 1,39,-1
 125 562 l 1,40,-1
 125 500 l 1,41,-1
 62 500 l 1,38,-1
188 62 m 1,42,-1
 250 62 l 1,43,-1
 250 125 l 1,44,-1
 250 188 l 1,45,-1
 250 250 l 1,46,-1
 188 250 l 1,47,-1
 188 188 l 1,48,-1
 125 188 l 1,49,-1
 125 125 l 1,50,-1
 125 62 l 1,51,-1
 188 62 l 1,42,-1
188 312 m 1,52,-1
 250 312 l 1,53,-1
 250 375 l 1,54,-1
 188 375 l 1,55,-1
 125 375 l 1,56,-1
 125 312 l 1,57,-1
 188 312 l 1,52,-1
EndSplineSet
Validated: 5
EndChar

StartChar: aring
Encoding: 229 229 166
Width: 500
Flags: W
LayerCount: 2
Fore
SplineSet
375 0 m 1,0,-1
 375 62 l 1,1,-1
 312 62 l 1,2,-1
 312 0 l 1,3,-1
 250 0 l 1,4,-1
 188 0 l 1,5,-1
 125 0 l 1,6,-1
 62 0 l 1,7,-1
 62 62 l 1,8,-1
 0 62 l 1,9,-1
 0 125 l 1,10,-1
 0 188 l 1,11,-1
 62 188 l 1,12,-1
 62 250 l 1,13,-1
 125 250 l 1,14,-1
 125 312 l 1,15,-1
 62 312 l 1,16,-1
 0 312 l 1,17,-1
 0 375 l 1,18,-1
 62 375 l 1,19,-1
 62 438 l 1,20,-1
 125 438 l 1,21,-1
 188 438 l 1,22,-1
 250 438 l 1,23,-1
 312 438 l 1,24,-1
 312 375 l 1,25,-1
 375 375 l 1,26,-1
 375 312 l 1,27,-1
 375 250 l 1,28,-1
 375 188 l 1,29,-1
 375 125 l 1,30,-1
 438 125 l 1,31,-1
 438 62 l 1,32,-1
 438 0 l 1,33,-1
 375 0 l 1,0,-1
188 62 m 1,34,-1
 250 62 l 1,35,-1
 250 125 l 1,36,-1
 250 188 l 1,37,-1
 250 250 l 1,38,-1
 188 250 l 1,39,-1
 188 188 l 1,40,-1
 125 188 l 1,41,-1
 125 125 l 1,42,-1
 125 62 l 1,43,-1
 188 62 l 1,34,-1
188 312 m 1,44,-1
 250 312 l 1,45,-1
 250 375 l 1,46,-1
 188 375 l 1,47,-1
 125 375 l 1,48,-1
 125 312 l 1,49,-1
 188 312 l 1,44,-1
188 562 m 1,50,-1
 250 562 l 1,51,-1
 250 500 l 1,52,-1
 188 500 l 1,53,-1
 125 500 l 1,54,-1
 125 562 l 1,55,-1
 188 562 l 1,50,-1
250 562 m 1,56,-1
 250 625 l 1,57,-1
 312 625 l 1,58,-1
 312 562 l 1,59,-1
 250 562 l 1,56,-1
125 562 m 1,60,-1
 62 562 l 1,61,-1
 62 625 l 1,62,-1
 125 625 l 1,63,-1
 125 562 l 1,60,-1
250 625 m 1,64,-1
 188 625 l 1,65,-1
 125 625 l 1,66,-1
 125 688 l 1,67,-1
 188 688 l 1,68,-1
 250 688 l 1,69,-1
 250 625 l 1,64,-1
EndSplineSet
Validated: 5
EndChar

StartChar: ae
Encoding: 230 230 167
Width: 750
Flags: W
LayerCount: 2
Fore
SplineSet
562 0 m 1,0,-1
 500 0 l 1,1,-1
 438 0 l 1,2,-1
 375 0 l 1,3,-1
 375 62 l 1,4,-1
 312 62 l 1,5,-1
 312 0 l 1,6,-1
 250 0 l 1,7,-1
 188 0 l 1,8,-1
 125 0 l 1,9,-1
 62 0 l 1,10,-1
 62 62 l 1,11,-1
 0 62 l 1,12,-1
 0 125 l 1,13,-1
 0 188 l 1,14,-1
 62 188 l 1,15,-1
 62 250 l 1,16,-1
 125 250 l 1,17,-1
 125 312 l 1,18,-1
 62 312 l 1,19,-1
 0 312 l 1,20,-1
 0 375 l 1,21,-1
 0 438 l 1,22,-1
 62 438 l 1,23,-1
 125 438 l 1,24,-1
 188 438 l 1,25,-1
 250 438 l 1,26,-1
 312 438 l 1,27,-1
 312 375 l 1,28,-1
 375 375 l 1,29,-1
 375 438 l 1,30,-1
 438 438 l 1,31,-1
 500 438 l 1,32,-1
 562 438 l 1,33,-1
 625 438 l 1,34,-1
 625 375 l 1,35,-1
 688 375 l 1,36,-1
 688 312 l 1,37,-1
 688 250 l 1,38,-1
 688 188 l 1,39,-1
 625 188 l 1,40,-1
 562 188 l 1,41,-1
 500 188 l 1,42,-1
 438 188 l 1,43,-1
 438 250 l 1,44,-1
 375 250 l 1,45,-1
 375 188 l 1,46,-1
 375 125 l 1,47,-1
 438 125 l 1,48,-1
 438 62 l 1,49,-1
 500 62 l 1,50,-1
 562 62 l 1,51,-1
 562 125 l 1,52,-1
 625 125 l 1,53,-1
 688 125 l 1,54,-1
 688 62 l 1,55,-1
 625 62 l 1,56,-1
 625 0 l 1,57,-1
 562 0 l 1,0,-1
188 62 m 1,58,-1
 250 62 l 1,59,-1
 250 125 l 1,60,-1
 250 188 l 1,61,-1
 250 250 l 1,62,-1
 188 250 l 1,63,-1
 188 188 l 1,64,-1
 125 188 l 1,65,-1
 125 125 l 1,66,-1
 125 62 l 1,67,-1
 188 62 l 1,58,-1
562 250 m 1,68,-1
 562 312 l 1,69,-1
 562 375 l 1,70,-1
 500 375 l 1,71,-1
 438 375 l 1,72,-1
 438 312 l 1,73,-1
 500 312 l 1,74,-1
 500 250 l 1,75,-1
 562 250 l 1,68,-1
188 312 m 1,76,-1
 250 312 l 1,77,-1
 250 375 l 1,78,-1
 188 375 l 1,79,-1
 125 375 l 1,80,-1
 125 312 l 1,81,-1
 188 312 l 1,76,-1
EndSplineSet
Validated: 5
EndChar

StartChar: ccedilla
Encoding: 231 231 168
Width: 437
Flags: W
LayerCount: 2
Fore
SplineSet
188 -125 m 1,0,-1
 250 -125 l 1,1,-1
 250 -188 l 1,2,-1
 188 -188 l 1,3,-1
 125 -188 l 1,4,-1
 125 -125 l 1,5,-1
 188 -125 l 1,0,-1
250 -125 m 1,6,-1
 250 -62 l 1,7,-1
 312 -62 l 1,8,-1
 312 -125 l 1,9,-1
 250 -125 l 1,6,-1
250 -62 m 1,10,-1
 188 -62 l 1,11,-1
 188 0 l 1,12,-1
 125 0 l 1,13,-1
 62 0 l 1,14,-1
 62 62 l 1,15,-1
 0 62 l 1,16,-1
 0 125 l 1,17,-1
 0 188 l 1,18,-1
 0 250 l 1,19,-1
 0 312 l 1,20,-1
 62 312 l 1,21,-1
 62 375 l 1,22,-1
 125 375 l 1,23,-1
 125 438 l 1,24,-1
 188 438 l 1,25,-1
 250 438 l 1,26,-1
 312 438 l 1,27,-1
 312 375 l 1,28,-1
 375 375 l 1,29,-1
 375 312 l 1,30,-1
 312 312 l 1,31,-1
 250 312 l 1,32,-1
 250 375 l 1,33,-1
 188 375 l 1,34,-1
 188 312 l 1,35,-1
 125 312 l 1,36,-1
 125 250 l 1,37,-1
 125 188 l 1,38,-1
 125 125 l 1,39,-1
 188 125 l 1,40,-1
 188 62 l 1,41,-1
 250 62 l 1,42,-1
 250 125 l 1,43,-1
 312 125 l 1,44,-1
 375 125 l 1,45,-1
 375 62 l 1,46,-1
 312 62 l 1,47,-1
 312 0 l 1,48,-1
 250 0 l 1,49,-1
 250 -62 l 1,10,-1
EndSplineSet
Validated: 5
EndChar

StartChar: egrave
Encoding: 232 232 169
Width: 437
Flags: W
LayerCount: 2
Fore
SplineSet
188 500 m 1,0,-1
 188 562 l 1,1,-1
 250 562 l 1,2,-1
 250 500 l 1,3,-1
 188 500 l 1,0,-1
250 0 m 1,4,-1
 188 0 l 1,5,-1
 125 0 l 1,6,-1
 62 0 l 1,7,-1
 62 62 l 1,8,-1
 0 62 l 1,9,-1
 0 125 l 1,10,-1
 0 188 l 1,11,-1
 0 250 l 1,12,-1
 0 312 l 1,13,-1
 62 312 l 1,14,-1
 62 375 l 1,15,-1
 125 375 l 1,16,-1
 125 438 l 1,17,-1
 188 438 l 1,18,-1
 250 438 l 1,19,-1
 312 438 l 1,20,-1
 312 375 l 1,21,-1
 375 375 l 1,22,-1
 375 312 l 1,23,-1
 312 312 l 1,24,-1
 312 250 l 1,25,-1
 250 250 l 1,26,-1
 250 312 l 1,27,-1
 250 375 l 1,28,-1
 188 375 l 1,29,-1
 188 312 l 1,30,-1
 125 312 l 1,31,-1
 125 250 l 1,32,-1
 188 250 l 1,33,-1
 250 250 l 1,34,-1
 250 188 l 1,35,-1
 188 188 l 1,36,-1
 125 188 l 1,37,-1
 125 125 l 1,38,-1
 188 125 l 1,39,-1
 188 62 l 1,40,-1
 250 62 l 1,41,-1
 250 125 l 1,42,-1
 312 125 l 1,43,-1
 312 188 l 1,44,-1
 375 188 l 1,45,-1
 375 125 l 1,46,-1
 375 62 l 1,47,-1
 312 62 l 1,48,-1
 312 0 l 1,49,-1
 250 0 l 1,4,-1
188 562 m 1,50,-1
 125 562 l 1,51,-1
 125 625 l 1,52,-1
 188 625 l 1,53,-1
 188 562 l 1,50,-1
EndSplineSet
Validated: 5
EndChar

StartChar: eacute
Encoding: 233 233 170
Width: 437
Flags: W
LayerCount: 2
Fore
SplineSet
188 500 m 1,0,-1
 188 562 l 1,1,-1
 250 562 l 1,2,-1
 250 500 l 1,3,-1
 188 500 l 1,0,-1
250 0 m 1,4,-1
 188 0 l 1,5,-1
 125 0 l 1,6,-1
 62 0 l 1,7,-1
 62 62 l 1,8,-1
 0 62 l 1,9,-1
 0 125 l 1,10,-1
 0 188 l 1,11,-1
 0 250 l 1,12,-1
 0 312 l 1,13,-1
 62 312 l 1,14,-1
 62 375 l 1,15,-1
 125 375 l 1,16,-1
 125 438 l 1,17,-1
 188 438 l 1,18,-1
 250 438 l 1,19,-1
 312 438 l 1,20,-1
 312 375 l 1,21,-1
 375 375 l 1,22,-1
 375 312 l 1,23,-1
 312 312 l 1,24,-1
 312 250 l 1,25,-1
 250 250 l 1,26,-1
 250 312 l 1,27,-1
 250 375 l 1,28,-1
 188 375 l 1,29,-1
 188 312 l 1,30,-1
 125 312 l 1,31,-1
 125 250 l 1,32,-1
 188 250 l 1,33,-1
 250 250 l 1,34,-1
 250 188 l 1,35,-1
 188 188 l 1,36,-1
 125 188 l 1,37,-1
 125 125 l 1,38,-1
 188 125 l 1,39,-1
 188 62 l 1,40,-1
 250 62 l 1,41,-1
 250 125 l 1,42,-1
 312 125 l 1,43,-1
 312 188 l 1,44,-1
 375 188 l 1,45,-1
 375 125 l 1,46,-1
 375 62 l 1,47,-1
 312 62 l 1,48,-1
 312 0 l 1,49,-1
 250 0 l 1,4,-1
250 562 m 1,50,-1
 250 625 l 1,51,-1
 312 625 l 1,52,-1
 312 562 l 1,53,-1
 250 562 l 1,50,-1
EndSplineSet
Validated: 5
EndChar

StartChar: ecircumflex
Encoding: 234 234 171
Width: 437
Flags: W
LayerCount: 2
Fore
SplineSet
250 500 m 1,0,-1
 250 562 l 1,1,-1
 312 562 l 1,2,-1
 312 500 l 1,3,-1
 250 500 l 1,0,-1
125 500 m 1,4,-1
 125 562 l 1,5,-1
 188 562 l 1,6,-1
 188 500 l 1,7,-1
 125 500 l 1,4,-1
250 0 m 1,8,-1
 188 0 l 1,9,-1
 125 0 l 1,10,-1
 62 0 l 1,11,-1
 62 62 l 1,12,-1
 0 62 l 1,13,-1
 0 125 l 1,14,-1
 0 188 l 1,15,-1
 0 250 l 1,16,-1
 0 312 l 1,17,-1
 62 312 l 1,18,-1
 62 375 l 1,19,-1
 125 375 l 1,20,-1
 125 438 l 1,21,-1
 188 438 l 1,22,-1
 250 438 l 1,23,-1
 312 438 l 1,24,-1
 312 375 l 1,25,-1
 375 375 l 1,26,-1
 375 312 l 1,27,-1
 312 312 l 1,28,-1
 312 250 l 1,29,-1
 250 250 l 1,30,-1
 250 312 l 1,31,-1
 250 375 l 1,32,-1
 188 375 l 1,33,-1
 188 312 l 1,34,-1
 125 312 l 1,35,-1
 125 250 l 1,36,-1
 188 250 l 1,37,-1
 250 250 l 1,38,-1
 250 188 l 1,39,-1
 188 188 l 1,40,-1
 125 188 l 1,41,-1
 125 125 l 1,42,-1
 188 125 l 1,43,-1
 188 62 l 1,44,-1
 250 62 l 1,45,-1
 250 125 l 1,46,-1
 312 125 l 1,47,-1
 312 188 l 1,48,-1
 375 188 l 1,49,-1
 375 125 l 1,50,-1
 375 62 l 1,51,-1
 312 62 l 1,52,-1
 312 0 l 1,53,-1
 250 0 l 1,8,-1
250 562 m 1,54,-1
 188 562 l 1,55,-1
 188 625 l 1,56,-1
 250 625 l 1,57,-1
 250 562 l 1,54,-1
EndSplineSet
Validated: 5
EndChar

StartChar: edieresis
Encoding: 235 235 172
Width: 437
Flags: W
LayerCount: 2
Fore
SplineSet
312 500 m 1,0,-1
 312 562 l 1,1,-1
 375 562 l 1,2,-1
 375 500 l 1,3,-1
 312 500 l 1,0,-1
62 500 m 1,4,-1
 62 562 l 1,5,-1
 125 562 l 1,6,-1
 125 500 l 1,7,-1
 62 500 l 1,4,-1
250 0 m 1,8,-1
 188 0 l 1,9,-1
 125 0 l 1,10,-1
 62 0 l 1,11,-1
 62 62 l 1,12,-1
 0 62 l 1,13,-1
 0 125 l 1,14,-1
 0 188 l 1,15,-1
 0 250 l 1,16,-1
 0 312 l 1,17,-1
 62 312 l 1,18,-1
 62 375 l 1,19,-1
 125 375 l 1,20,-1
 125 438 l 1,21,-1
 188 438 l 1,22,-1
 250 438 l 1,23,-1
 312 438 l 1,24,-1
 312 375 l 1,25,-1
 375 375 l 1,26,-1
 375 312 l 1,27,-1
 312 312 l 1,28,-1
 312 250 l 1,29,-1
 250 250 l 1,30,-1
 250 312 l 1,31,-1
 250 375 l 1,32,-1
 188 375 l 1,33,-1
 188 312 l 1,34,-1
 125 312 l 1,35,-1
 125 250 l 1,36,-1
 188 250 l 1,37,-1
 250 250 l 1,38,-1
 250 188 l 1,39,-1
 188 188 l 1,40,-1
 125 188 l 1,41,-1
 125 125 l 1,42,-1
 188 125 l 1,43,-1
 188 62 l 1,44,-1
 250 62 l 1,45,-1
 250 125 l 1,46,-1
 312 125 l 1,47,-1
 312 188 l 1,48,-1
 375 188 l 1,49,-1
 375 125 l 1,50,-1
 375 62 l 1,51,-1
 312 62 l 1,52,-1
 312 0 l 1,53,-1
 250 0 l 1,8,-1
EndSplineSet
Validated: 5
EndChar

StartChar: igrave
Encoding: 236 236 173
Width: 187
Flags: W
LayerCount: 2
Fore
SplineSet
0 0 m 1,0,-1
 0 62 l 1,1,-1
 0 125 l 1,2,-1
 0 188 l 1,3,-1
 0 250 l 1,4,-1
 0 312 l 1,5,-1
 0 375 l 1,6,-1
 62 375 l 1,7,-1
 62 438 l 1,8,-1
 125 438 l 1,9,-1
 125 375 l 1,10,-1
 125 312 l 1,11,-1
 125 250 l 1,12,-1
 125 188 l 1,13,-1
 125 125 l 1,14,-1
 125 62 l 1,15,-1
 62 62 l 1,16,-1
 62 0 l 1,17,-1
 0 0 l 1,0,-1
62 500 m 1,18,-1
 62 562 l 1,19,-1
 125 562 l 1,20,-1
 125 500 l 1,21,-1
 62 500 l 1,18,-1
62 562 m 1,22,-1
 0 562 l 1,23,-1
 0 625 l 1,24,-1
 62 625 l 1,25,-1
 62 562 l 1,22,-1
EndSplineSet
Validated: 5
EndChar

StartChar: iacute
Encoding: 237 237 174
Width: 187
Flags: W
LayerCount: 2
Fore
SplineSet
0 0 m 1,0,-1
 0 62 l 1,1,-1
 0 125 l 1,2,-1
 0 188 l 1,3,-1
 0 250 l 1,4,-1
 0 312 l 1,5,-1
 0 375 l 1,6,-1
 62 375 l 1,7,-1
 62 438 l 1,8,-1
 125 438 l 1,9,-1
 125 375 l 1,10,-1
 125 312 l 1,11,-1
 125 250 l 1,12,-1
 125 188 l 1,13,-1
 125 125 l 1,14,-1
 125 62 l 1,15,-1
 62 62 l 1,16,-1
 62 0 l 1,17,-1
 0 0 l 1,0,-1
0 500 m 1,18,-1
 0 562 l 1,19,-1
 62 562 l 1,20,-1
 62 500 l 1,21,-1
 0 500 l 1,18,-1
62 562 m 1,22,-1
 62 625 l 1,23,-1
 125 625 l 1,24,-1
 125 562 l 1,25,-1
 62 562 l 1,22,-1
EndSplineSet
Validated: 5
EndChar

StartChar: icircumflex
Encoding: 238 238 175
Width: 250
Flags: W
LayerCount: 2
Fore
SplineSet
62 0 m 1,0,-1
 62 62 l 1,1,-1
 62 125 l 1,2,-1
 62 188 l 1,3,-1
 62 250 l 1,4,-1
 62 312 l 1,5,-1
 62 375 l 1,6,-1
 125 375 l 1,7,-1
 125 438 l 1,8,-1
 188 438 l 1,9,-1
 188 375 l 1,10,-1
 188 312 l 1,11,-1
 188 250 l 1,12,-1
 188 188 l 1,13,-1
 188 125 l 1,14,-1
 188 62 l 1,15,-1
 125 62 l 1,16,-1
 125 0 l 1,17,-1
 62 0 l 1,0,-1
125 500 m 1,18,-1
 125 562 l 1,19,-1
 188 562 l 1,20,-1
 188 500 l 1,21,-1
 125 500 l 1,18,-1
0 500 m 1,22,-1
 0 562 l 1,23,-1
 62 562 l 1,24,-1
 62 500 l 1,25,-1
 0 500 l 1,22,-1
125 562 m 1,26,-1
 62 562 l 1,27,-1
 62 625 l 1,28,-1
 125 625 l 1,29,-1
 125 562 l 1,26,-1
EndSplineSet
Validated: 5
EndChar

StartChar: idieresis
Encoding: 239 239 176
Width: 375
Flags: W
LayerCount: 2
Fore
SplineSet
125 0 m 1,0,-1
 125 62 l 1,1,-1
 125 125 l 1,2,-1
 125 188 l 1,3,-1
 125 250 l 1,4,-1
 125 312 l 1,5,-1
 125 375 l 1,6,-1
 188 375 l 1,7,-1
 188 438 l 1,8,-1
 250 438 l 1,9,-1
 250 375 l 1,10,-1
 250 312 l 1,11,-1
 250 250 l 1,12,-1
 250 188 l 1,13,-1
 250 125 l 1,14,-1
 250 62 l 1,15,-1
 188 62 l 1,16,-1
 188 0 l 1,17,-1
 125 0 l 1,0,-1
250 500 m 1,18,-1
 250 562 l 1,19,-1
 312 562 l 1,20,-1
 312 500 l 1,21,-1
 250 500 l 1,18,-1
62 500 m 1,22,-1
 62 562 l 1,23,-1
 125 562 l 1,24,-1
 125 500 l 1,25,-1
 62 500 l 1,22,-1
EndSplineSet
Validated: 1
EndChar

StartChar: eth
Encoding: 240 240 177
Width: 500
Flags: W
LayerCount: 2
Fore
SplineSet
250 438 m 1,0,-1
 250 500 l 1,1,-1
 312 500 l 1,2,-1
 312 438 l 1,3,-1
 250 438 l 1,0,-1
312 0 m 1,4,-1
 250 0 l 1,5,-1
 188 0 l 1,6,-1
 125 0 l 1,7,-1
 125 62 l 1,8,-1
 62 62 l 1,9,-1
 62 125 l 1,10,-1
 0 125 l 1,11,-1
 0 188 l 1,12,-1
 0 250 l 1,13,-1
 0 312 l 1,14,-1
 62 312 l 1,15,-1
 62 375 l 1,16,-1
 125 375 l 1,17,-1
 188 375 l 1,18,-1
 250 375 l 1,19,-1
 312 375 l 1,20,-1
 312 312 l 1,21,-1
 375 312 l 1,22,-1
 375 375 l 1,23,-1
 375 438 l 1,24,-1
 375 500 l 1,25,-1
 438 500 l 1,26,-1
 438 438 l 1,27,-1
 438 375 l 1,28,-1
 438 312 l 1,29,-1
 438 250 l 1,30,-1
 438 188 l 1,31,-1
 438 125 l 1,32,-1
 438 62 l 1,33,-1
 375 62 l 1,34,-1
 375 0 l 1,35,-1
 312 0 l 1,4,-1
312 62 m 1,36,-1
 312 125 l 1,37,-1
 312 188 l 1,38,-1
 312 250 l 1,39,-1
 250 250 l 1,40,-1
 250 312 l 1,41,-1
 188 312 l 1,42,-1
 125 312 l 1,43,-1
 125 250 l 1,44,-1
 125 188 l 1,45,-1
 188 188 l 1,46,-1
 188 125 l 1,47,-1
 250 125 l 1,48,-1
 250 62 l 1,49,-1
 312 62 l 1,36,-1
375 500 m 1,50,-1
 312 500 l 1,51,-1
 312 562 l 1,52,-1
 375 562 l 1,53,-1
 375 500 l 1,50,-1
375 562 m 1,54,-1
 375 625 l 1,55,-1
 438 625 l 1,56,-1
 438 562 l 1,57,-1
 375 562 l 1,54,-1
312 562 m 1,58,-1
 250 562 l 1,59,-1
 188 562 l 1,60,-1
 188 625 l 1,61,-1
 250 625 l 1,62,-1
 312 625 l 1,63,-1
 312 562 l 1,58,-1
EndSplineSet
Validated: 5
EndChar

StartChar: ntilde
Encoding: 241 241 178
Width: 500
Flags: W
LayerCount: 2
Fore
SplineSet
0 562 m 1,0,-1
 0 625 l 1,1,-1
 62 625 l 1,2,-1
 62 562 l 1,3,-1
 0 562 l 1,0,-1
312 0 m 1,4,-1
 250 0 l 1,5,-1
 250 62 l 1,6,-1
 250 125 l 1,7,-1
 250 188 l 1,8,-1
 250 250 l 1,9,-1
 250 312 l 1,10,-1
 250 375 l 1,11,-1
 188 375 l 1,12,-1
 188 312 l 1,13,-1
 125 312 l 1,14,-1
 125 250 l 1,15,-1
 125 188 l 1,16,-1
 125 125 l 1,17,-1
 125 62 l 1,18,-1
 125 0 l 1,19,-1
 62 0 l 1,20,-1
 0 0 l 1,21,-1
 0 62 l 1,22,-1
 0 125 l 1,23,-1
 0 188 l 1,24,-1
 0 250 l 1,25,-1
 0 312 l 1,26,-1
 0 375 l 1,27,-1
 0 438 l 1,28,-1
 62 438 l 1,29,-1
 125 438 l 1,30,-1
 125 375 l 1,31,-1
 188 375 l 1,32,-1
 188 438 l 1,33,-1
 250 438 l 1,34,-1
 312 438 l 1,35,-1
 312 375 l 1,36,-1
 375 375 l 1,37,-1
 375 312 l 1,38,-1
 375 250 l 1,39,-1
 375 188 l 1,40,-1
 375 125 l 1,41,-1
 375 62 l 1,42,-1
 375 0 l 1,43,-1
 312 0 l 1,4,-1
312 562 m 1,44,-1
 375 562 l 1,45,-1
 375 500 l 1,46,-1
 312 500 l 1,47,-1
 250 500 l 1,48,-1
 250 562 l 1,49,-1
 312 562 l 1,44,-1
375 562 m 1,50,-1
 375 625 l 1,51,-1
 438 625 l 1,52,-1
 438 562 l 1,53,-1
 375 562 l 1,50,-1
250 562 m 1,54,-1
 188 562 l 1,55,-1
 188 625 l 1,56,-1
 250 625 l 1,57,-1
 250 562 l 1,54,-1
188 625 m 1,58,-1
 125 625 l 1,59,-1
 62 625 l 1,60,-1
 62 688 l 1,61,-1
 125 688 l 1,62,-1
 188 688 l 1,63,-1
 188 625 l 1,58,-1
EndSplineSet
Validated: 5
EndChar

StartChar: ograve
Encoding: 242 242 179
Width: 500
Flags: W
LayerCount: 2
Fore
SplineSet
188 500 m 1,0,-1
 188 562 l 1,1,-1
 250 562 l 1,2,-1
 250 500 l 1,3,-1
 188 500 l 1,0,-1
312 0 m 1,4,-1
 250 0 l 1,5,-1
 188 0 l 1,6,-1
 125 0 l 1,7,-1
 125 62 l 1,8,-1
 62 62 l 1,9,-1
 62 125 l 1,10,-1
 0 125 l 1,11,-1
 0 188 l 1,12,-1
 0 250 l 1,13,-1
 0 312 l 1,14,-1
 0 375 l 1,15,-1
 62 375 l 1,16,-1
 62 438 l 1,17,-1
 125 438 l 1,18,-1
 188 438 l 1,19,-1
 250 438 l 1,20,-1
 312 438 l 1,21,-1
 312 375 l 1,22,-1
 375 375 l 1,23,-1
 375 312 l 1,24,-1
 438 312 l 1,25,-1
 438 250 l 1,26,-1
 438 188 l 1,27,-1
 438 125 l 1,28,-1
 438 62 l 1,29,-1
 375 62 l 1,30,-1
 375 0 l 1,31,-1
 312 0 l 1,4,-1
312 62 m 1,32,-1
 312 125 l 1,33,-1
 312 188 l 1,34,-1
 312 250 l 1,35,-1
 250 250 l 1,36,-1
 250 312 l 1,37,-1
 188 312 l 1,38,-1
 188 375 l 1,39,-1
 125 375 l 1,40,-1
 125 312 l 1,41,-1
 125 250 l 1,42,-1
 125 188 l 1,43,-1
 188 188 l 1,44,-1
 188 125 l 1,45,-1
 250 125 l 1,46,-1
 250 62 l 1,47,-1
 312 62 l 1,32,-1
188 562 m 1,48,-1
 125 562 l 1,49,-1
 125 625 l 1,50,-1
 188 625 l 1,51,-1
 188 562 l 1,48,-1
EndSplineSet
Validated: 5
EndChar

StartChar: oacute
Encoding: 243 243 180
Width: 500
Flags: W
LayerCount: 2
Fore
SplineSet
188 500 m 1,0,-1
 188 562 l 1,1,-1
 250 562 l 1,2,-1
 250 500 l 1,3,-1
 188 500 l 1,0,-1
312 0 m 1,4,-1
 250 0 l 1,5,-1
 188 0 l 1,6,-1
 125 0 l 1,7,-1
 125 62 l 1,8,-1
 62 62 l 1,9,-1
 62 125 l 1,10,-1
 0 125 l 1,11,-1
 0 188 l 1,12,-1
 0 250 l 1,13,-1
 0 312 l 1,14,-1
 0 375 l 1,15,-1
 62 375 l 1,16,-1
 62 438 l 1,17,-1
 125 438 l 1,18,-1
 188 438 l 1,19,-1
 250 438 l 1,20,-1
 312 438 l 1,21,-1
 312 375 l 1,22,-1
 375 375 l 1,23,-1
 375 312 l 1,24,-1
 438 312 l 1,25,-1
 438 250 l 1,26,-1
 438 188 l 1,27,-1
 438 125 l 1,28,-1
 438 62 l 1,29,-1
 375 62 l 1,30,-1
 375 0 l 1,31,-1
 312 0 l 1,4,-1
312 62 m 1,32,-1
 312 125 l 1,33,-1
 312 188 l 1,34,-1
 312 250 l 1,35,-1
 250 250 l 1,36,-1
 250 312 l 1,37,-1
 188 312 l 1,38,-1
 188 375 l 1,39,-1
 125 375 l 1,40,-1
 125 312 l 1,41,-1
 125 250 l 1,42,-1
 125 188 l 1,43,-1
 188 188 l 1,44,-1
 188 125 l 1,45,-1
 250 125 l 1,46,-1
 250 62 l 1,47,-1
 312 62 l 1,32,-1
250 562 m 1,48,-1
 250 625 l 1,49,-1
 312 625 l 1,50,-1
 312 562 l 1,51,-1
 250 562 l 1,48,-1
EndSplineSet
Validated: 5
EndChar

StartChar: ocircumflex
Encoding: 244 244 181
Width: 500
Flags: W
LayerCount: 2
Fore
SplineSet
312 500 m 1,0,-1
 312 562 l 1,1,-1
 375 562 l 1,2,-1
 375 500 l 1,3,-1
 312 500 l 1,0,-1
62 500 m 1,4,-1
 62 562 l 1,5,-1
 125 562 l 1,6,-1
 125 500 l 1,7,-1
 62 500 l 1,4,-1
312 0 m 1,8,-1
 250 0 l 1,9,-1
 188 0 l 1,10,-1
 125 0 l 1,11,-1
 125 62 l 1,12,-1
 62 62 l 1,13,-1
 62 125 l 1,14,-1
 0 125 l 1,15,-1
 0 188 l 1,16,-1
 0 250 l 1,17,-1
 0 312 l 1,18,-1
 0 375 l 1,19,-1
 62 375 l 1,20,-1
 62 438 l 1,21,-1
 125 438 l 1,22,-1
 188 438 l 1,23,-1
 250 438 l 1,24,-1
 312 438 l 1,25,-1
 312 375 l 1,26,-1
 375 375 l 1,27,-1
 375 312 l 1,28,-1
 438 312 l 1,29,-1
 438 250 l 1,30,-1
 438 188 l 1,31,-1
 438 125 l 1,32,-1
 438 62 l 1,33,-1
 375 62 l 1,34,-1
 375 0 l 1,35,-1
 312 0 l 1,8,-1
312 62 m 1,36,-1
 312 125 l 1,37,-1
 312 188 l 1,38,-1
 312 250 l 1,39,-1
 250 250 l 1,40,-1
 250 312 l 1,41,-1
 188 312 l 1,42,-1
 188 375 l 1,43,-1
 125 375 l 1,44,-1
 125 312 l 1,45,-1
 125 250 l 1,46,-1
 125 188 l 1,47,-1
 188 188 l 1,48,-1
 188 125 l 1,49,-1
 250 125 l 1,50,-1
 250 62 l 1,51,-1
 312 62 l 1,36,-1
312 562 m 1,52,-1
 250 562 l 1,53,-1
 250 625 l 1,54,-1
 312 625 l 1,55,-1
 312 562 l 1,52,-1
125 562 m 1,56,-1
 125 625 l 1,57,-1
 188 625 l 1,58,-1
 188 562 l 1,59,-1
 125 562 l 1,56,-1
250 625 m 1,60,-1
 188 625 l 1,61,-1
 188 688 l 1,62,-1
 250 688 l 1,63,-1
 250 625 l 1,60,-1
EndSplineSet
Validated: 5
EndChar

StartChar: otilde
Encoding: 245 245 182
Width: 500
Flags: W
LayerCount: 2
Fore
SplineSet
0 562 m 1,0,-1
 0 625 l 1,1,-1
 62 625 l 1,2,-1
 62 562 l 1,3,-1
 0 562 l 1,0,-1
312 0 m 1,4,-1
 250 0 l 1,5,-1
 188 0 l 1,6,-1
 125 0 l 1,7,-1
 125 62 l 1,8,-1
 62 62 l 1,9,-1
 62 125 l 1,10,-1
 0 125 l 1,11,-1
 0 188 l 1,12,-1
 0 250 l 1,13,-1
 0 312 l 1,14,-1
 0 375 l 1,15,-1
 62 375 l 1,16,-1
 62 438 l 1,17,-1
 125 438 l 1,18,-1
 188 438 l 1,19,-1
 250 438 l 1,20,-1
 312 438 l 1,21,-1
 312 375 l 1,22,-1
 375 375 l 1,23,-1
 375 312 l 1,24,-1
 438 312 l 1,25,-1
 438 250 l 1,26,-1
 438 188 l 1,27,-1
 438 125 l 1,28,-1
 438 62 l 1,29,-1
 375 62 l 1,30,-1
 375 0 l 1,31,-1
 312 0 l 1,4,-1
312 62 m 1,32,-1
 312 125 l 1,33,-1
 312 188 l 1,34,-1
 312 250 l 1,35,-1
 250 250 l 1,36,-1
 250 312 l 1,37,-1
 188 312 l 1,38,-1
 188 375 l 1,39,-1
 125 375 l 1,40,-1
 125 312 l 1,41,-1
 125 250 l 1,42,-1
 125 188 l 1,43,-1
 188 188 l 1,44,-1
 188 125 l 1,45,-1
 250 125 l 1,46,-1
 250 62 l 1,47,-1
 312 62 l 1,32,-1
312 562 m 1,48,-1
 375 562 l 1,49,-1
 375 500 l 1,50,-1
 312 500 l 1,51,-1
 250 500 l 1,52,-1
 250 562 l 1,53,-1
 312 562 l 1,48,-1
375 562 m 1,54,-1
 375 625 l 1,55,-1
 438 625 l 1,56,-1
 438 562 l 1,57,-1
 375 562 l 1,54,-1
250 562 m 1,58,-1
 188 562 l 1,59,-1
 188 625 l 1,60,-1
 250 625 l 1,61,-1
 250 562 l 1,58,-1
188 625 m 1,62,-1
 125 625 l 1,63,-1
 62 625 l 1,64,-1
 62 688 l 1,65,-1
 125 688 l 1,66,-1
 188 688 l 1,67,-1
 188 625 l 1,62,-1
EndSplineSet
Validated: 5
EndChar

StartChar: odieresis
Encoding: 246 246 183
Width: 500
Flags: W
LayerCount: 2
Fore
SplineSet
250 500 m 1,0,-1
 250 562 l 1,1,-1
 312 562 l 1,2,-1
 312 500 l 1,3,-1
 250 500 l 1,0,-1
62 500 m 1,4,-1
 62 562 l 1,5,-1
 125 562 l 1,6,-1
 125 500 l 1,7,-1
 62 500 l 1,4,-1
312 0 m 1,8,-1
 250 0 l 1,9,-1
 188 0 l 1,10,-1
 125 0 l 1,11,-1
 125 62 l 1,12,-1
 62 62 l 1,13,-1
 62 125 l 1,14,-1
 0 125 l 1,15,-1
 0 188 l 1,16,-1
 0 250 l 1,17,-1
 0 312 l 1,18,-1
 0 375 l 1,19,-1
 62 375 l 1,20,-1
 62 438 l 1,21,-1
 125 438 l 1,22,-1
 188 438 l 1,23,-1
 250 438 l 1,24,-1
 312 438 l 1,25,-1
 312 375 l 1,26,-1
 375 375 l 1,27,-1
 375 312 l 1,28,-1
 438 312 l 1,29,-1
 438 250 l 1,30,-1
 438 188 l 1,31,-1
 438 125 l 1,32,-1
 438 62 l 1,33,-1
 375 62 l 1,34,-1
 375 0 l 1,35,-1
 312 0 l 1,8,-1
312 62 m 1,36,-1
 312 125 l 1,37,-1
 312 188 l 1,38,-1
 312 250 l 1,39,-1
 250 250 l 1,40,-1
 250 312 l 1,41,-1
 188 312 l 1,42,-1
 188 375 l 1,43,-1
 125 375 l 1,44,-1
 125 312 l 1,45,-1
 125 250 l 1,46,-1
 125 188 l 1,47,-1
 188 188 l 1,48,-1
 188 125 l 1,49,-1
 250 125 l 1,50,-1
 250 62 l 1,51,-1
 312 62 l 1,36,-1
EndSplineSet
Validated: 1
EndChar

StartChar: divide
Encoding: 247 247 184
Width: 437
Flags: W
LayerCount: 2
Fore
SplineSet
188 125 m 1,0,-1
 125 125 l 1,1,-1
 125 188 l 1,2,-1
 125 250 l 1,3,-1
 188 250 l 1,4,-1
 250 250 l 1,5,-1
 250 188 l 1,6,-1
 250 125 l 1,7,-1
 188 125 l 1,0,-1
312 375 m 1,8,-1
 375 375 l 1,9,-1
 375 312 l 1,10,-1
 312 312 l 1,11,-1
 250 312 l 1,12,-1
 188 312 l 1,13,-1
 125 312 l 1,14,-1
 62 312 l 1,15,-1
 0 312 l 1,16,-1
 0 375 l 1,17,-1
 62 375 l 1,18,-1
 125 375 l 1,19,-1
 188 375 l 1,20,-1
 250 375 l 1,21,-1
 312 375 l 1,8,-1
188 438 m 1,22,-1
 125 438 l 1,23,-1
 125 500 l 1,24,-1
 125 562 l 1,25,-1
 188 562 l 1,26,-1
 250 562 l 1,27,-1
 250 500 l 1,28,-1
 250 438 l 1,29,-1
 188 438 l 1,22,-1
EndSplineSet
Validated: 1
EndChar

